<?xml version="1.0" standalone="no"?>
<!DOCTYPE svg PUBLIC "-//W3C//DTD SVG 1.1//EN" "http://www.w3.org/Graphics/SVG/1.1/DTD/svg11.dtd" >
<svg xmlns="http://www.w3.org/2000/svg" xmlns:xlink="http://www.w3.org/1999/xlink" version="1.1">
<metadata>
Created by FontForge 20170731 at Sun Dec 10 07:30:00 2023
 By Aleksey,,,
Copyright (c) 2020 CoType Foundry. All Rights Reserved
</metadata>
<defs>
<font id="AeonikEurosport-Regular" horiz-adv-x="1073" >
  <font-face 
    font-family="Aeonik Eurosport"
    font-weight="400"
    font-stretch="normal"
    units-per-em="2048"
    panose-1="2 11 5 3 3 3 0 0 0 0"
    ascent="1638"
    descent="-410"
    x-height="1044"
    cap-height="1434"
    bbox="-764 -422 4385 1835"
    underline-thickness="122"
    underline-position="-532"
    unicode-range="U+000D-1F10C"
  />
<missing-glyph horiz-adv-x="1269" 
d="M123 -223v1698h1024v-1698h-1024zM444 1294q-84 0 -129 -49t-45 -135t45 -135t129 -49q66 0 106.5 38t45.5 99h-94q-13 -59 -62 -59q-71 0 -71 106q0 107 71 107q48 0 62 -62h94q-5 63 -45.5 101t-106.5 38zM807 1294q-81 0 -129.5 -52t-48.5 -132q0 -81 48 -132.5
t130 -51.5q81 0 129.5 51.5t48.5 132.5q0 80 -49 132t-129 52zM807 1004q-39 0 -59.5 29.5t-20.5 76.5q0 48 21 77.5t59 29.5t59 -29.5t21 -77.5q0 -47 -20.5 -76.5t-59.5 -29.5zM590 819h-299v-82h100v-282h96v282h103v82zM854 455v135l131 229h-106l-72 -133l-68 133h-112
l131 -229v-135h96zM416 94h57q62 0 99.5 34t37.5 91q0 58 -37.5 92.5t-99.5 34.5h-151v-364h94v112zM692 -18h256v81h-160v64h123v76h-123v61h154v82h-250v-364zM416 268h49q22 0 35.5 -13t13.5 -36q0 -22 -13.5 -34.5t-35.5 -12.5h-49v96z" />
    <glyph glyph-name="fi" unicode="fi" horiz-adv-x="1052" 
d="M856 1221q-46 0 -77 30.5t-31 77.5t31 78t77 31t77.5 -31t31.5 -78t-31.5 -77.5t-77.5 -30.5zM360 1044h578v-1044h-168v891h-410v-891h-167v891h-189v153h189v117q0 140 64 206.5t208 66.5h172v-154h-162q-62 0 -88.5 -27t-26.5 -88v-121z" />
    <glyph glyph-name="f_f.liga" unicode="ff" horiz-adv-x="1241" 
d="M1235 1280h-182q-62 0 -88.5 -27t-26.5 -88v-121h295v-153h-295v-891h-168v891h-410v-891h-167v891h-189v153h189v117q0 140 64 206.5t208 66.5h172v-154h-162q-62 0 -88.5 -27t-26.5 -88v-121h410v117q0 140 64 206.5t208 66.5h193v-154z" />
    <glyph glyph-name="f_f_i.liga" unicode="ffi" horiz-adv-x="1638" 
d="M1442 1221q-46 0 -77.5 30.5t-31.5 77.5t31.5 78t77.5 31t77 -31t31 -78t-31 -77.5t-77 -30.5zM946 1044h578v-1044h-168v891h-410v-891h-168v891h-418v-891h-167v891h-189v153h189v117q0 140 64 206.5t208 66.5h172v-154h-162q-62 0 -88.5 -27t-26.5 -88v-121h418v117
q0 140 64.5 206.5t208.5 66.5h172v-154h-162q-62 0 -88.5 -27t-26.5 -88v-121z" />
    <glyph glyph-name="f_f_t.liga" unicode="fft" horiz-adv-x="1849" 
d="M1636 154h183v-154h-193q-148 0 -210 65.5t-62 206.5v619h-408v-891h-168v891h-418v-891h-167v891h-189v153h189v117q0 140 64 206.5t208 66.5h172v-154h-162q-62 0 -88.5 -27t-26.5 -88v-121h418v117q0 140 64.5 206.5t208.5 66.5h159v-154h-149q-62 0 -88.5 -27
t-26.5 -88v-121h408v293h168v-293h264v-153h-264v-617q0 -66 25.5 -93t88.5 -27z" />
    <glyph glyph-name="f_t.liga" unicode="ft" horiz-adv-x="1263" 
d="M1051 154h182v-154h-193q-148 0 -210 65.5t-62 206.5v619h-408v-891h-167v891h-189v153h189v117q0 140 64 206.5t208 66.5h160v-154h-150q-62 0 -88.5 -27t-26.5 -88v-121h408v293h168v-293h264v-153h-264v-617q0 -66 26 -93t89 -27z" />
    <glyph glyph-name="t_t.liga" unicode="tt" horiz-adv-x="1286" 
d="M1073 154h182v-154h-192q-148 0 -210 65.5t-62 206.5v619h-431v-617q0 -66 26 -93t89 -27h150v-154h-160q-148 0 -210 65.5t-62 206.5v619h-189v153h189v293h167v-293h431v293h167v-293h265v-153h-265v-617q0 -66 26 -93t89 -27z" />
    <glyph glyph-name=".notdef" horiz-adv-x="1269" 
d="M123 -223v1698h1024v-1698h-1024zM444 1294q-84 0 -129 -49t-45 -135t45 -135t129 -49q66 0 106.5 38t45.5 99h-94q-13 -59 -62 -59q-71 0 -71 106q0 107 71 107q48 0 62 -62h94q-5 63 -45.5 101t-106.5 38zM807 1294q-81 0 -129.5 -52t-48.5 -132q0 -81 48 -132.5
t130 -51.5q81 0 129.5 51.5t48.5 132.5q0 80 -49 132t-129 52zM807 1004q-39 0 -59.5 29.5t-20.5 76.5q0 48 21 77.5t59 29.5t59 -29.5t21 -77.5q0 -47 -20.5 -76.5t-59.5 -29.5zM590 819h-299v-82h100v-282h96v282h103v82zM854 455v135l131 229h-106l-72 -133l-68 133h-112
l131 -229v-135h96zM416 94h57q62 0 99.5 34t37.5 91q0 58 -37.5 92.5t-99.5 34.5h-151v-364h94v112zM692 -18h256v81h-160v64h123v76h-123v61h154v82h-250v-364zM416 268h49q22 0 35.5 -13t13.5 -36q0 -22 -13.5 -34.5t-35.5 -12.5h-49v96z" />
    <glyph glyph-name=".null" horiz-adv-x="1228" 
 />
    <glyph glyph-name="nonmarkingreturn" horiz-adv-x="682" 
 />
    <glyph glyph-name="CR" unicode="&#xd;" horiz-adv-x="1228" 
 />
    <glyph glyph-name="space" unicode=" " horiz-adv-x="536" 
 />
    <glyph glyph-name="exclam" unicode="!" horiz-adv-x="512" 
d="M322 428h-129l-27 1006h180zM139 102q0 52 32.5 83.5t84.5 31.5t84.5 -31.5t32.5 -83.5t-32.5 -83t-84.5 -31t-84.5 31t-32.5 83z" />
    <glyph glyph-name="quotedbl" unicode="&#x22;" horiz-adv-x="739" 
d="M264 936h-131l-35 381q-5 55 22.5 90t78.5 35q54 0 79.5 -34.5t20.5 -90.5zM606 936h-131l-35 381q-5 55 22.5 90t78.5 35q54 0 79.5 -34.5t20.5 -90.5z" />
    <glyph glyph-name="numbersign" unicode="#" horiz-adv-x="1185" 
d="M352 897l54 344h139l-53 -344h280l53 344h140l-54 -344h197v-141h-217l-39 -271h211v-141h-232l-53 -344h-139l53 344h-280l-54 -344h-139l53 344h-196v141h217l39 271h-211v141h231zM752 756h-281l-39 -271h281z" />
    <glyph glyph-name="dollar" unicode="$" horiz-adv-x="1243" 
d="M1157 410q0 -171 -123 -287t-323 -133v-209h-156v211q-216 24 -340.5 153t-132.5 324h184q11 -145 115 -232t268 -87q148 0 239 64t91 179q0 33 -7.5 60.5t-24 49t-35 38.5t-49 31t-57 24t-68 19.5t-73 15.5t-79.5 14q-79 13 -138.5 29t-125 46t-108 70t-70 103.5
t-27.5 144.5q0 171 120.5 281.5t317.5 124.5v211h156v-215q192 -26 304.5 -141t123.5 -289h-185q-15 125 -108.5 199.5t-239.5 74.5q-143 0 -227 -61t-84 -174q0 -36 11 -66t27.5 -51t47.5 -39.5t58.5 -30t74 -23t80.5 -18t90 -16.5q79 -13 139.5 -29t126.5 -46.5t108.5 -71
t70.5 -104t28 -144.5z" />
    <glyph glyph-name="percent" unicode="%" horiz-adv-x="1843" 
d="M111 1098q0 152 102 250t258 98t258 -98t102 -250q0 -149 -102.5 -246.5t-257.5 -97.5t-257.5 97.5t-102.5 246.5zM518 0h-166l977 1434h166zM680 1098q0 92 -59 152.5t-150 60.5t-150 -60.5t-59 -152.5q0 -91 59 -150t150 -59t150 59t59 150zM1012 332q0 152 102 250
t258 98t258.5 -98t102.5 -250q0 -149 -102.5 -246.5t-258.5 -97.5q-155 0 -257.5 97.5t-102.5 246.5zM1581 332q0 92 -59 152.5t-150 60.5t-150 -60.5t-59 -152.5q0 -91 59 -150t150 -59t150 59t59 150z" />
    <glyph glyph-name="ampersand" unicode="&#x26;" horiz-adv-x="1519" 
d="M1280 150h135v-150h-155q-150 0 -218 78l-81 92q-176 -182 -404 -182q-95 0 -177 24t-143 70t-96 117.5t-35 160.5q0 123 77 231t245 179q-79 96 -110 168.5t-31 163.5q0 147 115.5 245.5t287.5 98.5q146 0 242 -89.5t96 -223.5q0 -267 -348 -402l287 -319l241 362h178
l-317 -477l80 -90q29 -33 58.5 -45t72.5 -12zM678 1305q-97 0 -157 -55t-60 -142q0 -74 27.5 -130.5t101.5 -143.5q268 108 268 294q0 77 -49.5 127t-130.5 50zM561 137q166 0 301 144l-334 372q-1 1 -5.5 7t-8.5 8q-130 -63 -182.5 -128.5t-52.5 -162.5q0 -112 77.5 -176
t204.5 -64z" />
    <glyph glyph-name="quotesingle" unicode="'" horiz-adv-x="397" 
d="M264 936h-131l-35 381q-5 55 22.5 90t78.5 35q54 0 79.5 -34.5t20.5 -90.5z" />
    <glyph glyph-name="parenleft" unicode="(" horiz-adv-x="614" 
d="M578 -266h-185q-297 387 -297 880q0 495 297 881h185q-168 -222 -242 -433t-74 -448q0 -240 74 -450t242 -430z" />
    <glyph glyph-name="parenright" unicode=")" horiz-adv-x="614" 
d="M37 1495h184q297 -387 297 -881t-297 -880h-184q167 222 241 432t74 448q0 240 -73.5 450.5t-241.5 430.5z" />
    <glyph glyph-name="asterisk" unicode="*" horiz-adv-x="870" 
d="M727 1282l47 -117l-250 -92l170 -201l-90 -81l-172 215l-170 -215l-88 81l172 203l-250 92l47 115l238 -108l-4 262h117l-7 -265z" />
    <glyph glyph-name="plus" unicode="+" 
d="M459 657v359h153v-359h342v-141h-342v-360h-153v360h-340v141h340z" />
    <glyph glyph-name="comma" unicode="," horiz-adv-x="421" 
d="M190 215q73 0 117.5 -60.5t44.5 -148.5q0 -130 -77 -204.5t-212 -77.5v96q89 1 131 51t42 113q0 14 -3 26q-24 -24 -69 -24q-48 0 -78.5 28.5t-30.5 81.5q0 52 36 85.5t99 33.5z" />
    <glyph glyph-name="hyphen" unicode="-" horiz-adv-x="894" 
d="M788 512h-682v141h682v-141z" />
    <glyph glyph-name="period" unicode="." horiz-adv-x="421" 
d="M94 102q0 52 32.5 83.5t84.5 31.5t84.5 -31.5t32.5 -83.5t-32.5 -83t-84.5 -31t-84.5 31t-32.5 83z" />
    <glyph glyph-name="slash" unicode="/" horiz-adv-x="729" 
d="M178 -266h-166l580 1761h166z" />
    <glyph glyph-name="zero" unicode="0" horiz-adv-x="1263" 
d="M88 684v66q0 202 68 360.5t192.5 247t284.5 88.5q159 0 283 -88.5t192 -247t68 -360.5v-66q0 -318 -149.5 -507t-393.5 -189q-245 0 -395 189t-150 507zM1001 690v53q0 253 -100.5 399t-267.5 146q-169 0 -270 -146t-101 -399v-53q0 -253 101 -399t270 -146
q167 0 267.5 146t100.5 399z" />
    <glyph glyph-name="one" unicode="1" horiz-adv-x="651" 
d="M342 1278v156h168v-1434h-172v1028q-30 -27 -98 -27h-232v154h234q49 0 74.5 33.5t25.5 89.5z" />
    <glyph glyph-name="two" unicode="2" horiz-adv-x="1095" 
d="M45 0v145l557 484q58 50 95.5 87.5t75 86t55.5 100t18 107.5q0 133 -85 207.5t-229 74.5q-139 0 -223 -86t-84 -233v-27h-172v37q0 204 132 333.5t347 129.5q229 0 359.5 -116t130.5 -312q0 -78 -22.5 -146t-70 -130.5t-94.5 -109t-122 -110.5l-430 -364h749v-158h-987z
" />
    <glyph glyph-name="three" unicode="3" horiz-adv-x="1167" 
d="M817 745q111 -21 189.5 -108.5t78.5 -239.5q0 -183 -141.5 -296t-374.5 -113q-235 0 -373.5 121t-138.5 333h170q1 -139 99.5 -220t253.5 -81q142 0 235.5 74t93.5 195q0 114 -90.5 179.5t-255.5 65.5h-123v150h113q155 0 237 69.5t82 182.5q0 107 -85.5 171t-217.5 64
q-136 0 -224 -75t-89 -197h-170q2 189 135.5 307.5t345.5 118.5q220 0 351 -104.5t131 -274.5q0 -130 -62.5 -211.5t-169.5 -110.5z" />
    <glyph glyph-name="four" unicode="4" horiz-adv-x="1202" 
d="M27 350v154l731 930h192v-926h232v-158h-232v-350h-172v350h-751zM778 1223l-559 -715h559v715z" />
    <glyph glyph-name="five" unicode="5" horiz-adv-x="1163" 
d="M625 961q211 0 343 -134t132 -348q0 -115 -40.5 -209.5t-110 -154.5t-160 -92.5t-191.5 -32.5q-117 0 -213.5 36t-160.5 98.5t-101.5 145t-42.5 176.5h170q13 -130 105.5 -216.5t242.5 -86.5q87 0 159.5 36.5t119.5 114t47 183.5q0 148 -88 240t-236 92q-40 0 -81 -7
t-91 -26t-91.5 -60.5t-62.5 -101.5l-165 4l47 816h858v-158h-701l-32 -453q117 138 344 138z" />
    <glyph glyph-name="six" unicode="6" horiz-adv-x="1212" 
d="M201 225q-113 196 -113 486q0 340 145 537.5t400 197.5q194 0 320.5 -107t152.5 -288h-172q-26 113 -104.5 178t-204.5 65q-122 0 -210.5 -70.5t-132.5 -194t-44 -286.5q0 -34 2 -69q7 27 12 39q48 108 152.5 171.5t246.5 63.5q214 0 348 -130.5t134 -348.5
q0 -209 -139 -345t-359 -136q-289 0 -434 237zM961 469q0 145 -87.5 236.5t-234.5 91.5q-149 0 -241.5 -92t-92.5 -240q0 -145 90.5 -235.5t237.5 -90.5q148 0 238 92t90 238z" />
    <glyph glyph-name="seven" unicode="7" horiz-adv-x="1048" 
d="M14 1276v158h1012v-121l-704 -1313h-187l703 1276h-824z" />
    <glyph glyph-name="eight" unicode="8" horiz-adv-x="1208" 
d="M840 741q127 -29 206.5 -121.5t79.5 -234.5q0 -176 -141.5 -286.5t-380.5 -110.5t-380.5 110.5t-141.5 286.5q0 141 80 234t207 122q-107 24 -176.5 111.5t-69.5 212.5q0 170 131.5 275.5t349.5 105.5t349.5 -105.5t131.5 -275.5q0 -121 -69.5 -210.5t-175.5 -113.5z
M299 1065q0 -106 83.5 -171t221.5 -65t221.5 65t83.5 171q0 105 -83.5 169t-221.5 64t-221.5 -64t-83.5 -169zM604 135q153 0 249.5 73t96.5 189q0 114 -96.5 187t-249.5 73t-249.5 -73t-96.5 -187q0 -115 97 -188.5t249 -73.5z" />
    <glyph glyph-name="nine" unicode="9" horiz-adv-x="1212" 
d="M580 -12q-194 0 -321 107t-153 288h173q26 -113 104.5 -178.5t204.5 -65.5q122 0 210.5 70.5t132.5 194t44 286.5q0 35 -2 70q-7 -27 -12 -39q-48 -108 -153 -172t-247 -64q-214 0 -347.5 131t-133.5 349q0 209 139 345t359 136q288 0 434 -238q112 -194 112 -485
q0 -340 -144.5 -537.5t-399.5 -197.5zM573 637q149 0 241.5 92t92.5 240q0 145 -90 235t-237 90q-148 0 -238 -91.5t-90 -237.5q0 -145 87 -236.5t234 -91.5z" />
    <glyph glyph-name="colon" unicode=":" horiz-adv-x="421" 
d="M94 870q0 52 32.5 83.5t84.5 31.5t84.5 -31.5t32.5 -83.5t-32.5 -83t-84.5 -31t-84.5 31t-32.5 83zM94 102q0 52 32.5 83.5t84.5 31.5t84.5 -31.5t32.5 -83.5t-32.5 -83t-84.5 -31t-84.5 31t-32.5 83z" />
    <glyph glyph-name="semicolon" unicode=";" horiz-adv-x="421" 
d="M88 870q0 52 32.5 83.5t84.5 31.5t84.5 -31.5t32.5 -83.5t-32.5 -83t-84.5 -31t-84.5 31t-32.5 83zM190 215q73 0 117.5 -60.5t44.5 -148.5q0 -130 -77 -204.5t-212 -77.5v96q89 1 131 51t42 113q0 14 -3 26q-24 -24 -69 -24q-48 0 -78.5 28.5t-30.5 81.5q0 52 36 85.5
t99 33.5z" />
    <glyph glyph-name="less" unicode="&#x3c;" 
d="M926 154l-779 348v160l779 348v-164l-590 -264l590 -265v-163z" />
    <glyph glyph-name="equal" unicode="=" 
d="M934 707h-795v143h795v-143zM934 281h-795v141h795v-141z" />
    <glyph glyph-name="greater" unicode="&#x3e;" 
d="M147 1010l779 -348v-160l-779 -348v163l590 265l-590 264v164z" />
    <glyph glyph-name="question" unicode="?" horiz-adv-x="1050" 
d="M242 977h-172q0 132 55 237.5t162 168.5t248 63q198 0 319 -102t121 -261q0 -65 -16 -119.5t-46.5 -97t-62.5 -72t-76 -61.5q-42 -30 -62.5 -44.5t-49.5 -40.5t-42 -46.5t-23.5 -50t-10.5 -62.5v-53h-158v72q0 34 7 65t15.5 54t28 48t32.5 39.5t42.5 37.5t44 33t49.5 34
q76 54 114 111t38 137q0 97 -73 160t-189 63q-133 0 -214 -86.5t-81 -226.5zM393 102q0 52 32.5 83.5t84.5 31.5t84.5 -31.5t32.5 -83.5t-32.5 -83t-84.5 -31t-84.5 31t-32.5 83z" />
    <glyph glyph-name="at" unicode="@" horiz-adv-x="2011" 
d="M104 504q0 188 74.5 353.5t201.5 282.5t301.5 185t367.5 68q187 0 347 -55.5t272 -153.5t175.5 -236t63.5 -299q0 -242 -123.5 -395.5t-313.5 -153.5q-92 0 -150.5 44.5t-66.5 109.5l-4 31q-35 -83 -121.5 -133t-193.5 -50q-157 0 -264 110t-107 282q0 127 59 236
t157 172t210 63q115 0 188.5 -43t98.5 -113l31 137h131l-62 -584q-14 -139 119 -139q103 0 177.5 123.5t74.5 306.5q0 269 -192.5 434.5t-507.5 165.5q-173 0 -320.5 -58t-248.5 -158t-157.5 -237.5t-56.5 -293.5q0 -322 198 -505t558 -183q272 0 469 127l-4 -150
q-79 -53 -207 -85t-272 -32q-262 0 -466.5 101t-320 289.5t-115.5 435.5zM1253 594q0 115 -64.5 181.5t-168.5 66.5q-126 0 -213.5 -100.5t-87.5 -241.5q0 -123 66.5 -199t172.5 -76q126 0 210.5 103t84.5 266z" />
    <glyph glyph-name="A" unicode="A" horiz-adv-x="1347" 
d="M207 0h-184l546 1434h211l545 -1434h-190l-152 387h-625zM670 1239l-258 -690h518z" />
    <glyph glyph-name="B" unicode="B" horiz-adv-x="1265" 
d="M139 0v1434h508q226 0 350.5 -101.5t124.5 -277.5q0 -119 -59.5 -197t-165.5 -115q126 -24 205.5 -106t79.5 -227q0 -193 -134 -301.5t-386 -108.5h-523zM655 1272h-338v-461h338q138 0 213.5 61t75.5 170q0 108 -75.5 169t-213.5 61zM662 651h-345v-489h345
q163 0 250 63.5t87 175.5q0 121 -88 185.5t-249 64.5z" />
    <glyph glyph-name="C" unicode="C" horiz-adv-x="1445" 
d="M756 -12q-307 0 -488.5 199.5t-181.5 529.5q0 327 187 528t497 201q238 0 400 -129.5t202 -351.5h-188q-41 150 -151.5 233.5t-270.5 83.5q-224 0 -359 -157t-135 -408t131.5 -408t354.5 -157q165 0 276.5 83t151.5 234h188q-40 -222 -205.5 -351.5t-408.5 -129.5z" />
    <glyph glyph-name="D" unicode="D" horiz-adv-x="1404" 
d="M598 0h-459v1434h459q334 0 527.5 -196t193.5 -521q0 -324 -194 -520.5t-527 -196.5zM317 1270v-1106h281q257 0 398 149t141 404q0 256 -141 404.5t-398 148.5h-281z" />
    <glyph glyph-name="E" unicode="E" horiz-adv-x="1140" 
d="M139 0v1434h914v-164h-736v-459h613v-164h-613v-483h762v-164h-940z" />
    <glyph glyph-name="F" unicode="F" horiz-adv-x="1081" 
d="M139 0v1434h891v-164h-713v-479h590v-164h-590v-627h-178z" />
    <glyph glyph-name="G" unicode="G" horiz-adv-x="1529" 
d="M760 -12q-197 0 -350 91t-238.5 257.5t-85.5 380.5q0 327 187 528t497 201q239 0 404 -129.5t202 -349.5h-190q-37 149 -147 232t-273 83q-224 0 -361 -157t-137 -408q0 -250 136 -407.5t358 -157.5q201 0 328 111.5t127 299.5v49h-431v164h605v-776h-154l-12 209
q-58 -91 -177 -156t-288 -65z" />
    <glyph glyph-name="H" unicode="H" horiz-adv-x="1376" 
d="M139 0v1434h178v-623h742v623h178v-1434h-178v647h-742v-647h-178z" />
    <glyph glyph-name="I" unicode="I" horiz-adv-x="456" 
d="M139 0v1434h178v-1434h-178z" />
    <glyph glyph-name="J" unicode="J" horiz-adv-x="716" 
d="M399 352v1082h179v-1096q0 -166 -86 -252t-252 -86h-187v164h164q96 0 139 45t43 143z" />
    <glyph glyph-name="K" unicode="K" horiz-adv-x="1306" 
d="M139 0v1434h178v-813l723 813h217l-524 -605l565 -829h-213l-483 694l-285 -321v-373h-178z" />
    <glyph glyph-name="L" unicode="L" horiz-adv-x="1011" 
d="M971 0h-832v1434h178v-1270h654v-164z" />
    <glyph glyph-name="M" unicode="M" horiz-adv-x="1734" 
d="M139 0v1434h226l507 -1190l502 1190h221v-1434h-174v1130l-475 -1130h-158l-475 1130v-1130h-174z" />
    <glyph glyph-name="N" unicode="N" horiz-adv-x="1386" 
d="M313 0h-174v1434h164l770 -1106v1106h174v-1434h-164l-770 1106v-1106z" />
    <glyph glyph-name="O" unicode="O" horiz-adv-x="1540" 
d="M1454 717q0 -209 -86.5 -375t-242.5 -260t-355 -94t-355 94t-242.5 260t-86.5 375t86.5 375t242.5 260t355 94t355 -94t242.5 -260t86.5 -375zM268 717q0 -249 139.5 -407t362.5 -158t362.5 158t139.5 407t-139.5 407t-362.5 158t-362.5 -158t-139.5 -407z" />
    <glyph glyph-name="P" unicode="P" horiz-adv-x="1216" 
d="M139 0v1434h551q216 0 345.5 -120t129.5 -321t-130 -321.5t-345 -120.5h-373v-551h-178zM676 1270h-359v-555h357q141 0 225 75.5t84 202.5t-83 202t-224 75z" />
    <glyph glyph-name="Q" unicode="Q" horiz-adv-x="1548" 
d="M1432 164h110v-164h-131q-81 0 -129.5 22.5t-87.5 75.5l-14 21q-173 -131 -410 -131q-199 0 -355 94t-242.5 260t-86.5 375t86.5 375t242.5 260t355 94t355 -94t242.5 -260t86.5 -375q0 -283 -158 -484q29 -38 59.5 -53.5t76.5 -15.5zM770 152q179 0 307 106l-39 53
q-29 39 -58 55.5t-67 16.5h-120v164h149q70 0 115 -23.5t84 -77.5l45 -61q86 141 86 332q0 249 -139.5 407t-362.5 158t-362.5 -158t-139.5 -407t139.5 -407t362.5 -158z" />
    <glyph glyph-name="R" unicode="R" horiz-adv-x="1251" 
d="M139 0v1434h549q216 0 346.5 -120t130.5 -321q0 -150 -83 -259t-222 -148l322 -586h-201l-303 551h-361v-551h-178zM676 1270h-359v-555h357q141 0 225 76t84 202t-83.5 201.5t-223.5 75.5z" />
    <glyph glyph-name="S" unicode="S" horiz-adv-x="1243" 
d="M82 469h184q11 -145 115 -232t268 -87q148 0 239 64t91 179q0 33 -7.5 60.5t-24 49t-35 38.5t-49 31t-57 24t-68 19.5t-73 15.5t-79.5 14q-79 13 -138.5 29t-125 46t-108 70t-70 103.5t-27.5 144.5q0 183 135 295.5t354 112.5q236 0 378.5 -119.5t154.5 -316.5h-185
q-15 125 -108.5 199.5t-239.5 74.5q-143 0 -227 -61t-84 -174q0 -36 11 -66t27.5 -51t47.5 -39.5t58.5 -30t74 -23t80.5 -18t90 -16.5q79 -13 139.5 -29t126.5 -46.5t108.5 -71t70.5 -104t28 -144.5q0 -186 -142 -304t-368 -118q-258 0 -407.5 132t-157.5 349z" />
    <glyph glyph-name="T" unicode="T" horiz-adv-x="1189" 
d="M41 1270v164h1108v-164h-465v-1270h-178v1270h-465z" />
    <glyph glyph-name="U" unicode="U" horiz-adv-x="1355" 
d="M131 612v822h178v-832q0 -450 367 -450q371 0 371 450v832h178v-822q0 -307 -140 -465.5t-409 -158.5t-407 158.5t-138 465.5z" />
    <glyph glyph-name="V" unicode="V" horiz-adv-x="1284" 
d="M535 0l-517 1434h189l438 -1223l436 1223h185l-516 -1434h-215z" />
    <glyph glyph-name="W" unicode="W" horiz-adv-x="1982" 
d="M451 0l-418 1434h186l336 -1205l352 1205h180l340 -1205l338 1205h185l-420 -1434h-213l-328 1137l-325 -1137h-213z" />
    <glyph glyph-name="X" unicode="X" horiz-adv-x="1253" 
d="M31 0l483 735l-453 699h209l359 -555l358 555h205l-453 -686l484 -748h-211l-389 600l-385 -600h-207z" />
    <glyph glyph-name="Y" unicode="Y" horiz-adv-x="1296" 
d="M559 530l-541 904h209l422 -711l428 711h201l-541 -904v-530h-178v530z" />
    <glyph glyph-name="Z" unicode="Z" horiz-adv-x="1224" 
d="M78 1270v164h1069v-129l-856 -1141h883v-164h-1123v129l856 1141h-829z" />
    <glyph glyph-name="bracketleft" unicode="[" horiz-adv-x="612" 
d="M129 -266v1761h449v-147h-285v-1467h285v-147h-449z" />
    <glyph glyph-name="backslash" unicode="\" horiz-adv-x="831" 
d="M240 1495l579 -1761h-166l-579 1761h166z" />
    <glyph glyph-name="bracketright" unicode="]" horiz-adv-x="612" 
d="M483 1495v-1761h-448v147h284v1467h-284v147h448z" />
    <glyph glyph-name="asciicircum" unicode="^" horiz-adv-x="1052" 
d="M236 795h-148l371 639h135l373 -639h-156l-289 491z" />
    <glyph glyph-name="underscore" unicode="_" horiz-adv-x="1030" 
d="M909 -180h-788v168h788v-168z" />
    <glyph glyph-name="grave" unicode="`" horiz-adv-x="819" 
d="M340 1155l-234 279h197l170 -279h-133z" />
    <glyph glyph-name="a" unicode="a" horiz-adv-x="1105" 
d="M1038 154h54v-154h-93q-100 0 -143 41t-45 121q-122 -174 -350 -174q-174 0 -279.5 82t-105.5 223q0 157 107.5 241t312.5 84h307v72q0 102 -68.5 159.5t-191.5 57.5q-109 0 -180.5 -48t-86.5 -128h-167q19 154 136 240t306 86q201 0 310.5 -97.5t109.5 -279.5v-457
q0 -40 15 -54.5t52 -14.5zM803 426v51h-324q-233 0 -233 -174q0 -77 62 -124.5t165 -47.5q154 0 242 81t88 214z" />
    <glyph glyph-name="b" unicode="b" horiz-adv-x="1220" 
d="M641 1057q222 0 362 -143t140 -392q0 -237 -141.5 -385.5t-360.5 -148.5q-127 0 -217.5 46.5t-140.5 125.5l-23 -160h-145v1434h168v-557q131 180 358 180zM625 137q155 0 250.5 107t95.5 278t-95.5 278t-250.5 107q-153 0 -248.5 -106.5t-95.5 -274.5
q0 -172 95.5 -280.5t248.5 -108.5z" />
    <glyph glyph-name="c" unicode="c" horiz-adv-x="1118" 
d="M584 -12q-230 0 -368 144t-138 388q0 239 141.5 388t368.5 149q189 0 308.5 -99t152.5 -274h-177q-24 105 -98 164t-188 59q-150 0 -243 -108t-93 -279t93 -277t243 -106q111 0 185 58.5t99 160.5h179q-31 -171 -153.5 -269.5t-311.5 -98.5z" />
    <glyph glyph-name="d" unicode="d" horiz-adv-x="1220" 
d="M938 885v549h168v-1434h-145l-23 168q-131 -180 -358 -180q-222 0 -362 142.5t-140 391.5q0 237 141.5 386t360.5 149q127 0 217.5 -46.5t140.5 -125.5zM596 137q153 0 248.5 106.5t95.5 274.5q0 172 -95.5 280.5t-248.5 108.5q-155 0 -250.5 -107t-95.5 -278t95.5 -278
t250.5 -107z" />
    <glyph glyph-name="e" unicode="e" horiz-adv-x="1146" 
d="M596 -12q-234 0 -376 147t-142 387q0 238 137 386.5t358 148.5q222 0 356 -132.5t140 -363.5q0 -22 -4 -72h-811v-14q5 -151 94 -244.5t236 -93.5q111 0 191 56.5t106 156.5h170q-31 -160 -154 -261t-301 -101zM264 629h625q-12 133 -96.5 206.5t-217.5 73.5
q-119 0 -209 -78t-102 -202z" />
    <glyph glyph-name="f" unicode="f" horiz-adv-x="661" 
d="M4 891v153h189v117q0 140 64 206.5t208 66.5h190v-154h-180q-62 0 -88.5 -27t-26.5 -88v-121h295v-153h-295v-891h-167v891h-189z" />
    <glyph glyph-name="g" unicode="g" horiz-adv-x="1220" 
d="M938 864l23 180h145v-993q0 -473 -518 -473q-203 0 -331 92.5t-148 261.5h172q22 -98 105 -151t214 -53q338 0 338 329v123q-113 -192 -358 -192q-222 0 -362 142.5t-140 391.5q0 237 141.5 386t360.5 149q249 0 358 -193zM596 137q153 0 248.5 106.5t95.5 274.5
q0 172 -95.5 280.5t-248.5 108.5q-155 0 -250.5 -107t-95.5 -278t95.5 -278t250.5 -107z" />
    <glyph glyph-name="h" unicode="h" horiz-adv-x="1150" 
d="M627 1057q91 0 165.5 -26t133.5 -81t92 -148.5t33 -219.5v-582h-168v571q0 161 -74.5 246.5t-210.5 85.5q-146 0 -230.5 -102t-84.5 -279v-522h-168v1434h168v-562q115 185 344 185z" />
    <glyph glyph-name="i" unicode="i" horiz-adv-x="397" 
d="M201 1221q-46 0 -77.5 30.5t-31.5 77.5t31.5 78t77.5 31t77 -31t31 -78t-31 -77.5t-77 -30.5zM115 0v1044h168v-1044h-168z" />
    <glyph glyph-name="j" unicode="j" horiz-adv-x="409" 
d="M211 1221q-46 0 -77.5 30.5t-31.5 77.5t31.5 78t77.5 31t77 -31t31 -78t-31 -77.5t-77 -30.5zM-119 -410v154h131q62 0 88.5 27t26.5 88v1185h168v-1181q0 -140 -64 -206.5t-208 -66.5h-142z" />
    <glyph glyph-name="k" unicode="k" horiz-adv-x="1046" 
d="M115 0v1434h168v-945l524 555h207l-408 -432l436 -612h-202l-346 492l-211 -218v-274h-168z" />
    <glyph glyph-name="l" unicode="l" horiz-adv-x="397" 
d="M115 0v1434h168v-1434h-168z" />
    <glyph glyph-name="m" unicode="m" horiz-adv-x="1775" 
d="M1280 1057q84 0 153.5 -25.5t125 -78t86 -142t30.5 -209.5v-602h-168v592q0 153 -64 232t-183 79q-130 0 -205.5 -92t-75.5 -252v-559h-168v592q0 152 -65.5 231.5t-186.5 79.5q-128 0 -202 -96.5t-74 -255.5v-551h-168v1044h145l23 -143q113 156 305 156
q112 0 199.5 -51t130.5 -148q111 199 362 199z" />
    <glyph glyph-name="n" unicode="n" horiz-adv-x="1148" 
d="M627 1057q92 0 166 -26t133 -81t91 -148.5t32 -219.5v-582h-168v571q0 162 -73 247t-210 85q-147 0 -231 -102t-84 -279v-522h-168v1044h145l23 -141q117 154 344 154z" />
    <glyph glyph-name="o" unicode="o" horiz-adv-x="1191" 
d="M596 -12q-229 0 -373.5 148.5t-144.5 385.5t144.5 386t373.5 149t373.5 -149t144.5 -386t-144.5 -385.5t-373.5 -148.5zM596 137q154 0 250 108t96 277t-96 277t-250 108t-250 -108t-96 -277t96 -277t250 -108z" />
    <glyph glyph-name="p" unicode="p" horiz-adv-x="1220" 
d="M641 1057q222 0 362 -143t140 -392q0 -237 -141.5 -385.5t-360.5 -148.5q-127 0 -217.5 46.5t-140.5 125.5v-570h-168v1454h145l23 -167q131 180 358 180zM625 137q155 0 250.5 107t95.5 278t-95.5 278t-250.5 107q-153 0 -248.5 -106.5t-95.5 -274.5q0 -172 95.5 -280.5
t248.5 -108.5z" />
    <glyph glyph-name="q" unicode="q" horiz-adv-x="1220" 
d="M938 885l23 159h145v-1454h-168v578q-131 -180 -358 -180q-222 0 -362 142.5t-140 391.5q0 237 141.5 386t360.5 149q127 0 217.5 -46.5t140.5 -125.5zM596 137q153 0 248.5 106.5t95.5 274.5q0 172 -95.5 280.5t-248.5 108.5q-155 0 -250.5 -107t-95.5 -278t95.5 -278
t250.5 -107z" />
    <glyph glyph-name="r" unicode="r" horiz-adv-x="675" 
d="M598 1044h47v-163h-84q-63 0 -112.5 -20.5t-80 -54t-50.5 -80t-27.5 -94t-7.5 -100.5v-532h-168v1044h145l23 -157q44 72 116 114.5t199 42.5z" />
    <glyph glyph-name="s" unicode="s" horiz-adv-x="1021" 
d="M72 344h172q5 -94 82.5 -153.5t205.5 -59.5q111 0 181.5 44t70.5 116q0 38 -15 65t-31.5 41.5t-60.5 26t-67.5 15.5t-88.5 11q-5 1 -7 1q-65 8 -112.5 17t-99 23.5t-86.5 35.5t-64.5 50t-43.5 71t-14 95q0 141 115.5 228.5t294.5 85.5q184 -2 299 -86.5t127 -243.5h-172
q-9 81 -79 133.5t-175 52.5q-110 0 -177 -42.5t-67 -114.5q0 -28 8 -49.5t27 -36.5t38 -24.5t54.5 -17t61 -11t73.5 -9.5q57 -7 99 -14t89.5 -19t80.5 -26.5t65 -37.5t51.5 -51.5t31 -68t11.5 -88.5q0 -143 -120 -229t-298 -86q-207 0 -332 93.5t-128 262.5z" />
    <glyph glyph-name="t" unicode="t" horiz-adv-x="677" 
d="M193 272v619h-189v153h189v293h167v-293h271v-153h-271v-617q0 -66 27 -93t94 -27h166v-154h-182q-148 0 -210 65.5t-62 206.5z" />
    <glyph glyph-name="u" unicode="u" horiz-adv-x="1128" 
d="M846 522v522h168v-1044h-146l-22 139q-118 -151 -334 -151q-89 0 -161.5 26t-130 81t-89 148.5t-31.5 219.5v581h168v-571q0 -162 71 -247t202 -85q142 0 223.5 102t81.5 279z" />
    <glyph glyph-name="v" unicode="v" horiz-adv-x="1005" 
d="M401 0l-391 1044h180l316 -854l313 854h176l-391 -1044h-203z" />
    <glyph glyph-name="w" unicode="w" horiz-adv-x="1601" 
d="M354 0l-338 1044h177l260 -849l274 849h156l260 -849l272 849h170l-348 -1044h-184l-252 776l-262 -776h-185z" />
    <glyph glyph-name="x" unicode="x" horiz-adv-x="1009" 
d="M4 0l397 537l-370 507h200l277 -387l280 387h191l-373 -507l400 -537h-201l-305 420l-305 -420h-191z" />
    <glyph glyph-name="y" unicode="y" horiz-adv-x="1009" 
d="M418 -6l-408 1050h178l322 -833l311 833h178l-481 -1220q-28 -71 -47 -109t-48 -70t-65.5 -43.5t-91.5 -11.5h-200v154h149q48 0 74.5 11.5t41 34.5t36.5 77z" />
    <glyph glyph-name="z" unicode="z" horiz-adv-x="974" 
d="M72 891v153h831v-126l-635 -764h662v-154h-885v127l633 764h-606z" />
    <glyph glyph-name="braceleft" unicode="{" horiz-adv-x="673" 
d="M639 1348h-64q-100 0 -153 -46t-53 -133q0 -35 8 -71l41 -183q10 -48 10 -81q0 -84 -42.5 -139t-121.5 -74q77 -13 120.5 -73t43.5 -147q0 -47 -10 -88l-41 -182q-8 -36 -8 -72q0 -178 206 -178h64v-147h-57q-175 0 -276 78t-101 215q0 45 8 86l39 192q8 36 8 76
q0 158 -203 164v139q101 3 153 45t52 119q0 31 -10 76l-39 192q-8 41 -8 88q0 136 101 213.5t276 77.5h57v-147z" />
    <glyph glyph-name="bar" unicode="|" horiz-adv-x="446" 
d="M139 -266v1761h168v-1761h-168z" />
    <glyph glyph-name="braceright" unicode="}" horiz-adv-x="673" 
d="M616 684v-139q-202 -6 -202 -164q0 -40 8 -76l39 -192q8 -41 8 -86q0 -137 -101 -215t-276 -78h-57v147h63q101 0 154 45t53 133q0 36 -8 72l-41 182q-10 41 -10 88q0 87 43.5 147t120.5 73q-79 19 -121.5 74t-42.5 139q0 33 10 81l41 183q8 36 8 71q0 87 -53.5 133
t-153.5 46h-63v147h57q175 0 276 -77.5t101 -213.5q0 -47 -8 -88l-39 -192q-10 -45 -10 -76q0 -77 51.5 -119t152.5 -45z" />
    <glyph glyph-name="asciitilde" unicode="~" 
d="M266 428h-141q0 139 63.5 216t173.5 77q51 0 95 -14.5t74 -35.5t56 -41.5t54.5 -35t56.5 -14.5q111 0 111 143h141q0 -138 -64 -214.5t-175 -76.5q-52 0 -96 14.5t-73.5 35t-56 40.5t-54.5 34.5t-56 14.5q-109 0 -109 -143z" />
    <glyph glyph-name="uni00A0" unicode="&#xa0;" horiz-adv-x="536" 
 />
    <glyph glyph-name="exclamdown" unicode="&#xa1;" horiz-adv-x="512" 
d="M256 1446q52 0 84.5 -31.5t32.5 -83.5t-32.5 -83t-84.5 -31t-84.5 31t-32.5 83t32.5 83.5t84.5 31.5zM166 0l27 1006h129l24 -1006h-180z" />
    <glyph glyph-name="cent" unicode="&#xa2;" horiz-adv-x="1118" 
d="M586 326q111 0 185 58.5t99 160.5h179q-26 -148 -123 -243t-248 -120v-182h-156v178q-204 20 -324 162.5t-120 368.5q0 220 122 365t322 167v193h156v-195q152 -23 247.5 -119t123.5 -248h-177q-24 106 -98 165t-188 59q-150 0 -243 -108t-93 -279t93 -277t243 -106z" />
    <glyph glyph-name="sterling" unicode="&#xa3;" horiz-adv-x="1257" 
d="M86 600v143h170q-5 22 -15.5 64t-16 67t-10.5 62.5t-5 71.5q0 126 63 227t169.5 156t234.5 55q218 0 346.5 -118t148.5 -333h-170q-21 140 -100.5 215.5t-218.5 75.5q-133 0 -218 -80.5t-85 -210.5q0 -37 7.5 -77t21.5 -92.5t20 -82.5h436v-143h-420q19 -108 -19.5 -224
t-123.5 -208l866 -4v-164h-1054v156q183 199 159 444h-186z" />
    <glyph glyph-name="currency" unicode="&#xa4;" horiz-adv-x="1275" 
d="M94 1143l119 117l154 -154q122 88 272 88q148 0 270 -88l154 154l119 -117l-152 -152q98 -121 98 -291q0 -152 -84 -272l138 -137l-119 -117l-135 135q-128 -100 -289 -100q-163 0 -291 100l-135 -135l-119 119l137 137q-84 120 -84 270q0 168 99 291zM299 700
q0 -151 94 -246.5t246 -95.5q150 0 244 95.5t94 246.5q0 153 -94 248.5t-244 95.5q-152 0 -246 -95.5t-94 -248.5z" />
    <glyph glyph-name="yen" unicode="&#xa5;" horiz-adv-x="1341" 
d="M1083 1434h199l-475 -801h328v-139h-390v-156h390v-139h-390v-199h-178v199h-389v139h389v156h-389v139h328l-483 801h213l421 -709z" />
    <glyph glyph-name="brokenbar" unicode="&#xa6;" horiz-adv-x="446" 
d="M139 721v774h168v-774h-168zM139 -266v770h168v-770h-168z" />
    <glyph glyph-name="section" unicode="&#xa7;" horiz-adv-x="1210" 
d="M1079 608q0 -191 -221 -278q137 -82 137 -238q0 -138 -107.5 -223.5t-283.5 -85.5q-170 0 -280 82.5t-117 222.5h168q6 -82 67.5 -125t161.5 -43q103 0 164 42.5t61 117.5q0 37 -14 67t-32.5 48t-57 35.5t-65.5 26.5t-80 24q-47 14 -76.5 22.5t-72.5 23t-70.5 26
t-62.5 29t-56.5 34.5t-45 40t-36 47.5t-21 55t-8.5 64.5q0 194 215 278q-133 85 -133 236q0 138 109.5 223.5t289.5 85.5q166 0 274 -81.5t115 -223.5h-167q-4 83 -64 125.5t-158 42.5q-106 0 -169.5 -42t-63.5 -116q0 -31 8 -56.5t27 -45t37.5 -33.5t52.5 -27t58 -21
t67 -20q62 -17 99.5 -28.5t91 -31t85.5 -37t69 -43.5t57.5 -54t34 -65.5t13.5 -80.5zM717 391q188 53 188 207q0 21 -5 39t-11 32t-20.5 27t-26 22.5t-34.5 20t-38 16.5t-46 15t-48.5 14t-54.5 15q-10 3 -15 4q-55 14 -110 33q-191 -53 -191 -203q0 -37 13.5 -65.5
t37.5 -48.5t60 -35.5t78.5 -28t94.5 -26.5q3 0 4.5 -0.5t4 -1t4.5 -1.5q34 -9 115 -35z" />
    <glyph glyph-name="dieresis" unicode="&#xa8;" horiz-adv-x="819" 
d="M117 1300q0 46 30 76.5t76 30.5q47 0 78 -30.5t31 -76.5q0 -44 -31 -74t-78 -30q-46 0 -76 30t-30 74zM487 1300q0 45 32 76t77 31q46 0 76 -30.5t30 -76.5q0 -44 -30 -74t-76 -30q-45 0 -77 30t-32 74z" />
    <glyph glyph-name="copyright" unicode="&#xa9;" horiz-adv-x="1667" 
d="M90 717q0 152 57 287.5t155.5 232t236 153t292.5 56.5t293.5 -56.5t237.5 -153t157 -232t58 -287.5t-58 -287.5t-157 -232t-237.5 -153t-293.5 -56.5t-292.5 56.5t-236 153t-155.5 232t-57 287.5zM1452 717q0 172 -81.5 313.5t-223.5 222t-316 80.5q-172 0 -313 -80.5
t-222 -222t-81 -313.5q0 -129 47.5 -243.5t129.5 -196.5t196.5 -129.5t242.5 -47.5q173 0 315.5 80.5t224 222.5t81.5 314zM1067 600h137q-25 -140 -123.5 -221.5t-246.5 -81.5q-124 0 -217 59t-139 154.5t-46 210.5q0 114 46 209t139 154t217 59q144 0 244.5 -82
t125.5 -223h-139q-21 81 -81.5 130.5t-147.5 49.5q-124 0 -194.5 -85t-70.5 -212q0 -128 70.5 -214.5t194.5 -86.5q89 0 149 48t82 132z" />
    <glyph glyph-name="ordfeminine" unicode="&#xaa;" horiz-adv-x="874" 
d="M119 963q0 97 72 150.5t208 53.5h174v43q0 62 -40.5 96.5t-116.5 34.5q-61 0 -101.5 -30t-46.5 -80h-131q9 99 85.5 157t197.5 58q132 0 205 -62.5t73 -177.5v-262q0 -53 56 -53h26v-103h-67q-119 0 -119 113v14q-26 -62 -85.5 -99.5t-146.5 -37.5q-110 0 -176.5 49
t-66.5 136zM573 1067v12h-178q-66 0 -103.5 -30t-37.5 -78q0 -44 33 -69t90 -25q89 0 142.5 56.5t53.5 133.5zM111 496v120h669v-120h-669z" />
    <glyph glyph-name="guillemotleft" unicode="&#xab;" horiz-adv-x="1064" 
d="M389 1044h170l-321 -522l321 -522h-170l-326 522zM827 1042h170l-321 -522l321 -522h-170l-325 522z" />
    <glyph glyph-name="logicalnot" unicode="&#xac;" 
d="M119 563v144h751v-482h-149v338h-602z" />
    <glyph glyph-name="uni00AD" unicode="&#xad;" horiz-adv-x="894" 
d="M788 512h-682v141h682v-141z" />
    <glyph glyph-name="registered" unicode="&#xae;" horiz-adv-x="1042" 
d="M94 1024q0 181 122 302.5t304 121.5q183 0 305.5 -121t122.5 -301t-122.5 -300t-305.5 -120q-182 0 -304 120t-122 298zM856 1026q0 148 -95 244t-241 96q-145 0 -239.5 -96.5t-94.5 -245.5q0 -146 94.5 -241t239.5 -95q146 0 241 96t95 242zM360 793v467h179
q83 0 131.5 -40.5t48.5 -107.5q0 -51 -29 -86t-80 -49l111 -184h-100l-99 165h-71v-165h-91zM535 1184h-84v-150h84q39 0 64.5 21t25.5 57q0 34 -24.5 53t-65.5 19z" />
    <glyph glyph-name="macron" unicode="&#xaf;" horiz-adv-x="819" 
d="M692 1243h-563v127h563v-127z" />
    <glyph glyph-name="degree" unicode="&#xb0;" horiz-adv-x="876" 
d="M94 1112q0 144 98 238t246 94t246 -94t98 -238q0 -141 -98 -234.5t-246 -93.5t-246 93.5t-98 234.5zM641 1112q0 88 -57.5 145.5t-145.5 57.5t-145 -57.5t-57 -145.5q0 -86 57 -142.5t145 -56.5t145.5 56.5t57.5 142.5z" />
    <glyph glyph-name="plusminus" unicode="&#xb1;" 
d="M459 694v359h153v-359h342v-141h-342v-360h-153v360h-340v141h340zM954 0h-835v141h835v-141z" />
    <glyph glyph-name="uni00B2" unicode="&#xb2;" horiz-adv-x="645" 
d="M168 1378h-115v15q0 117 75.5 187.5t190.5 70.5q124 0 197.5 -64.5t73.5 -169.5q0 -75 -38 -128t-110 -109l-217 -174h371v-113h-545v106l303 238q56 46 85.5 86t29.5 92q0 56 -41 90.5t-106 34.5q-70 0 -112 -39.5t-42 -111.5v-11z" />
    <glyph glyph-name="uni00B3" unicode="&#xb3;" horiz-adv-x="665" 
d="M180 1421h-117q1 110 73 172t194 62t195 -57.5t73 -151.5q0 -60 -35.5 -99.5t-87.5 -54.5q64 -12 101.5 -57.5t37.5 -114.5q0 -106 -78 -170.5t-208 -64.5q-135 0 -209 64.5t-76 183.5h117q1 -67 47 -103.5t123 -36.5q70 0 116 33.5t46 89.5q0 60 -44.5 90.5t-119.5 30.5
h-54v84h48q70 0 112.5 30.5t42.5 82.5q0 51 -39 81.5t-104 30.5q-69 0 -111 -33.5t-43 -91.5z" />
    <glyph glyph-name="acute" unicode="&#xb4;" horiz-adv-x="819" 
d="M479 1157h-131l174 277h197z" />
    <glyph glyph-name="uni00B5" unicode="&#xb5;" horiz-adv-x="1169" 
d="M1098 154h49v-154h-92q-101 0 -145 42t-44 124q-40 -83 -125.5 -130.5t-197.5 -47.5q-85 0 -159.5 34t-98.5 78v-510h-170v1454h168v-555q0 -168 72 -258t204 -90q136 0 218.5 108t82.5 290v505h168l-2 -817q0 -43 16 -58t56 -15z" />
    <glyph glyph-name="paragraph" unicode="&#xb6;" horiz-adv-x="1374" 
d="M930 0h-160v473h-207q-231 0 -370.5 132t-139.5 347t139.5 348.5t368.5 133.5h369v-1434zM1077 0v1434h160v-1434h-160z" />
    <glyph glyph-name="periodcentered" unicode="&#xb7;" horiz-adv-x="421" 
d="M94 584q0 52 32.5 83t84.5 31t84.5 -31t32.5 -83t-32.5 -83.5t-84.5 -31.5t-84.5 31.5t-32.5 83.5z" />
    <glyph glyph-name="cedilla" unicode="&#xb8;" horiz-adv-x="819" 
d="M319 -184l54 221h102l-33 -123h15q80 0 132 -40t52 -112q0 -78 -51.5 -125t-136.5 -47h-185v103h164q80 0 80 63q0 60 -80 60h-113z" />
    <glyph glyph-name="uni00B9" unicode="&#xb9;" horiz-adv-x="419" 
d="M197 1544v96h112v-745h-114v500q-14 -21 -41 -21h-134v113h134q20 0 31.5 16.5t11.5 40.5z" />
    <glyph glyph-name="ordmasculine" unicode="&#xba;" horiz-adv-x="858" 
d="M750 1112q0 -149 -88.5 -241.5t-233.5 -92.5t-233.5 92.5t-88.5 241.5t88.5 241.5t233.5 92.5t233.5 -92.5t88.5 -241.5zM242 1112q0 -99 51 -159t135 -60q85 0 136.5 60.5t51.5 158.5t-51.5 158.5t-136.5 60.5q-84 0 -135 -60t-51 -159zM104 496v120h650v-120h-650z" />
    <glyph glyph-name="guillemotright" unicode="&#xbb;" horiz-adv-x="1064" 
d="M827 522l-321 522h170l325 -522l-325 -522h-170zM389 520l-321 522h170l325 -522l-325 -522h-170z" />
    <glyph glyph-name="onequarter" unicode="&#xbc;" horiz-adv-x="1435" 
d="M197 1339v97h112v-746h-114v500q-14 -21 -41 -21h-134v113h134q20 0 31.5 16.5t11.5 40.5zM223 0h-135l909 1434h136zM780 293l350 452h144v-452h121v-109h-121v-184h-115v184h-379v109zM1159 293v330l-254 -330h254z" />
    <glyph glyph-name="onehalf" unicode="&#xbd;" horiz-adv-x="1445" 
d="M197 1339v97h112v-746h-114v500q-14 -21 -41 -21h-134v113h134q20 0 31.5 16.5t11.5 40.5zM223 0h-135l909 1434h136zM969 485h-115v15q0 117 75.5 187.5t190.5 70.5q124 0 197.5 -64.5t73.5 -169.5q0 -75 -38 -128t-110 -109l-217 -174h371v-113h-545v106l303 238
q56 46 85.5 86t29.5 92q0 56 -41.5 90.5t-106.5 34.5q-70 0 -111.5 -39.5t-41.5 -111.5v-11z" />
    <glyph glyph-name="threequarters" unicode="&#xbe;" horiz-adv-x="1681" 
d="M180 1217h-117q1 110 73 171.5t194 61.5t195 -57.5t73 -151.5q0 -60 -35.5 -99.5t-87.5 -54.5q64 -12 101.5 -57.5t37.5 -114.5q0 -106 -78 -170.5t-208 -64.5q-135 0 -209 64.5t-76 183.5h117q1 -67 47 -103.5t123 -36.5q70 0 116 33.5t46 89.5q0 60 -44.5 90.5
t-119.5 30.5h-54v84h48q70 0 112.5 30.5t42.5 82.5q0 51 -39 81.5t-104 30.5q-70 0 -111.5 -33t-42.5 -91zM469 0h-135l909 1434h135zM1026 293l350 452h144v-452h120v-109h-120v-184h-115v184h-379v109zM1405 293v330l-254 -330h254z" />
    <glyph glyph-name="questiondown" unicode="&#xbf;" horiz-adv-x="1046" 
d="M657 1331q0 -52 -32 -83t-84 -31t-84.5 31t-32.5 83t32.5 83.5t84.5 31.5q51 0 83.5 -31.5t32.5 -83.5zM809 457h172q0 -132 -55 -237.5t-162 -168.5t-248 -63q-199 0 -319.5 101.5t-120.5 260.5q0 65 15.5 120t46 97t62.5 71.5t76 61.5q43 30 62.5 44.5t49.5 41t43 46.5
t23.5 49.5t10.5 62.5v53h158v-71q0 -34 -7 -65t-15.5 -54t-28 -48t-33 -39.5t-42.5 -37.5t-44 -33.5t-50 -34.5q-76 -54 -113.5 -110.5t-37.5 -136.5q0 -98 73 -161t189 -63q133 0 214 87t81 227z" />
    <glyph glyph-name="Agrave" unicode="&#xc0;" horiz-adv-x="1347" 
d="M604 1556l-233 279h196l170 -279h-133zM207 0h-184l546 1434h211l545 -1434h-190l-152 387h-625zM670 1239l-258 -690h518z" />
    <glyph glyph-name="Aacute" unicode="&#xc1;" horiz-adv-x="1347" 
d="M743 1559h-131l174 276h197zM207 0h-184l546 1434h211l545 -1434h-190l-152 387h-625zM670 1239l-258 -690h518z" />
    <glyph glyph-name="Acircumflex" unicode="&#xc2;" horiz-adv-x="1347" 
d="M850 1556l-176 168l-178 -168h-160l258 279h160l258 -279h-162zM207 0h-184l546 1434h211l545 -1434h-190l-152 387h-625zM670 1239l-258 -690h518z" />
    <glyph glyph-name="Atilde" unicode="&#xc3;" horiz-adv-x="1347" 
d="M561 1708q-35 0 -52 -28.5t-17 -71.5h-115v24q0 82 50 138.5t130 56.5q46 0 82.5 -16.5t54.5 -36t42.5 -36t49.5 -16.5q34 0 51 28.5t17 72.5h115v-25q0 -83 -50 -138.5t-128 -55.5q-39 0 -70 10.5t-49.5 26t-35 31t-35 26t-40.5 10.5zM207 0h-184l546 1434h211
l545 -1434h-190l-152 387h-625zM670 1239l-258 -690h518z" />
    <glyph glyph-name="Adieresis" unicode="&#xc4;" horiz-adv-x="1347" 
d="M381 1702q0 46 30 76t76 30q47 0 78 -30t31 -76q0 -45 -31 -75t-78 -30q-45 0 -75.5 30.5t-30.5 74.5zM752 1702q0 45 31.5 75.5t76.5 30.5q46 0 76.5 -30t30.5 -76q0 -44 -30.5 -74.5t-76.5 -30.5q-45 0 -76.5 30.5t-31.5 74.5zM207 0h-184l546 1434h211l545 -1434h-190
l-152 387h-625zM670 1239l-258 -690h518z" />
    <glyph glyph-name="Aring" unicode="&#xc5;" horiz-adv-x="1347" 
d="M795 1397l530 -1397h-190l-152 387h-625l-151 -387h-184l532 1397q-55 30 -87 82t-32 116q0 94 69.5 161t168.5 67t168 -67t69 -161q0 -62 -31.5 -114.5t-84.5 -83.5zM674 1726q-54 0 -91.5 -37t-37.5 -94q0 -58 37 -95.5t92 -37.5t92 37.5t37 95.5q0 57 -37.5 94
t-91.5 37zM670 1239l-258 -690h518z" />
    <glyph glyph-name="AE" unicode="&#xc6;" horiz-adv-x="1961" 
d="M1139 647v-483h762v-164h-940v362h-545l-228 -362h-186l868 1434h1004v-164h-735v-459h612v-164h-612zM961 1282l-463 -764h463v764z" />
    <glyph glyph-name="Ccedilla" unicode="&#xc7;" horiz-adv-x="1445" 
d="M754 152q165 0 276.5 83t151.5 234h188q-38 -210 -187.5 -337t-371.5 -142l-20 -76h14q80 0 132 -40t52 -112q0 -78 -51.5 -125t-136.5 -47h-185v103h164q80 0 80 63q0 60 -80 60h-112l41 174q-286 15 -454.5 212.5t-168.5 514.5q0 327 187 528t497 201q238 0 400 -129.5
t202 -351.5h-188q-41 150 -151.5 233.5t-270.5 83.5q-224 0 -359 -157t-135 -408t131.5 -408t354.5 -157z" />
    <glyph glyph-name="Egrave" unicode="&#xc8;" horiz-adv-x="1140" 
d="M532 1556l-233 279h197l170 -279h-134zM139 0v1434h914v-164h-736v-459h613v-164h-613v-483h762v-164h-940z" />
    <glyph glyph-name="Eacute" unicode="&#xc9;" horiz-adv-x="1140" 
d="M672 1559h-131l174 276h196zM139 0v1434h914v-164h-736v-459h613v-164h-613v-483h762v-164h-940z" />
    <glyph glyph-name="Ecircumflex" unicode="&#xca;" horiz-adv-x="1140" 
d="M778 1556l-176 168l-178 -168h-160l258 279h160l258 -279h-162zM139 0v1434h914v-164h-736v-459h613v-164h-613v-483h762v-164h-940z" />
    <glyph glyph-name="Edieresis" unicode="&#xcb;" horiz-adv-x="1140" 
d="M309 1702q0 46 30.5 76t76.5 30q47 0 77.5 -30t30.5 -76q0 -45 -30.5 -75t-77.5 -30q-46 0 -76.5 30.5t-30.5 74.5zM680 1702q0 45 31.5 75.5t76.5 30.5q46 0 76.5 -30t30.5 -76q0 -44 -30.5 -74.5t-76.5 -30.5q-45 0 -76.5 30.5t-31.5 74.5zM139 0v1434h914v-164h-736
v-459h613v-164h-613v-483h762v-164h-940z" />
    <glyph glyph-name="Igrave" unicode="&#xcc;" horiz-adv-x="456" 
d="M158 1556l-234 279h197l170 -279h-133zM139 0v1434h178v-1434h-178z" />
    <glyph glyph-name="Iacute" unicode="&#xcd;" horiz-adv-x="456" 
d="M297 1559h-131l174 276h197zM139 0v1434h178v-1434h-178z" />
    <glyph glyph-name="Icircumflex" unicode="&#xce;" horiz-adv-x="456" 
d="M403 1556l-176 168l-178 -168h-160l258 279h160l258 -279h-162zM139 0v1434h178v-1434h-178z" />
    <glyph glyph-name="Idieresis" unicode="&#xcf;" horiz-adv-x="456" 
d="M-66 1702q0 46 30.5 76t76.5 30q47 0 78 -30t31 -76q0 -45 -31 -75t-78 -30q-46 0 -76.5 30.5t-30.5 74.5zM305 1702q0 45 32 75.5t77 30.5q46 0 76 -30t30 -76q0 -44 -30 -74.5t-76 -30.5q-45 0 -77 30.5t-32 74.5zM139 0v1434h178v-1434h-178z" />
    <glyph glyph-name="Eth" unicode="&#xd0;" horiz-adv-x="1456" 
d="M190 1434h459q334 0 527.5 -196t193.5 -521q0 -324 -194 -520.5t-527 -196.5h-459v653h-176v152h176v629zM369 164h280q257 0 398 149t141 404q0 256 -141 404.5t-398 148.5h-280v-465h290v-152h-290v-489z" />
    <glyph glyph-name="Ntilde" unicode="&#xd1;" horiz-adv-x="1386" 
d="M569 1708q-35 0 -52 -28.5t-17 -71.5h-115v24q0 82 50 138.5t130 56.5q46 0 82.5 -16.5t55 -36t43 -36t49.5 -16.5q34 0 50.5 28.5t16.5 72.5h115v-25q0 -83 -50 -138.5t-128 -55.5q-39 0 -70 10.5t-49.5 26t-35 31t-35 26t-40.5 10.5zM313 0h-174v1434h164l770 -1106
v1106h174v-1434h-164l-770 1106v-1106z" />
    <glyph glyph-name="Ograve" unicode="&#xd2;" horiz-adv-x="1540" 
d="M700 1556l-233 279h197l170 -279h-134zM1454 717q0 -209 -86.5 -375t-242.5 -260t-355 -94t-355 94t-242.5 260t-86.5 375t86.5 375t242.5 260t355 94t355 -94t242.5 -260t86.5 -375zM268 717q0 -249 139.5 -407t362.5 -158t362.5 158t139.5 407t-139.5 407t-362.5 158
t-362.5 -158t-139.5 -407z" />
    <glyph glyph-name="Oacute" unicode="&#xd3;" horiz-adv-x="1540" 
d="M840 1559h-131l174 276h196zM1454 717q0 -209 -86.5 -375t-242.5 -260t-355 -94t-355 94t-242.5 260t-86.5 375t86.5 375t242.5 260t355 94t355 -94t242.5 -260t86.5 -375zM268 717q0 -249 139.5 -407t362.5 -158t362.5 158t139.5 407t-139.5 407t-362.5 158t-362.5 -158
t-139.5 -407z" />
    <glyph glyph-name="Ocircumflex" unicode="&#xd4;" horiz-adv-x="1540" 
d="M946 1556l-176 168l-178 -168h-160l258 279h160l258 -279h-162zM1454 717q0 -209 -86.5 -375t-242.5 -260t-355 -94t-355 94t-242.5 260t-86.5 375t86.5 375t242.5 260t355 94t355 -94t242.5 -260t86.5 -375zM268 717q0 -249 139.5 -407t362.5 -158t362.5 158t139.5 407
t-139.5 407t-362.5 158t-362.5 -158t-139.5 -407z" />
    <glyph glyph-name="Otilde" unicode="&#xd5;" horiz-adv-x="1540" 
d="M657 1708q-35 0 -52 -28.5t-17 -71.5h-115v24q0 82 50 138.5t130 56.5q46 0 82.5 -16.5t55 -36t43 -36t49.5 -16.5q34 0 50.5 28.5t16.5 72.5h115v-25q0 -83 -50 -138.5t-128 -55.5q-39 0 -70 10.5t-49.5 26t-35 31t-35 26t-40.5 10.5zM1454 717q0 -209 -86.5 -375
t-242.5 -260t-355 -94t-355 94t-242.5 260t-86.5 375t86.5 375t242.5 260t355 94t355 -94t242.5 -260t86.5 -375zM268 717q0 -249 139.5 -407t362.5 -158t362.5 158t139.5 407t-139.5 407t-362.5 158t-362.5 -158t-139.5 -407z" />
    <glyph glyph-name="Odieresis" unicode="&#xd6;" horiz-adv-x="1540" 
d="M477 1702q0 46 30.5 76t76.5 30q47 0 77.5 -30t30.5 -76q0 -45 -30.5 -75t-77.5 -30q-46 0 -76.5 30.5t-30.5 74.5zM848 1702q0 45 31.5 75.5t76.5 30.5q46 0 76.5 -30t30.5 -76q0 -44 -30.5 -74.5t-76.5 -30.5q-45 0 -76.5 30.5t-31.5 74.5zM1454 717q0 -209 -86.5 -375
t-242.5 -260t-355 -94t-355 94t-242.5 260t-86.5 375t86.5 375t242.5 260t355 94t355 -94t242.5 -260t86.5 -375zM268 717q0 -249 139.5 -407t362.5 -158t362.5 158t139.5 407t-139.5 407t-362.5 158t-362.5 -158t-139.5 -407z" />
    <glyph glyph-name="multiply" unicode="&#xd7;" 
d="M133 879l107 106l301 -301l297 299l100 -100l-297 -297l301 -301l-108 -109l-302 301l-296 -297l-101 101l299 297z" />
    <glyph glyph-name="Oslash" unicode="&#xd8;" horiz-adv-x="1540" 
d="M1356 1446l98 -98l-151 -162q151 -197 151 -469q0 -209 -86.5 -375t-242.5 -260t-355 -94q-254 0 -438 157l-148 -157l-98 98l152 162q-152 195 -152 469q0 209 86.5 375t242.5 260t355 94q251 0 438 -160zM268 717q0 -200 88 -342l740 792q-131 115 -326 115
q-148 -1 -262.5 -73t-177 -200.5t-62.5 -291.5zM1272 717q0 198 -86 342l-740 -791q125 -116 324 -116q223 0 362.5 158t139.5 407z" />
    <glyph glyph-name="Ugrave" unicode="&#xd9;" horiz-adv-x="1355" 
d="M608 1556l-233 279h196l170 -279h-133zM131 612v822h178v-832q0 -450 367 -450q371 0 371 450v832h178v-822q0 -307 -140 -465.5t-409 -158.5t-407 158.5t-138 465.5z" />
    <glyph glyph-name="Uacute" unicode="&#xda;" horiz-adv-x="1355" 
d="M748 1559h-132l175 276h196zM131 612v822h178v-832q0 -450 367 -450q371 0 371 450v832h178v-822q0 -307 -140 -465.5t-409 -158.5t-407 158.5t-138 465.5z" />
    <glyph glyph-name="Ucircumflex" unicode="&#xdb;" horiz-adv-x="1355" 
d="M854 1556l-176 168l-178 -168h-160l258 279h160l258 -279h-162zM131 612v822h178v-832q0 -450 367 -450q371 0 371 450v832h178v-822q0 -307 -140 -465.5t-409 -158.5t-407 158.5t-138 465.5z" />
    <glyph glyph-name="Udieresis" unicode="&#xdc;" horiz-adv-x="1355" 
d="M385 1702q0 46 30.5 76t76.5 30q47 0 77.5 -30t30.5 -76q0 -45 -30.5 -75t-77.5 -30q-46 0 -76.5 30.5t-30.5 74.5zM756 1702q0 45 31.5 75.5t76.5 30.5q46 0 76.5 -30t30.5 -76q0 -44 -30.5 -74.5t-76.5 -30.5q-45 0 -76.5 30.5t-31.5 74.5zM131 612v822h178v-832
q0 -450 367 -450q371 0 371 450v832h178v-822q0 -307 -140 -465.5t-409 -158.5t-407 158.5t-138 465.5z" />
    <glyph glyph-name="Yacute" unicode="&#xdd;" horiz-adv-x="1296" 
d="M719 1559h-131l174 276h196zM559 530l-541 904h209l422 -711l428 711h201l-541 -904v-530h-178v530z" />
    <glyph glyph-name="Thorn" unicode="&#xde;" horiz-adv-x="1216" 
d="M139 0v1434h178v-248h342q240 0 373 -115t133 -328q0 -214 -135.5 -327t-372.5 -113h-340v-303h-178zM657 1022h-340v-555h338q158 0 244 70t86 206q0 139 -85 209t-243 70z" />
    <glyph glyph-name="germandbls" unicode="&#xdf;" horiz-adv-x="1206" 
d="M696 -12q-112 0 -219 37v147q89 -35 211 -35q126 0 205.5 71t79.5 187q0 135 -104.5 204t-278.5 69q-18 0 -58 -4v147q83 1 148 21t104.5 55.5t59.5 80.5t20 97q0 105 -74 168t-196 63q-129 0 -208 -82t-79 -221v-993h-168v983q0 220 128.5 341.5t326.5 121.5
q197 0 319.5 -100.5t122.5 -264.5q-1 -119 -68.5 -204.5t-170.5 -112.5q166 -27 257 -121t91 -252q0 -183 -126 -293t-323 -110z" />
    <glyph glyph-name="agrave" unicode="&#xe0;" horiz-adv-x="1105" 
d="M446 1446l170 -279h-133l-233 279h196zM1038 154h54v-154h-93q-100 0 -143 41t-45 121q-122 -174 -350 -174q-174 0 -279.5 82t-105.5 223q0 157 107.5 241t312.5 84h307v72q0 102 -68.5 159.5t-191.5 57.5q-109 0 -180.5 -48t-86.5 -128h-167q19 154 136 240t306 86
q201 0 310.5 -97.5t109.5 -279.5v-457q0 -40 15 -54.5t52 -14.5zM803 426v51h-324q-233 0 -233 -174q0 -77 62 -124.5t165 -47.5q154 0 242 81t88 214z" />
    <glyph glyph-name="aacute" unicode="&#xe1;" horiz-adv-x="1105" 
d="M666 1446h196l-239 -277h-131zM1038 154h54v-154h-93q-100 0 -143 41t-45 121q-122 -174 -350 -174q-174 0 -279.5 82t-105.5 223q0 157 107.5 241t312.5 84h307v72q0 102 -68.5 159.5t-191.5 57.5q-109 0 -180.5 -48t-86.5 -128h-167q19 154 136 240t306 86
q201 0 310.5 -97.5t109.5 -279.5v-457q0 -40 15 -54.5t52 -14.5zM803 426v51h-324q-233 0 -233 -174q0 -77 62 -124.5t165 -47.5q154 0 242 81t88 214z" />
    <glyph glyph-name="acircumflex" unicode="&#xe2;" horiz-adv-x="1105" 
d="M729 1167l-176 168l-178 -168h-160l258 279h160l258 -279h-162zM1038 154h54v-154h-93q-100 0 -143 41t-45 121q-122 -174 -350 -174q-174 0 -279.5 82t-105.5 223q0 157 107.5 241t312.5 84h307v72q0 102 -68.5 159.5t-191.5 57.5q-109 0 -180.5 -48t-86.5 -128h-167
q19 154 136 240t306 86q201 0 310.5 -97.5t109.5 -279.5v-457q0 -40 15 -54.5t52 -14.5zM803 426v51h-324q-233 0 -233 -174q0 -77 62 -124.5t165 -47.5q154 0 242 81t88 214z" />
    <glyph glyph-name="atilde" unicode="&#xe3;" horiz-adv-x="1105" 
d="M440 1319q-35 0 -52 -28.5t-17 -71.5h-115v24q0 82 50 138.5t130 56.5q46 0 82.5 -16.5t55 -36t43 -36t49.5 -16.5q34 0 50.5 28.5t16.5 72.5h115v-25q0 -83 -50 -139t-128 -56q-48 0 -84 16.5t-54 36t-42 36t-50 16.5zM1038 154h54v-154h-93q-100 0 -143 41t-45 121
q-122 -174 -350 -174q-174 0 -279.5 82t-105.5 223q0 157 107.5 241t312.5 84h307v72q0 102 -68.5 159.5t-191.5 57.5q-109 0 -180.5 -48t-86.5 -128h-167q19 154 136 240t306 86q201 0 310.5 -97.5t109.5 -279.5v-457q0 -40 15 -54.5t52 -14.5zM803 426v51h-324
q-233 0 -233 -174q0 -77 62 -124.5t165 -47.5q154 0 242 81t88 214z" />
    <glyph glyph-name="adieresis" unicode="&#xe4;" horiz-adv-x="1105" 
d="M367 1208q-46 0 -76.5 30.5t-30.5 74.5q0 46 30.5 76t76.5 30q47 0 77.5 -30t30.5 -76q0 -45 -30.5 -75t-77.5 -30zM739 1208q-45 0 -76.5 30.5t-31.5 74.5q0 45 31.5 75.5t76.5 30.5q46 0 76.5 -30t30.5 -76q0 -44 -30.5 -74.5t-76.5 -30.5zM1038 154h54v-154h-93
q-100 0 -143 41t-45 121q-122 -174 -350 -174q-174 0 -279.5 82t-105.5 223q0 157 107.5 241t312.5 84h307v72q0 102 -68.5 159.5t-191.5 57.5q-109 0 -180.5 -48t-86.5 -128h-167q19 154 136 240t306 86q201 0 310.5 -97.5t109.5 -279.5v-457q0 -40 15 -54.5t52 -14.5z
M803 426v51h-324q-233 0 -233 -174q0 -77 62 -124.5t165 -47.5q154 0 242 81t88 214z" />
    <glyph glyph-name="aring" unicode="&#xe5;" horiz-adv-x="1105" 
d="M553 1141q-100 0 -169 67t-69 162q0 94 69.5 160.5t168.5 66.5t168.5 -66.5t69.5 -160.5q0 -95 -69 -162t-169 -67zM553 1501q-55 0 -92 -37.5t-37 -93.5q0 -58 37 -95.5t92 -37.5t92 37.5t37 95.5q0 56 -37 93.5t-92 37.5zM1038 154h54v-154h-93q-100 0 -143 41t-45 121
q-122 -174 -350 -174q-174 0 -279.5 82t-105.5 223q0 157 107.5 241t312.5 84h307v72q0 102 -68.5 159.5t-191.5 57.5q-109 0 -180.5 -48t-86.5 -128h-167q19 154 136 240t306 86q201 0 310.5 -97.5t109.5 -279.5v-457q0 -40 15 -54.5t52 -14.5zM803 426v51h-324
q-233 0 -233 -174q0 -77 62 -124.5t165 -47.5q154 0 242 81t88 214z" />
    <glyph glyph-name="ae" unicode="&#xe6;" horiz-adv-x="1849" 
d="M1767 489h-811v-14q5 -153 94.5 -245.5t235.5 -92.5q111 0 191 56.5t106 156.5h170q-31 -160 -154 -261t-301 -101q-137 0 -242.5 59.5t-168.5 167.5q-59 -104 -167 -165.5t-249 -61.5q-179 0 -287 82t-108 223q0 157 107.5 241t312.5 84h307v72q0 102 -68.5 159.5
t-191.5 57.5q-109 0 -180.5 -48t-86.5 -128h-167q19 154 136 240t306 86q132 0 224 -47t136 -138q62 89 157 137t212 48q221 0 353.5 -132.5t138.5 -363.5q0 -9 -5 -72zM1278 909q-119 0 -209 -78t-102 -202h624q-12 133 -96 206.5t-217 73.5zM803 426v51h-324
q-233 0 -233 -174q0 -77 62 -124.5t165 -47.5q154 0 242 81t88 214z" />
    <glyph glyph-name="ccedilla" unicode="&#xe7;" horiz-adv-x="1118" 
d="M586 137q111 0 185 58.5t99 160.5h179q-30 -160 -138.5 -257t-277.5 -109l-21 -76h15q80 0 132 -40t52 -112q0 -78 -51.5 -125t-136.5 -47h-185v103h164q80 0 80 63q0 60 -80 60h-113l41 174q-207 17 -329.5 159t-122.5 371q0 239 141.5 388t368.5 149q189 0 308.5 -99
t152.5 -274h-177q-24 105 -98 164t-188 59q-150 0 -243 -108t-93 -279t93 -277t243 -106z" />
    <glyph glyph-name="egrave" unicode="&#xe8;" horiz-adv-x="1146" 
d="M498 1167l-234 279h197l170 -279h-133zM596 -12q-234 0 -376 147t-142 387q0 238 137 386.5t358 148.5q222 0 356 -132.5t140 -363.5q0 -22 -4 -72h-811v-14q5 -151 94 -244.5t236 -93.5q111 0 191 56.5t106 156.5h170q-31 -160 -154 -261t-301 -101zM264 629h625
q-12 133 -96.5 206.5t-217.5 73.5q-119 0 -209 -78t-102 -202z" />
    <glyph glyph-name="eacute" unicode="&#xe9;" horiz-adv-x="1146" 
d="M637 1169h-131l174 277h197zM596 -12q-234 0 -376 147t-142 387q0 238 137 386.5t358 148.5q222 0 356 -132.5t140 -363.5q0 -22 -4 -72h-811v-14q5 -151 94 -244.5t236 -93.5q111 0 191 56.5t106 156.5h170q-31 -160 -154 -261t-301 -101zM264 629h625
q-12 133 -96.5 206.5t-217.5 73.5q-119 0 -209 -78t-102 -202z" />
    <glyph glyph-name="ecircumflex" unicode="&#xea;" horiz-adv-x="1146" 
d="M743 1167l-176 168l-178 -168h-160l258 279h160l258 -279h-162zM596 -12q-234 0 -376 147t-142 387q0 238 137 386.5t358 148.5q222 0 356 -132.5t140 -363.5q0 -22 -4 -72h-811v-14q5 -151 94 -244.5t236 -93.5q111 0 191 56.5t106 156.5h170q-31 -160 -154 -261
t-301 -101zM264 629h625q-12 133 -96.5 206.5t-217.5 73.5q-119 0 -209 -78t-102 -202z" />
    <glyph glyph-name="edieresis" unicode="&#xeb;" horiz-adv-x="1146" 
d="M274 1313q0 46 30.5 76t76.5 30q47 0 77.5 -30t30.5 -76q0 -45 -30.5 -75t-77.5 -30q-46 0 -76.5 30.5t-30.5 74.5zM645 1313q0 45 32 75.5t77 30.5q46 0 76 -30t30 -76q0 -45 -30 -75t-76 -30q-45 0 -77 30.5t-32 74.5zM596 -12q-234 0 -376 147t-142 387
q0 238 137 386.5t358 148.5q222 0 356 -132.5t140 -363.5q0 -22 -4 -72h-811v-14q5 -151 94 -244.5t236 -93.5q111 0 191 56.5t106 156.5h170q-31 -160 -154 -261t-301 -101zM264 629h625q-12 133 -96.5 206.5t-217.5 73.5q-119 0 -209 -78t-102 -202z" />
    <glyph glyph-name="igrave" unicode="&#xec;" horiz-adv-x="397" 
d="M131 1167l-233 279h196l170 -279h-133zM115 0v1044h168v-1044h-168z" />
    <glyph glyph-name="iacute" unicode="&#xed;" horiz-adv-x="397" 
d="M270 1169h-131l174 277h197zM115 0v1044h168v-1044h-168z" />
    <glyph glyph-name="icircumflex" unicode="&#xee;" horiz-adv-x="397" 
d="M377 1167l-176 168l-178 -168h-160l258 279h160l258 -279h-162zM115 0v1044h168v-1044h-168z" />
    <glyph glyph-name="idieresis" unicode="&#xef;" horiz-adv-x="397" 
d="M-92 1313q0 46 30 76t76 30q47 0 78 -30t31 -76q0 -45 -31 -75t-78 -30q-46 0 -76 30t-30 75zM279 1313q0 45 31.5 75.5t76.5 30.5q46 0 76.5 -30t30.5 -76q0 -44 -30.5 -74.5t-76.5 -30.5q-45 0 -76.5 30.5t-31.5 74.5zM115 0v1044h168v-1044h-168z" />
    <glyph glyph-name="eth" unicode="&#xf0;" horiz-adv-x="1208" 
d="M973 1341l-193 -118q154 -137 242 -310t88 -374q0 -159 -58.5 -282t-177.5 -196t-284 -73q-229 0 -370.5 133.5t-141.5 345.5q0 109 40 201t107.5 152.5t155.5 94t184 33.5q200 0 334 -131q-71 174 -252 324l-244 -152l-65 115l197 121q-111 72 -205 118l94 103
q138 -61 246 -137l237 147zM590 135q158 0 253 98.5t95 258.5q0 147 -100.5 233t-247.5 86q-150 0 -245 -97.5t-95 -246.5t94.5 -240.5t245.5 -91.5z" />
    <glyph glyph-name="ntilde" unicode="&#xf1;" horiz-adv-x="1148" 
d="M500 1319q-35 0 -52.5 -28.5t-17.5 -71.5h-115v24q0 82 50.5 138.5t130.5 56.5q46 0 82.5 -16.5t54.5 -36t42.5 -36t49.5 -16.5q34 0 51 28.5t17 72.5h114v-25q0 -83 -50 -139t-128 -56q-48 0 -84 16.5t-53.5 36t-41.5 36t-50 16.5zM627 1057q92 0 166 -26t133 -81
t91 -148.5t32 -219.5v-582h-168v571q0 162 -73 247t-210 85q-147 0 -231 -102t-84 -279v-522h-168v1044h145l23 -141q117 154 344 154z" />
    <glyph glyph-name="ograve" unicode="&#xf2;" horiz-adv-x="1191" 
d="M526 1167l-233 279h196l170 -279h-133zM596 -12q-229 0 -373.5 148.5t-144.5 385.5t144.5 386t373.5 149t373.5 -149t144.5 -386t-144.5 -385.5t-373.5 -148.5zM596 137q154 0 250 108t96 277t-96 277t-250 108t-250 -108t-96 -277t96 -277t250 -108z" />
    <glyph glyph-name="oacute" unicode="&#xf3;" horiz-adv-x="1191" 
d="M666 1169h-131l174 277h196zM596 -12q-229 0 -373.5 148.5t-144.5 385.5t144.5 386t373.5 149t373.5 -149t144.5 -386t-144.5 -385.5t-373.5 -148.5zM596 137q154 0 250 108t96 277t-96 277t-250 108t-250 -108t-96 -277t96 -277t250 -108z" />
    <glyph glyph-name="ocircumflex" unicode="&#xf4;" horiz-adv-x="1191" 
d="M772 1167l-176 168l-178 -168h-160l258 279h160l258 -279h-162zM596 -12q-229 0 -373.5 148.5t-144.5 385.5t144.5 386t373.5 149t373.5 -149t144.5 -386t-144.5 -385.5t-373.5 -148.5zM596 137q154 0 250 108t96 277t-96 277t-250 108t-250 -108t-96 -277t96 -277
t250 -108z" />
    <glyph glyph-name="otilde" unicode="&#xf5;" horiz-adv-x="1191" 
d="M483 1319q-35 0 -52 -28.5t-17 -71.5h-115v24q0 82 50 138.5t130 56.5q46 0 82.5 -16.5t55 -36t43 -36t49.5 -16.5q34 0 50.5 28.5t16.5 72.5h115v-25q0 -83 -50 -139t-128 -56q-48 0 -84 16.5t-54 36t-42 36t-50 16.5zM596 -12q-229 0 -373.5 148.5t-144.5 385.5
t144.5 386t373.5 149t373.5 -149t144.5 -386t-144.5 -385.5t-373.5 -148.5zM596 137q154 0 250 108t96 277t-96 277t-250 108t-250 -108t-96 -277t96 -277t250 -108z" />
    <glyph glyph-name="odieresis" unicode="&#xf6;" horiz-adv-x="1191" 
d="M303 1313q0 46 30.5 76t76.5 30q47 0 77.5 -30t30.5 -76q0 -45 -30.5 -75t-77.5 -30q-46 0 -76.5 30.5t-30.5 74.5zM674 1313q0 45 31.5 75.5t76.5 30.5q46 0 76.5 -30t30.5 -76q0 -44 -30.5 -74.5t-76.5 -30.5q-45 0 -76.5 30.5t-31.5 74.5zM596 -12
q-229 0 -373.5 148.5t-144.5 385.5t144.5 386t373.5 149t373.5 -149t144.5 -386t-144.5 -385.5t-373.5 -148.5zM596 137q154 0 250 108t96 277t-96 277t-250 108t-250 -108t-96 -277t96 -277t250 -108z" />
    <glyph glyph-name="divide" unicode="&#xf7;" 
d="M422 961q0 51 32 81.5t83 30.5q50 0 81 -30.5t31 -81.5t-31 -82t-81 -31q-51 0 -83 31t-32 82zM954 516h-835v141h835v-141zM422 213q0 51 32 82t83 31q50 0 81 -31t31 -82t-31 -82t-81 -31q-51 0 -83 31t-32 82z" />
    <glyph glyph-name="oslash" unicode="&#xf8;" horiz-adv-x="1191" 
d="M1024 1057l90 -86l-104 -109q104 -142 104 -340q0 -237 -144.5 -385.5t-373.5 -148.5q-192 0 -326 106l-102 -106l-90 86l104 108q-104 142 -104 340q0 237 144.5 386t373.5 149q191 0 326 -107zM250 522q0 -123 51 -217l510 531q-90 71 -215 71q-154 0 -250 -108
t-96 -277zM942 522q0 123 -51 217l-510 -530q91 -72 215 -72q154 0 250 108t96 277z" />
    <glyph glyph-name="ugrave" unicode="&#xf9;" horiz-adv-x="1128" 
d="M451 1446l170 -279h-134l-233 279h197zM846 522v522h168v-1044h-146l-22 139q-118 -151 -334 -151q-89 0 -161.5 26t-130 81t-89 148.5t-31.5 219.5v581h168v-571q0 -162 71 -247t202 -85q142 0 223.5 102t81.5 279z" />
    <glyph glyph-name="uacute" unicode="&#xfa;" horiz-adv-x="1128" 
d="M670 1446h196l-239 -277h-131zM846 522v522h168v-1044h-146l-22 139q-118 -151 -334 -151q-89 0 -161.5 26t-130 81t-89 148.5t-31.5 219.5v581h168v-571q0 -162 71 -247t202 -85q142 0 223.5 102t81.5 279z" />
    <glyph glyph-name="ucircumflex" unicode="&#xfb;" horiz-adv-x="1128" 
d="M733 1167l-176 168l-178 -168h-160l258 279h160l258 -279h-162zM846 522v522h168v-1044h-146l-22 139q-118 -151 -334 -151q-89 0 -161.5 26t-130 81t-89 148.5t-31.5 219.5v581h168v-571q0 -162 71 -247t202 -85q142 0 223.5 102t81.5 279z" />
    <glyph glyph-name="udieresis" unicode="&#xfc;" horiz-adv-x="1128" 
d="M371 1208q-46 0 -76.5 30.5t-30.5 74.5q0 46 30.5 76t76.5 30q47 0 77.5 -30t30.5 -76q0 -45 -30.5 -75t-77.5 -30zM743 1208q-45 0 -76.5 30.5t-31.5 74.5q0 45 31.5 75.5t76.5 30.5q46 0 76.5 -30t30.5 -76q0 -44 -30.5 -74.5t-76.5 -30.5zM846 522v522h168v-1044h-146
l-22 139q-118 -151 -334 -151q-89 0 -161.5 26t-130 81t-89 148.5t-31.5 219.5v581h168v-571q0 -162 71 -247t202 -85q142 0 223.5 102t81.5 279z" />
    <glyph glyph-name="yacute" unicode="&#xfd;" horiz-adv-x="1009" 
d="M571 1169h-131l174 277h197zM418 -6l-408 1050h178l322 -833l311 833h178l-481 -1220q-28 -71 -47 -109t-48 -70t-65.5 -43.5t-91.5 -11.5h-200v154h149q48 0 74.5 11.5t41 34.5t36.5 77z" />
    <glyph glyph-name="thorn" unicode="&#xfe;" horiz-adv-x="1220" 
d="M115 -410v1844h168v-557q131 180 358 180q222 0 362 -143t140 -392q0 -237 -141.5 -385.5t-360.5 -148.5q-127 0 -217.5 46.5t-140.5 125.5v-570h-168zM971 522q0 171 -95.5 278t-250.5 107q-153 0 -248.5 -106.5t-95.5 -274.5q0 -172 95.5 -280.5t248.5 -108.5
q155 0 250.5 107t95.5 278z" />
    <glyph glyph-name="ydieresis" unicode="&#xff;" horiz-adv-x="1009" 
d="M209 1313q0 46 30 76t76 30q47 0 78 -30t31 -76q0 -45 -31 -75t-78 -30q-45 0 -75.5 30t-30.5 75zM580 1313q0 45 31.5 75.5t76.5 30.5q46 0 76.5 -30t30.5 -76q0 -44 -30.5 -74.5t-76.5 -30.5q-45 0 -76.5 30.5t-31.5 74.5zM418 -6l-408 1050h178l322 -833l311 833h178
l-481 -1220q-28 -71 -47 -109t-48 -70t-65.5 -43.5t-91.5 -11.5h-200v154h149q48 0 74.5 11.5t41 34.5t36.5 77z" />
    <glyph glyph-name="Amacron" unicode="&#x100;" horiz-adv-x="1347" 
d="M956 1645h-563v127h563v-127zM207 0h-184l546 1434h211l545 -1434h-190l-152 387h-625zM670 1239l-258 -690h518z" />
    <glyph glyph-name="amacron" unicode="&#x101;" horiz-adv-x="1105" 
d="M272 1382h564v-127h-564v127zM1038 154h54v-154h-93q-100 0 -143 41t-45 121q-122 -174 -350 -174q-174 0 -279.5 82t-105.5 223q0 157 107.5 241t312.5 84h307v72q0 102 -68.5 159.5t-191.5 57.5q-109 0 -180.5 -48t-86.5 -128h-167q19 154 136 240t306 86
q201 0 310.5 -97.5t109.5 -279.5v-457q0 -40 15 -54.5t52 -14.5zM803 426v51h-324q-233 0 -233 -174q0 -77 62 -124.5t165 -47.5q154 0 242 81t88 214z" />
    <glyph glyph-name="Abreve" unicode="&#x102;" horiz-adv-x="1347" 
d="M391 1835h133q0 -68 41 -110t107 -42t108.5 42.5t42.5 109.5h133q-3 -128 -82 -204.5t-204 -76.5q-124 0 -200 76.5t-79 204.5zM207 0h-184l546 1434h211l545 -1434h-190l-152 387h-625zM670 1239l-258 -690h518z" />
    <glyph glyph-name="abreve" unicode="&#x103;" horiz-adv-x="1105" 
d="M549 1165q-123 0 -199.5 76.5t-79.5 204.5h133q0 -68 41 -110t107 -42t108.5 42.5t42.5 109.5h134q-3 -128 -82 -204.5t-205 -76.5zM1038 154h54v-154h-93q-100 0 -143 41t-45 121q-122 -174 -350 -174q-174 0 -279.5 82t-105.5 223q0 157 107.5 241t312.5 84h307v72
q0 102 -68.5 159.5t-191.5 57.5q-109 0 -180.5 -48t-86.5 -128h-167q19 154 136 240t306 86q201 0 310.5 -97.5t109.5 -279.5v-457q0 -40 15 -54.5t52 -14.5zM803 426v51h-324q-233 0 -233 -174q0 -77 62 -124.5t165 -47.5q154 0 242 81t88 214z" />
    <glyph glyph-name="Aogonek" unicode="&#x104;" horiz-adv-x="1347" 
d="M1206 -287h131v-123h-159q-93 0 -150 46.5t-57 127.5q0 68 42.5 125t119.5 115l-150 383h-625l-151 -387h-184l546 1434h211l545 -1434q-103 -56 -158 -106t-55 -105q0 -76 94 -76zM670 1239l-258 -690h518z" />
    <glyph glyph-name="aogonek" unicode="&#x105;" horiz-adv-x="1105" 
d="M973 -287h131v-123h-160q-93 0 -150 46.5t-57 127.5q0 69 45 127.5t127 120.5q-98 28 -98 150q-122 -174 -350 -174q-174 0 -279.5 82t-105.5 223q0 157 107.5 241t312.5 84h307v72q0 102 -68.5 159.5t-191.5 57.5q-109 0 -180.5 -48t-86.5 -128h-167q19 154 136 240
t306 86q201 0 310.5 -97.5t109.5 -279.5v-457q0 -40 15 -54.5t52 -14.5h54v-154q-103 -56 -158 -106t-55 -105q0 -76 94 -76zM803 426v51h-324q-233 0 -233 -174q0 -77 62 -124.5t165 -47.5q154 0 242 81t88 214z" />
    <glyph glyph-name="Cacute" unicode="&#x106;" horiz-adv-x="1445" 
d="M823 1559h-131l174 276h197zM756 -12q-307 0 -488.5 199.5t-181.5 529.5q0 327 187 528t497 201q238 0 400 -129.5t202 -351.5h-188q-41 150 -151.5 233.5t-270.5 83.5q-224 0 -359 -157t-135 -408t131.5 -408t354.5 -157q165 0 276.5 83t151.5 234h188
q-40 -222 -205.5 -351.5t-408.5 -129.5z" />
    <glyph glyph-name="cacute" unicode="&#x107;" horiz-adv-x="1118" 
d="M662 1169h-132l175 277h196zM584 -12q-230 0 -368 144t-138 388q0 239 141.5 388t368.5 149q189 0 308.5 -99t152.5 -274h-177q-24 105 -98 164t-188 59q-150 0 -243 -108t-93 -279t93 -277t243 -106q111 0 185 58.5t99 160.5h179q-31 -171 -153.5 -269.5t-311.5 -98.5z
" />
    <glyph glyph-name="Ccircumflex" unicode="&#x108;" horiz-adv-x="1445" 
d="M930 1556l-176 168l-179 -168h-159l258 279h160l258 -279h-162zM756 -12q-307 0 -488.5 199.5t-181.5 529.5q0 327 187 528t497 201q238 0 400 -129.5t202 -351.5h-188q-41 150 -151.5 233.5t-270.5 83.5q-224 0 -359 -157t-135 -408t131.5 -408t354.5 -157
q165 0 276.5 83t151.5 234h188q-40 -222 -205.5 -351.5t-408.5 -129.5z" />
    <glyph glyph-name="ccircumflex" unicode="&#x109;" horiz-adv-x="1118" 
d="M768 1167l-176 168l-178 -168h-160l258 279h160l258 -279h-162zM584 -12q-230 0 -368 144t-138 388q0 239 141.5 388t368.5 149q189 0 308.5 -99t152.5 -274h-177q-24 105 -98 164t-188 59q-150 0 -243 -108t-93 -279t93 -277t243 -106q111 0 185 58.5t99 160.5h179
q-31 -171 -153.5 -269.5t-311.5 -98.5z" />
    <glyph glyph-name="Cdotaccent" unicode="&#x10a;" horiz-adv-x="1445" 
d="M754 1610q-46 0 -77.5 30.5t-31.5 77.5t31.5 78t77.5 31t77 -31t31 -78t-31 -77.5t-77 -30.5zM756 -12q-307 0 -488.5 199.5t-181.5 529.5q0 327 187 528t497 201q238 0 400 -129.5t202 -351.5h-188q-41 150 -151.5 233.5t-270.5 83.5q-224 0 -359 -157t-135 -408
t131.5 -408t354.5 -157q165 0 276.5 83t151.5 234h188q-40 -222 -205.5 -351.5t-408.5 -129.5z" />
    <glyph glyph-name="cdotaccent" unicode="&#x10b;" horiz-adv-x="1118" 
d="M592 1221q-46 0 -77.5 30.5t-31.5 77.5t31.5 78t77.5 31t77 -31t31 -78t-31 -77.5t-77 -30.5zM584 -12q-230 0 -368 144t-138 388q0 239 141.5 388t368.5 149q189 0 308.5 -99t152.5 -274h-177q-24 105 -98 164t-188 59q-150 0 -243 -108t-93 -279t93 -277t243 -106
q111 0 185 58.5t99 160.5h179q-31 -171 -153.5 -269.5t-311.5 -98.5z" />
    <glyph glyph-name="Ccaron" unicode="&#x10c;" horiz-adv-x="1445" 
d="M578 1835l176 -168l178 168h160l-258 -279h-160l-258 279h162zM756 -12q-307 0 -488.5 199.5t-181.5 529.5q0 327 187 528t497 201q238 0 400 -129.5t202 -351.5h-188q-41 150 -151.5 233.5t-270.5 83.5q-224 0 -359 -157t-135 -408t131.5 -408t354.5 -157
q165 0 276.5 83t151.5 234h188q-40 -222 -205.5 -351.5t-408.5 -129.5z" />
    <glyph glyph-name="ccaron" unicode="&#x10d;" horiz-adv-x="1118" 
d="M416 1446l176 -168l178 168h160l-258 -279h-160l-258 279h162zM584 -12q-230 0 -368 144t-138 388q0 239 141.5 388t368.5 149q189 0 308.5 -99t152.5 -274h-177q-24 105 -98 164t-188 59q-150 0 -243 -108t-93 -279t93 -277t243 -106q111 0 185 58.5t99 160.5h179
q-31 -171 -153.5 -269.5t-311.5 -98.5z" />
    <glyph glyph-name="Dcaron" unicode="&#x10e;" horiz-adv-x="1404" 
d="M453 1835l176 -168l178 168h160l-258 -279h-160l-258 279h162zM598 0h-459v1434h459q334 0 527.5 -196t193.5 -521q0 -324 -194 -520.5t-527 -196.5zM317 1270v-1106h281q257 0 398 149t141 404q0 256 -141 404.5t-398 148.5h-281z" />
    <glyph glyph-name="dcaron" unicode="&#x10f;" horiz-adv-x="1343" 
d="M938 885v549h168v-1434h-145l-23 168q-131 -180 -358 -180q-222 0 -362 142.5t-140 391.5q0 237 141.5 386t360.5 149q127 0 217.5 -46.5t140.5 -125.5zM1192 1135l82 299h158l-119 -299h-121zM596 137q153 0 248.5 106.5t95.5 274.5q0 172 -95.5 280.5t-248.5 108.5
q-155 0 -250.5 -107t-95.5 -278t95.5 -278t250.5 -107z" />
    <glyph glyph-name="Dcroat" unicode="&#x110;" horiz-adv-x="1456" 
d="M190 1434h459q334 0 527.5 -196t193.5 -521q0 -324 -194 -520.5t-527 -196.5h-459v653h-176v152h176v629zM369 164h280q257 0 398 149t141 404q0 256 -141 404.5t-398 148.5h-280v-465h290v-152h-290v-489z" />
    <glyph glyph-name="dcroat" unicode="&#x111;" horiz-adv-x="1230" 
d="M1106 1303h174v-144h-174v-1159h-145l-23 168q-131 -180 -358 -180q-222 0 -362 142.5t-140 391.5q0 237 141.5 386t360.5 149q127 0 217.5 -46.5t140.5 -125.5v274h-299v144h299v131h168v-131zM596 137q153 0 248.5 106.5t95.5 274.5q0 172 -95.5 280.5t-248.5 108.5
q-155 0 -250.5 -107t-95.5 -278t95.5 -278t250.5 -107z" />
    <glyph glyph-name="Emacron" unicode="&#x112;" horiz-adv-x="1140" 
d="M885 1645h-563v127h563v-127zM139 0v1434h914v-164h-736v-459h613v-164h-613v-483h762v-164h-940z" />
    <glyph glyph-name="emacron" unicode="&#x113;" horiz-adv-x="1146" 
d="M850 1255h-563v127h563v-127zM596 -12q-234 0 -376 147t-142 387q0 238 137 386.5t358 148.5q222 0 356 -132.5t140 -363.5q0 -22 -4 -72h-811v-14q5 -151 94 -244.5t236 -93.5q111 0 191 56.5t106 156.5h170q-31 -160 -154 -261t-301 -101zM264 629h625
q-12 133 -96.5 206.5t-217.5 73.5q-119 0 -209 -78t-102 -202z" />
    <glyph glyph-name="Ebreve" unicode="&#x114;" horiz-adv-x="1140" 
d="M319 1835h134q0 -68 40.5 -110t106.5 -42t109 42.5t43 109.5h133q-3 -128 -82 -204.5t-205 -76.5q-124 0 -200 76.5t-79 204.5zM139 0v1434h914v-164h-736v-459h613v-164h-613v-483h762v-164h-940z" />
    <glyph glyph-name="ebreve" unicode="&#x115;" horiz-adv-x="1146" 
d="M285 1446h133q0 -68 40.5 -110t106.5 -42t109 42.5t43 109.5h133q-3 -128 -82 -204.5t-205 -76.5q-123 0 -199 76t-79 205zM596 -12q-234 0 -376 147t-142 387q0 238 137 386.5t358 148.5q222 0 356 -132.5t140 -363.5q0 -22 -4 -72h-811v-14q5 -151 94 -244.5t236 -93.5
q111 0 191 56.5t106 156.5h170q-31 -160 -154 -261t-301 -101zM264 629h625q-12 133 -96.5 206.5t-217.5 73.5q-119 0 -209 -78t-102 -202z" />
    <glyph glyph-name="Edotaccent" unicode="&#x116;" horiz-adv-x="1140" 
d="M602 1610q-46 0 -77 30.5t-31 77.5t31 78t77 31t77.5 -31t31.5 -78t-31.5 -77.5t-77.5 -30.5zM139 0v1434h914v-164h-736v-459h613v-164h-613v-483h762v-164h-940z" />
    <glyph glyph-name="edotaccent" unicode="&#x117;" horiz-adv-x="1146" 
d="M567 1221q-46 0 -77 30.5t-31 77.5t31 78t77 31t77.5 -31t31.5 -78t-31.5 -77.5t-77.5 -30.5zM596 -12q-234 0 -376 147t-142 387q0 238 137 386.5t358 148.5q222 0 356 -132.5t140 -363.5q0 -22 -4 -72h-811v-14q5 -151 94 -244.5t236 -93.5q111 0 191 56.5t106 156.5
h170q-31 -160 -154 -261t-301 -101zM264 629h625q-12 133 -96.5 206.5t-217.5 73.5q-119 0 -209 -78t-102 -202z" />
    <glyph glyph-name="Eogonek" unicode="&#x118;" horiz-adv-x="1140" 
d="M961 -287h131v-123h-160q-93 0 -150 46.5t-57 127.5q0 67 41 123t117 113h-744v1434h914v-164h-736v-459h613v-164h-613v-483h762v-164q-103 -56 -158 -106t-55 -105q0 -37 24.5 -56.5t70.5 -19.5z" />
    <glyph glyph-name="eogonek" unicode="&#x119;" horiz-adv-x="1146" 
d="M844 -410h-160q-93 0 -150 46.5t-57 127.5q0 109 115 224q-33 0 -49 2q-214 19 -339.5 162.5t-125.5 369.5q0 238 137 386.5t358 148.5q222 0 356 -132.5t140 -363.5q0 -22 -4 -72h-811v-14q5 -153 94.5 -245.5t235.5 -92.5q111 0 191 56.5t106 156.5h170
q-35 -170 -168 -272q-136 -95 -181 -138q-84 -79 -84 -151q0 -37 24.5 -56.5t70.5 -19.5h131v-123zM264 629h625q-12 133 -96.5 206.5t-217.5 73.5q-119 0 -209 -78t-102 -202z" />
    <glyph glyph-name="Ecaron" unicode="&#x11a;" horiz-adv-x="1140" 
d="M426 1835l176 -168l178 168h160l-258 -279h-160l-258 279h162zM139 0v1434h914v-164h-736v-459h613v-164h-613v-483h762v-164h-940z" />
    <glyph glyph-name="ecaron" unicode="&#x11b;" horiz-adv-x="1146" 
d="M391 1446l176 -168l178 168h160l-258 -279h-160l-258 279h162zM596 -12q-234 0 -376 147t-142 387q0 238 137 386.5t358 148.5q222 0 356 -132.5t140 -363.5q0 -22 -4 -72h-811v-14q5 -151 94 -244.5t236 -93.5q111 0 191 56.5t106 156.5h170q-31 -160 -154 -261
t-301 -101zM264 629h625q-12 133 -96.5 206.5t-217.5 73.5q-119 0 -209 -78t-102 -202z" />
    <glyph glyph-name="Gcircumflex" unicode="&#x11c;" horiz-adv-x="1529" 
d="M946 1556l-176 168l-178 -168h-160l258 279h160l258 -279h-162zM760 -12q-197 0 -350 91t-238.5 257.5t-85.5 380.5q0 327 187 528t497 201q239 0 404 -129.5t202 -349.5h-190q-37 149 -147 232t-273 83q-224 0 -361 -157t-137 -408q0 -250 136 -407.5t358 -157.5
q201 0 328 111.5t127 299.5v49h-431v164h605v-776h-154l-12 209q-58 -91 -177 -156t-288 -65z" />
    <glyph glyph-name="gcircumflex" unicode="&#x11d;" horiz-adv-x="1220" 
d="M768 1167l-176 168l-178 -168h-160l258 279h160l258 -279h-162zM938 864l23 180h145v-993q0 -473 -518 -473q-203 0 -331 92.5t-148 261.5h172q22 -98 105 -151t214 -53q338 0 338 329v123q-113 -192 -358 -192q-222 0 -362 142.5t-140 391.5q0 237 141.5 386t360.5 149
q249 0 358 -193zM596 137q153 0 248.5 106.5t95.5 274.5q0 172 -95.5 280.5t-248.5 108.5q-155 0 -250.5 -107t-95.5 -278t95.5 -278t250.5 -107z" />
    <glyph glyph-name="Gbreve" unicode="&#x11e;" horiz-adv-x="1529" 
d="M487 1835h134q0 -68 40.5 -110t106.5 -42t109 42.5t43 109.5h133q-3 -128 -82 -204.5t-205 -76.5q-124 0 -200 76.5t-79 204.5zM760 -12q-197 0 -350 91t-238.5 257.5t-85.5 380.5q0 327 187 528t497 201q239 0 404 -129.5t202 -349.5h-190q-37 149 -147 232t-273 83
q-224 0 -361 -157t-137 -408q0 -250 136 -407.5t358 -157.5q201 0 328 111.5t127 299.5v49h-431v164h605v-776h-154l-12 209q-58 -91 -177 -156t-288 -65z" />
    <glyph glyph-name="gbreve" unicode="&#x11f;" horiz-adv-x="1220" 
d="M588 1165q-124 0 -200 76.5t-79 204.5h133q0 -68 41 -110t107 -42t108.5 42.5t42.5 109.5h133q-3 -128 -82 -204.5t-204 -76.5zM938 864l23 180h145v-993q0 -473 -518 -473q-203 0 -331 92.5t-148 261.5h172q22 -98 105 -151t214 -53q338 0 338 329v123
q-113 -192 -358 -192q-222 0 -362 142.5t-140 391.5q0 237 141.5 386t360.5 149q249 0 358 -193zM596 137q153 0 248.5 106.5t95.5 274.5q0 172 -95.5 280.5t-248.5 108.5q-155 0 -250.5 -107t-95.5 -278t95.5 -278t250.5 -107z" />
    <glyph glyph-name="Gdotaccent" unicode="&#x120;" horiz-adv-x="1529" 
d="M770 1610q-46 0 -77 30.5t-31 77.5t31 78t77 31t77.5 -31t31.5 -78t-31.5 -77.5t-77.5 -30.5zM760 -12q-197 0 -350 91t-238.5 257.5t-85.5 380.5q0 327 187 528t497 201q239 0 404 -129.5t202 -349.5h-190q-37 149 -147 232t-273 83q-224 0 -361 -157t-137 -408
q0 -250 136 -407.5t358 -157.5q201 0 328 111.5t127 299.5v49h-431v164h605v-776h-154l-12 209q-58 -91 -177 -156t-288 -65z" />
    <glyph glyph-name="gdotaccent" unicode="&#x121;" horiz-adv-x="1220" 
d="M592 1221q-46 0 -77.5 30.5t-31.5 77.5t31.5 78t77.5 31t77 -31t31 -78t-31 -77.5t-77 -30.5zM938 864l23 180h145v-993q0 -473 -518 -473q-203 0 -331 92.5t-148 261.5h172q22 -98 105 -151t214 -53q338 0 338 329v123q-113 -192 -358 -192q-222 0 -362 142.5
t-140 391.5q0 237 141.5 386t360.5 149q249 0 358 -193zM596 137q153 0 248.5 106.5t95.5 274.5q0 172 -95.5 280.5t-248.5 108.5q-155 0 -250.5 -107t-95.5 -278t95.5 -278t250.5 -107z" />
    <glyph glyph-name="uni0122" unicode="&#x122;" horiz-adv-x="1529" 
d="M760 -12q-197 0 -350 91t-238.5 257.5t-85.5 380.5q0 327 187 528t497 201q239 0 404 -129.5t202 -349.5h-190q-37 149 -147 232t-273 83q-224 0 -361 -157t-137 -408q0 -250 136 -407.5t358 -157.5q201 0 328 111.5t127 299.5v49h-431v164h605v-776h-154l-12 209
q-58 -91 -177 -156t-288 -65zM592 -397l96 293h168l-143 -293h-121z" />
    <glyph glyph-name="uni0123" unicode="&#x123;" horiz-adv-x="1220" 
d="M629 1446h129l-101 -293h-163zM938 864l23 180h145v-993q0 -473 -518 -473q-203 0 -331 92.5t-148 261.5h172q22 -98 105 -151t214 -53q338 0 338 329v123q-113 -192 -358 -192q-222 0 -362 142.5t-140 391.5q0 237 141.5 386t360.5 149q249 0 358 -193zM596 137
q153 0 248.5 106.5t95.5 274.5q0 172 -95.5 280.5t-248.5 108.5q-155 0 -250.5 -107t-95.5 -278t95.5 -278t250.5 -107z" />
    <glyph glyph-name="Hcircumflex" unicode="&#x124;" horiz-adv-x="1376" 
d="M864 1556l-176 168l-178 -168h-160l258 279h160l258 -279h-162zM139 0v1434h178v-623h742v623h178v-1434h-178v647h-742v-647h-178z" />
    <glyph glyph-name="hcircumflex" unicode="&#x125;" horiz-adv-x="1150" 
d="M537 1536h-162l-176 168l-179 -168h-159l258 279h160zM627 1057q91 0 165.5 -26t133.5 -81t92 -148.5t33 -219.5v-582h-168v571q0 161 -74.5 246.5t-210.5 85.5q-146 0 -230.5 -102t-84.5 -279v-522h-168v1434h168v-562q115 185 344 185z" />
    <glyph glyph-name="Hbar" unicode="&#x126;" horiz-adv-x="1409" 
d="M1253 1184h152v-152h-152v-1032h-178v627h-741v-627h-178v1032h-152v152h152v250h178v-250h741v250h178v-250zM334 791h741v241h-741v-241z" />
    <glyph glyph-name="hbar" unicode="&#x127;" horiz-adv-x="1161" 
d="M637 1057q91 0 165.5 -26t133.5 -81t92 -148.5t33 -219.5v-582h-168v571q0 161 -74.5 246.5t-210.5 85.5q-146 0 -230.5 -102t-84.5 -279v-522h-168v1159h-174v144h174v131h168v-131h299v-144h-299v-287q115 185 344 185z" />
    <glyph glyph-name="Itilde" unicode="&#x128;" horiz-adv-x="456" 
d="M115 1708q-35 0 -52.5 -28.5t-17.5 -71.5h-115v24q0 82 50.5 138.5t130.5 56.5q46 0 82.5 -16.5t54.5 -36t42.5 -36t49.5 -16.5q34 0 51 28.5t17 72.5h114v-25q0 -83 -50 -138.5t-128 -55.5q-39 0 -69.5 10.5t-49.5 26t-35 31t-34.5 26t-40.5 10.5zM139 0v1434h178v-1434
h-178z" />
    <glyph glyph-name="itilde" unicode="&#x129;" horiz-adv-x="397" 
d="M88 1319q-35 0 -52.5 -28.5t-17.5 -71.5h-114v24q0 82 50 138.5t130 56.5q46 0 82.5 -16.5t54.5 -36t42.5 -36t49.5 -16.5q34 0 51 28.5t17 72.5h115v-25q0 -83 -50.5 -139t-128.5 -56q-48 0 -84 16.5t-53.5 36t-41.5 36t-50 16.5zM115 0v1044h168v-1044h-168z" />
    <glyph glyph-name="Imacron" unicode="&#x12a;" horiz-adv-x="456" 
d="M510 1645h-563v127h563v-127zM139 0v1434h178v-1434h-178z" />
    <glyph glyph-name="imacron" unicode="&#x12b;" horiz-adv-x="397" 
d="M483 1255h-563v127h563v-127zM115 0v1044h168v-1044h-168z" />
    <glyph glyph-name="Ibreve" unicode="&#x12c;" horiz-adv-x="456" 
d="M-55 1835h133q0 -68 40.5 -110t106.5 -42t109 42.5t43 109.5h133q-3 -128 -82 -204.5t-205 -76.5q-123 0 -199 76t-79 205zM139 0v1434h178v-1434h-178z" />
    <glyph glyph-name="ibreve" unicode="&#x12d;" horiz-adv-x="397" 
d="M-82 1446h133q0 -68 41 -110t107 -42t108.5 42.5t42.5 109.5h133q-3 -128 -82 -204.5t-204 -76.5q-123 0 -199.5 76.5t-79.5 204.5zM115 0v1044h168v-1044h-168z" />
    <glyph glyph-name="Iogonek" unicode="&#x12e;" horiz-adv-x="456" 
d="M199 -287h131v-123h-160q-93 0 -150 46.5t-57 127.5q0 70 46 129t130 121v1420h178v-1434q-103 -56 -158 -106t-55 -105q0 -37 24.5 -56.5t70.5 -19.5z" />
    <glyph glyph-name="iogonek" unicode="&#x12f;" horiz-adv-x="397" 
d="M201 1221q-46 0 -77.5 30.5t-31.5 77.5t31.5 78t77.5 31t77 -31t31 -78t-31 -77.5t-77 -30.5zM70 -211q0 -76 94 -76h131v-123h-160q-93 0 -150 46.5t-57 127.5q0 73 49 133.5t138 125.5v1021h168v-1044q-103 -56 -158 -106t-55 -105z" />
    <glyph glyph-name="Idotaccent" unicode="&#x130;" horiz-adv-x="456" 
d="M227 1610q-46 0 -77 30.5t-31 77.5t31 78t77 31t77.5 -31t31.5 -78t-31.5 -77.5t-77.5 -30.5zM139 0v1434h178v-1434h-178z" />
    <glyph glyph-name="dotlessi" unicode="&#x131;" horiz-adv-x="397" 
d="M115 0v1044h168v-1044h-168z" />
    <glyph glyph-name="IJ" unicode="&#x132;" horiz-adv-x="1261" 
d="M131 528h178q0 -177 82.5 -276.5t237.5 -99.5q161 0 242 91.5t81 291.5v899h178v-895q0 -551 -501 -551q-240 0 -369.5 139t-128.5 401zM133 805v629h178v-629h-178z" />
    <glyph glyph-name="ij" unicode="&#x133;" horiz-adv-x="806" 
d="M201 1221q-46 0 -77.5 30.5t-31.5 77.5t31.5 78t77.5 31t77 -31t31 -78t-31 -77.5t-77 -30.5zM608 1221q-46 0 -77 30.5t-31 77.5t31 78t77 31t77.5 -31t31.5 -78t-31.5 -77.5t-77.5 -30.5zM115 0v1044h168v-1044h-168zM279 -410v154h131q62 0 88 27t26 88v1185h168
v-1181q0 -140 -64 -206.5t-208 -66.5h-141z" />
    <glyph glyph-name="Jcircumflex" unicode="&#x134;" horiz-adv-x="716" 
d="M666 1556l-177 168l-178 -168h-159l258 279h159l258 -279h-161zM399 352v1082h179v-1096q0 -166 -86 -252t-252 -86h-187v164h164q96 0 139 45t43 143z" />
    <glyph glyph-name="jcircumflex" unicode="&#x135;" horiz-adv-x="409" 
d="M387 1167l-176 168l-178 -168h-160l258 279h160l258 -279h-162zM-119 -410v154h131q62 0 88.5 27t26.5 88v1185h168v-1181q0 -140 -64 -206.5t-208 -66.5h-142z" />
    <glyph glyph-name="uni0136" unicode="&#x136;" horiz-adv-x="1306" 
d="M139 0v1434h178v-813l723 813h217l-524 -605l565 -829h-213l-483 694l-285 -321v-373h-178zM475 -397l96 293h168l-143 -293h-121z" />
    <glyph glyph-name="uni0137" unicode="&#x137;" horiz-adv-x="1046" 
d="M115 0v1434h168v-945l524 555h207l-408 -432l436 -612h-202l-346 492l-211 -218v-274h-168zM377 -397l96 293h168l-143 -293h-121z" />
    <glyph glyph-name="kgreenlandic" unicode="&#x138;" horiz-adv-x="1046" 
d="M115 0v1044h168v-555l524 555h207l-408 -432l436 -612h-202l-346 492l-211 -218v-274h-168z" />
    <glyph glyph-name="Lacute" unicode="&#x139;" horiz-adv-x="1011" 
d="M297 1559h-131l174 276h197zM971 0h-832v1434h178v-1270h654v-164z" />
    <glyph glyph-name="lacute" unicode="&#x13a;" horiz-adv-x="397" 
d="M268 1538h-131l174 277h197zM115 0v1434h168v-1434h-168z" />
    <glyph glyph-name="uni013B" unicode="&#x13b;" horiz-adv-x="1011" 
d="M971 0h-832v1434h178v-1270h654v-164zM385 -397l96 293h168l-143 -293h-121z" />
    <glyph glyph-name="uni013C" unicode="&#x13c;" horiz-adv-x="397" 
d="M115 0v1434h168v-1434h-168zM12 -397l97 293h167l-143 -293h-121z" />
    <glyph glyph-name="Lcaron" unicode="&#x13d;" horiz-adv-x="1011" 
d="M971 0h-832v1434h178v-1270h654v-164zM444 1135l82 299h158l-119 -299h-121z" />
    <glyph glyph-name="lcaron" unicode="&#x13e;" horiz-adv-x="520" 
d="M115 0v1434h168v-1434h-168zM369 1135l82 299h157l-119 -299h-120z" />
    <glyph glyph-name="Ldot" unicode="&#x13f;" horiz-adv-x="1021" 
d="M971 0h-832v1434h178v-1270h654v-164zM739 649q-46 0 -77 31t-31 78t31 77.5t77 30.5t77.5 -30.5t31.5 -77.5t-31.5 -78t-77.5 -31z" />
    <glyph glyph-name="ldot" unicode="&#x140;" horiz-adv-x="598" 
d="M115 0v1434h168v-1434h-168zM500 616q-46 0 -77.5 31t-31.5 78t31.5 78t77.5 31t77 -31t31 -78t-31 -78t-77 -31z" />
    <glyph glyph-name="Lslash" unicode="&#x141;" horiz-adv-x="1052" 
d="M348 688v-524h653v-164h-831v590l-156 -86v160l156 86v684h178v-586l320 176v-160z" />
    <glyph glyph-name="lslash" unicode="&#x142;" horiz-adv-x="520" 
d="M344 903l162 92v-157l-162 -93v-745h-168v651l-162 -92v158l162 92v625h168v-531z" />
    <glyph glyph-name="Nacute" unicode="&#x143;" horiz-adv-x="1386" 
d="M752 1559h-131l174 276h196zM313 0h-174v1434h164l770 -1106v1106h174v-1434h-164l-770 1106v-1106z" />
    <glyph glyph-name="nacute" unicode="&#x144;" horiz-adv-x="1148" 
d="M725 1446h197l-240 -277h-131zM627 1057q92 0 166 -26t133 -81t91 -148.5t32 -219.5v-582h-168v571q0 162 -73 247t-210 85q-147 0 -231 -102t-84 -279v-522h-168v1044h145l23 -141q117 154 344 154z" />
    <glyph glyph-name="uni0145" unicode="&#x145;" horiz-adv-x="1386" 
d="M313 0h-174v1434h164l770 -1106v1106h174v-1434h-164l-770 1106v-1106zM504 -397l96 293h168l-143 -293h-121z" />
    <glyph glyph-name="uni0146" unicode="&#x146;" horiz-adv-x="1148" 
d="M627 1057q92 0 166 -26t133 -81t91 -148.5t32 -219.5v-582h-168v571q0 162 -73 247t-210 85q-147 0 -231 -102t-84 -279v-522h-168v1044h145l23 -141q117 154 344 154zM518 -397h-121l97 293h168z" />
    <glyph glyph-name="Ncaron" unicode="&#x147;" horiz-adv-x="1386" 
d="M506 1835l176 -168l178 168h160l-258 -279h-160l-258 279h162zM313 0h-174v1434h164l770 -1106v1106h174v-1434h-164l-770 1106v-1106z" />
    <glyph glyph-name="ncaron" unicode="&#x148;" horiz-adv-x="1148" 
d="M950 1446l-258 -279h-160l-258 279h162l176 -168l179 168h159zM627 1057q92 0 166 -26t133 -81t91 -148.5t32 -219.5v-582h-168v571q0 162 -73 247t-210 85q-147 0 -231 -102t-84 -279v-522h-168v1044h145l23 -141q117 154 344 154z" />
    <glyph glyph-name="napostrophe" unicode="&#x149;" horiz-adv-x="1509" 
d="M190 1446q73 0 117.5 -60.5t44.5 -148.5q0 -130 -77 -205t-212 -78v97q89 1 131 50.5t42 112.5q0 15 -3 27q-24 -24 -69 -24q-48 0 -78.5 28.5t-30.5 81.5q0 52 36 85.5t99 33.5zM987 1057q92 0 166 -26t133 -81t91 -148.5t32 -219.5v-582h-168v571q0 162 -73 247
t-210 85q-147 0 -231 -102t-84 -279v-522h-168v1044h146l22 -141q117 154 344 154z" />
    <glyph glyph-name="Eng" unicode="&#x14a;" horiz-adv-x="1386" 
d="M1073 328v1106h174v-1565q0 -143 -65.5 -211t-212.5 -68h-146v160h135q62 0 88.5 27t26.5 88v149l-760 1092v-1106h-174v1434h164z" />
    <glyph glyph-name="eng" unicode="&#x14b;" horiz-adv-x="1148" 
d="M627 1057q92 0 166 -26t133 -81t91 -148.5t32 -219.5v-719q0 -140 -64.5 -206.5t-208.5 -66.5h-151v154h141q62 0 88.5 27t26.5 88v712q0 162 -73 247t-210 85q-147 0 -231 -102t-84 -279v-522h-168v1044h145l23 -141q117 154 344 154z" />
    <glyph glyph-name="Omacron" unicode="&#x14c;" horiz-adv-x="1540" 
d="M1053 1645h-564v127h564v-127zM1454 717q0 -209 -86.5 -375t-242.5 -260t-355 -94t-355 94t-242.5 260t-86.5 375t86.5 375t242.5 260t355 94t355 -94t242.5 -260t86.5 -375zM268 717q0 -249 139.5 -407t362.5 -158t362.5 158t139.5 407t-139.5 407t-362.5 158
t-362.5 -158t-139.5 -407z" />
    <glyph glyph-name="omacron" unicode="&#x14d;" horiz-adv-x="1191" 
d="M879 1255h-564v127h564v-127zM596 -12q-229 0 -373.5 148.5t-144.5 385.5t144.5 386t373.5 149t373.5 -149t144.5 -386t-144.5 -385.5t-373.5 -148.5zM596 137q154 0 250 108t96 277t-96 277t-250 108t-250 -108t-96 -277t96 -277t250 -108z" />
    <glyph glyph-name="Obreve" unicode="&#x14e;" horiz-adv-x="1540" 
d="M487 1835h134q0 -68 40.5 -110t106.5 -42t109 42.5t43 109.5h133q-3 -128 -82 -204.5t-205 -76.5q-124 0 -200 76.5t-79 204.5zM1454 717q0 -209 -86.5 -375t-242.5 -260t-355 -94t-355 94t-242.5 260t-86.5 375t86.5 375t242.5 260t355 94t355 -94t242.5 -260t86.5 -375
zM268 717q0 -249 139.5 -407t362.5 -158t362.5 158t139.5 407t-139.5 407t-362.5 158t-362.5 -158t-139.5 -407z" />
    <glyph glyph-name="obreve" unicode="&#x14f;" horiz-adv-x="1191" 
d="M313 1446h133q0 -68 41 -110t107 -42t108.5 42.5t42.5 109.5h134q-3 -128 -82 -204.5t-205 -76.5q-124 0 -200 76.5t-79 204.5zM596 -12q-229 0 -373.5 148.5t-144.5 385.5t144.5 386t373.5 149t373.5 -149t144.5 -386t-144.5 -385.5t-373.5 -148.5zM596 137
q154 0 250 108t96 277t-96 277t-250 108t-250 -108t-96 -277t96 -277t250 -108z" />
    <glyph glyph-name="Ohungarumlaut" unicode="&#x150;" horiz-adv-x="1540" 
d="M637 1554h-129l174 281h190zM997 1554h-129l174 281h191zM1454 717q0 -209 -86.5 -375t-242.5 -260t-355 -94t-355 94t-242.5 260t-86.5 375t86.5 375t242.5 260t355 94t355 -94t242.5 -260t86.5 -375zM268 717q0 -249 139.5 -407t362.5 -158t362.5 158t139.5 407
t-139.5 407t-362.5 158t-362.5 -158t-139.5 -407z" />
    <glyph glyph-name="ohungarumlaut" unicode="&#x151;" horiz-adv-x="1191" 
d="M463 1165h-129l174 281h190zM823 1165h-129l174 281h191zM596 -12q-229 0 -373.5 148.5t-144.5 385.5t144.5 386t373.5 149t373.5 -149t144.5 -386t-144.5 -385.5t-373.5 -148.5zM596 137q154 0 250 108t96 277t-96 277t-250 108t-250 -108t-96 -277t96 -277t250 -108z
" />
    <glyph glyph-name="OE" unicode="&#x152;" horiz-adv-x="2306" 
d="M1483 647v-483h762v-164h-940v268q-79 -133 -210 -206.5t-309 -73.5q-205 0 -365 94t-247.5 260t-87.5 375t87.5 375t247.5 260t365 94q178 0 309 -74t210 -207v269h913v-164h-735v-459h612v-164h-612zM788 152q218 0 359 141t158 369v110q-17 227 -158.5 368.5
t-358.5 141.5q-233 0 -376.5 -158.5t-143.5 -406.5q0 -249 143.5 -407t376.5 -158z" />
    <glyph glyph-name="oe" unicode="&#x153;" horiz-adv-x="1992" 
d="M1911 489h-811v-14q5 -153 94.5 -245.5t235.5 -92.5q111 0 190.5 56.5t105.5 156.5h170q-31 -160 -153.5 -261t-300.5 -101q-145 0 -255.5 60.5t-172.5 170.5q-65 -109 -174 -170t-244 -61q-230 0 -374 148.5t-144 389.5q0 236 144.5 383.5t373.5 147.5q140 0 250 -61
t174 -171q62 110 165.5 171t233.5 61q221 0 355.5 -133t140.5 -363q0 -22 -4 -72zM1421 909q-119 0 -209 -78t-102 -202h625q-12 133 -96.5 206.5t-217.5 73.5zM596 137q154 0 250 107t96 274q0 172 -95.5 280.5t-250.5 108.5q-154 0 -250 -107t-96 -274q0 -172 95.5 -280.5
t250.5 -108.5z" />
    <glyph glyph-name="Racute" unicode="&#x154;" horiz-adv-x="1251" 
d="M662 1559h-132l175 276h196zM139 0v1434h549q216 0 346.5 -120t130.5 -321q0 -150 -83 -259t-222 -148l322 -586h-201l-303 551h-361v-551h-178zM676 1270h-359v-555h357q141 0 225 76t84 202t-83.5 201.5t-223.5 75.5z" />
    <glyph glyph-name="racute" unicode="&#x155;" horiz-adv-x="675" 
d="M487 1446h197l-240 -277h-131zM260 1044l23 -157q44 72 116 114.5t199 42.5h47v-163h-84q-63 0 -112.5 -20.5t-80 -54t-50.5 -80t-27.5 -94t-7.5 -100.5v-532h-168v1044h145z" />
    <glyph glyph-name="uni0156" unicode="&#x156;" horiz-adv-x="1251" 
d="M139 0v1434h549q216 0 346.5 -120t130.5 -321q0 -150 -83 -259t-222 -148l322 -586h-201l-303 551h-361v-551h-178zM676 1270h-359v-555h357q141 0 225 76t84 202t-83.5 201.5t-223.5 75.5zM438 -397l97 293h167l-143 -293h-121z" />
    <glyph glyph-name="uni0157" unicode="&#x157;" horiz-adv-x="675" 
d="M598 1044h47v-163h-84q-63 0 -112.5 -20.5t-80 -54t-50.5 -80t-27.5 -94t-7.5 -100.5v-532h-168v1044h145l23 -157q44 72 116 114.5t199 42.5zM133 -397h-121l97 293h167z" />
    <glyph glyph-name="Rcaron" unicode="&#x158;" horiz-adv-x="1251" 
d="M416 1835l176 -168l178 168h160l-258 -279h-160l-258 279h162zM139 0v1434h549q216 0 346.5 -120t130.5 -321q0 -150 -83 -259t-222 -148l322 -586h-201l-303 551h-361v-551h-178zM676 1270h-359v-555h357q141 0 225 76t84 202t-83.5 201.5t-223.5 75.5z" />
    <glyph glyph-name="rcaron" unicode="&#x159;" horiz-adv-x="675" 
d="M713 1446l-258 -279h-160l-258 279h162l176 -168l178 168h160zM260 1044l23 -157q44 72 116 114.5t199 42.5h47v-163h-84q-63 0 -112.5 -20.5t-80 -54t-50.5 -80t-27.5 -94t-7.5 -100.5v-532h-168v1044h145z" />
    <glyph glyph-name="Sacute" unicode="&#x15a;" horiz-adv-x="1243" 
d="M694 1559h-131l174 276h197zM82 469h184q11 -145 115 -232t268 -87q148 0 239 64t91 179q0 33 -7.5 60.5t-24 49t-35 38.5t-49 31t-57 24t-68 19.5t-73 15.5t-79.5 14q-79 13 -138.5 29t-125 46t-108 70t-70 103.5t-27.5 144.5q0 183 135 295.5t354 112.5
q236 0 378.5 -119.5t154.5 -316.5h-185q-15 125 -108.5 199.5t-239.5 74.5q-143 0 -227 -61t-84 -174q0 -36 11 -66t27.5 -51t47.5 -39.5t58.5 -30t74 -23t80.5 -18t90 -16.5q79 -13 139.5 -29t126.5 -46.5t108.5 -71t70.5 -104t28 -144.5q0 -186 -142 -304t-368 -118
q-258 0 -407.5 132t-157.5 349z" />
    <glyph glyph-name="sacute" unicode="&#x15b;" horiz-adv-x="1021" 
d="M573 1169h-131l174 277h197zM72 344h172q5 -94 82.5 -153.5t205.5 -59.5q111 0 181.5 44t70.5 116q0 38 -15 65t-31.5 41.5t-60.5 26t-67.5 15.5t-88.5 11q-5 1 -7 1q-65 8 -112.5 17t-99 23.5t-86.5 35.5t-64.5 50t-43.5 71t-14 95q0 141 115.5 228.5t294.5 85.5
q184 -2 299 -86.5t127 -243.5h-172q-9 81 -79 133.5t-175 52.5q-110 0 -177 -42.5t-67 -114.5q0 -28 8 -49.5t27 -36.5t38 -24.5t54.5 -17t61 -11t73.5 -9.5q57 -7 99 -14t89.5 -19t80.5 -26.5t65 -37.5t51.5 -51.5t31 -68t11.5 -88.5q0 -143 -120 -229t-298 -86
q-207 0 -332 93.5t-128 262.5z" />
    <glyph glyph-name="Scircumflex" unicode="&#x15c;" horiz-adv-x="1243" 
d="M801 1556l-176 168l-179 -168h-159l258 279h160l258 -279h-162zM82 469h184q11 -145 115 -232t268 -87q148 0 239 64t91 179q0 33 -7.5 60.5t-24 49t-35 38.5t-49 31t-57 24t-68 19.5t-73 15.5t-79.5 14q-79 13 -138.5 29t-125 46t-108 70t-70 103.5t-27.5 144.5
q0 183 135 295.5t354 112.5q236 0 378.5 -119.5t154.5 -316.5h-185q-15 125 -108.5 199.5t-239.5 74.5q-143 0 -227 -61t-84 -174q0 -36 11 -66t27.5 -51t47.5 -39.5t58.5 -30t74 -23t80.5 -18t90 -16.5q79 -13 139.5 -29t126.5 -46.5t108.5 -71t70.5 -104t28 -144.5
q0 -186 -142 -304t-368 -118q-258 0 -407.5 132t-157.5 349z" />
    <glyph glyph-name="scircumflex" unicode="&#x15d;" horiz-adv-x="1021" 
d="M680 1167l-176 168l-178 -168h-160l258 279h160l258 -279h-162zM72 344h172q5 -94 82.5 -153.5t205.5 -59.5q111 0 181.5 44t70.5 116q0 38 -15 65t-31.5 41.5t-60.5 26t-67.5 15.5t-88.5 11q-5 1 -7 1q-65 8 -112.5 17t-99 23.5t-86.5 35.5t-64.5 50t-43.5 71t-14 95
q0 141 115.5 228.5t294.5 85.5q184 -2 299 -86.5t127 -243.5h-172q-9 81 -79 133.5t-175 52.5q-110 0 -177 -42.5t-67 -114.5q0 -28 8 -49.5t27 -36.5t38 -24.5t54.5 -17t61 -11t73.5 -9.5q57 -7 99 -14t89.5 -19t80.5 -26.5t65 -37.5t51.5 -51.5t31 -68t11.5 -88.5
q0 -143 -120 -229t-298 -86q-207 0 -332 93.5t-128 262.5z" />
    <glyph glyph-name="Scedilla" unicode="&#x15e;" horiz-adv-x="1243" 
d="M1157 410q0 -180 -132 -296.5t-345 -125.5l-21 -74h15q80 0 132 -40t52 -112q0 -78 -51.5 -125t-136.5 -47h-185v103h164q80 0 80 63q0 60 -80 60h-112l43 174q-228 18 -359 148t-139 331h184q11 -145 115 -232t268 -87q148 0 239 64t91 179q0 33 -7.5 60.5t-24 49
t-35 38.5t-49 31t-57 24t-68 19.5t-73 15.5t-79.5 14q-79 13 -138.5 29t-125 46t-108 70t-70 103.5t-27.5 144.5q0 183 135 295.5t354 112.5q236 0 378.5 -119.5t154.5 -316.5h-185q-15 125 -108.5 199.5t-239.5 74.5q-143 0 -227 -61t-84 -174q0 -36 11 -66t27.5 -51
t47.5 -39.5t58.5 -30t74 -23t80.5 -18t90 -16.5q79 -13 139.5 -29t126.5 -46.5t108.5 -71t70.5 -104t28 -144.5z" />
    <glyph glyph-name="scedilla" unicode="&#x15f;" horiz-adv-x="1021" 
d="M950 303q0 -135 -107 -219.5t-272 -93.5l-20 -76h14q80 0 132.5 -40t52.5 -112q0 -78 -52 -125t-137 -47h-184v103h164q80 0 80 63q0 60 -80 60h-113l43 174q-182 14 -289 106t-110 248h172q5 -94 82.5 -153.5t205.5 -59.5q111 0 181.5 44t70.5 116q0 38 -15 65
t-31.5 41.5t-60.5 26t-67.5 15.5t-88.5 11q-5 1 -7 1q-65 8 -112.5 17t-99 23.5t-86.5 35.5t-64.5 50t-43.5 71t-14 95q0 141 115.5 228.5t294.5 85.5q184 -2 299 -86.5t127 -243.5h-172q-9 81 -79 133.5t-175 52.5q-110 0 -177 -42.5t-67 -114.5q0 -28 8 -49.5t27 -36.5
t38 -24.5t54.5 -17t61 -11t73.5 -9.5q57 -7 99 -14t89.5 -19t80.5 -26.5t65 -37.5t51.5 -51.5t31 -68t11.5 -88.5z" />
    <glyph glyph-name="Scaron" unicode="&#x160;" horiz-adv-x="1243" 
d="M449 1835l176 -168l178 168h160l-258 -279h-160l-258 279h162zM82 469h184q11 -145 115 -232t268 -87q148 0 239 64t91 179q0 33 -7.5 60.5t-24 49t-35 38.5t-49 31t-57 24t-68 19.5t-73 15.5t-79.5 14q-79 13 -138.5 29t-125 46t-108 70t-70 103.5t-27.5 144.5
q0 183 135 295.5t354 112.5q236 0 378.5 -119.5t154.5 -316.5h-185q-15 125 -108.5 199.5t-239.5 74.5q-143 0 -227 -61t-84 -174q0 -36 11 -66t27.5 -51t47.5 -39.5t58.5 -30t74 -23t80.5 -18t90 -16.5q79 -13 139.5 -29t126.5 -46.5t108.5 -71t70.5 -104t28 -144.5
q0 -186 -142 -304t-368 -118q-258 0 -407.5 132t-157.5 349z" />
    <glyph glyph-name="scaron" unicode="&#x161;" horiz-adv-x="1021" 
d="M328 1446l176 -168l178 168h160l-258 -279h-160l-258 279h162zM72 344h172q5 -94 82.5 -153.5t205.5 -59.5q111 0 181.5 44t70.5 116q0 38 -15 65t-31.5 41.5t-60.5 26t-67.5 15.5t-88.5 11q-5 1 -7 1q-65 8 -112.5 17t-99 23.5t-86.5 35.5t-64.5 50t-43.5 71t-14 95
q0 141 115.5 228.5t294.5 85.5q184 -2 299 -86.5t127 -243.5h-172q-9 81 -79 133.5t-175 52.5q-110 0 -177 -42.5t-67 -114.5q0 -28 8 -49.5t27 -36.5t38 -24.5t54.5 -17t61 -11t73.5 -9.5q57 -7 99 -14t89.5 -19t80.5 -26.5t65 -37.5t51.5 -51.5t31 -68t11.5 -88.5
q0 -143 -120 -229t-298 -86q-207 0 -332 93.5t-128 262.5z" />
    <glyph glyph-name="uni0162" unicode="&#x162;" horiz-adv-x="1189" 
d="M684 1270v-1270h-39l-22 -86h14q80 0 132 -40t52 -112q0 -78 -51.5 -125t-136.5 -47h-184v103h163q80 0 80 63q0 60 -80 60h-112l45 184h-39v1270h-465v164h1108v-164h-465z" />
    <glyph glyph-name="uni0163" unicode="&#x163;" horiz-adv-x="677" 
d="M647 154v-154h-176l-22 -86h14q80 0 132 -40t52 -112q0 -78 -51.5 -125t-136.5 -47h-185v103h164q80 0 80 63q0 60 -80 60h-112l47 192q-96 18 -138 82.5t-42 181.5v619h-189v153h189v293h167v-293h271v-153h-271v-617q0 -66 27 -93t94 -27h166z" />
    <glyph glyph-name="Tcaron" unicode="&#x164;" horiz-adv-x="1189" 
d="M424 1835l176 -168l178 168h160l-258 -279h-160l-258 279h162zM41 1270v164h1108v-164h-465v-1270h-178v1270h-465z" />
    <glyph glyph-name="tcaron" unicode="&#x165;" horiz-adv-x="677" 
d="M461 1161l82 299h157l-118 -299h-121zM193 272v619h-189v153h189v293h167v-293h271v-153h-271v-617q0 -66 27 -93t94 -27h166v-154h-182q-148 0 -210 65.5t-62 206.5z" />
    <glyph glyph-name="Tbar" unicode="&#x166;" horiz-adv-x="1210" 
d="M1149 1434v-164h-465v-500h252v-152h-252v-618h-178v618h-232v152h232v500h-465v164h1108z" />
    <glyph glyph-name="tbar" unicode="&#x167;" horiz-adv-x="700" 
d="M481 154h166v-154h-182q-148 0 -210 65.5t-62 206.5v230h-189v143h189v246h-189v153h189v293h167v-293h265v-153h-265v-246h265v-143h-265v-228q0 -66 27 -93t94 -27z" />
    <glyph glyph-name="Utilde" unicode="&#x168;" horiz-adv-x="1355" 
d="M565 1708q-35 0 -52 -28.5t-17 -71.5h-115v24q0 82 50 138.5t130 56.5q46 0 82.5 -16.5t55 -36t43 -36t49.5 -16.5q34 0 50.5 28.5t16.5 72.5h115v-25q0 -83 -50 -138.5t-128 -55.5q-39 0 -70 10.5t-49.5 26t-35 31t-35 26t-40.5 10.5zM131 612v822h178v-832
q0 -450 367 -450q371 0 371 450v832h178v-822q0 -307 -140 -465.5t-409 -158.5t-407 158.5t-138 465.5z" />
    <glyph glyph-name="utilde" unicode="&#x169;" horiz-adv-x="1128" 
d="M444 1319q-35 0 -52 -28.5t-17 -71.5h-115v24q0 82 50 138.5t130 56.5q46 0 82.5 -16.5t55 -36t43 -36t49.5 -16.5q34 0 50.5 28.5t16.5 72.5h115v-25q0 -83 -50 -139t-128 -56q-48 0 -84 16.5t-54 36t-42 36t-50 16.5zM846 522v522h168v-1044h-146l-22 139
q-118 -151 -334 -151q-89 0 -161.5 26t-130 81t-89 148.5t-31.5 219.5v581h168v-571q0 -162 71 -247t202 -85q142 0 223.5 102t81.5 279z" />
    <glyph glyph-name="Umacron" unicode="&#x16a;" horiz-adv-x="1355" 
d="M961 1645h-564v127h564v-127zM131 612v822h178v-832q0 -450 367 -450q371 0 371 450v832h178v-822q0 -307 -140 -465.5t-409 -158.5t-407 158.5t-138 465.5z" />
    <glyph glyph-name="umacron" unicode="&#x16b;" horiz-adv-x="1128" 
d="M276 1382h564v-127h-564v127zM846 522v522h168v-1044h-146l-22 139q-118 -151 -334 -151q-89 0 -161.5 26t-130 81t-89 148.5t-31.5 219.5v581h168v-571q0 -162 71 -247t202 -85q142 0 223.5 102t81.5 279z" />
    <glyph glyph-name="Ubreve" unicode="&#x16c;" horiz-adv-x="1355" 
d="M395 1835h133q0 -68 41 -110t107 -42t108.5 42.5t42.5 109.5h134q-3 -128 -82 -204.5t-205 -76.5q-124 0 -200 76.5t-79 204.5zM131 612v822h178v-832q0 -450 367 -450q371 0 371 450v832h178v-822q0 -307 -140 -465.5t-409 -158.5t-407 158.5t-138 465.5z" />
    <glyph glyph-name="ubreve" unicode="&#x16d;" horiz-adv-x="1128" 
d="M553 1165q-123 0 -199.5 76.5t-79.5 204.5h134q0 -68 40.5 -110t106.5 -42t109 42.5t43 109.5h133q-3 -128 -82 -204.5t-205 -76.5zM846 522v522h168v-1044h-146l-22 139q-118 -151 -334 -151q-89 0 -161.5 26t-130 81t-89 148.5t-31.5 219.5v581h168v-571
q0 -162 71 -247t202 -85q142 0 223.5 102t81.5 279z" />
    <glyph glyph-name="Uring" unicode="&#x16e;" horiz-adv-x="1355" 
d="M440 1595q0 94 69.5 161t168.5 67t168 -67t69 -161q0 -96 -69 -162.5t-168 -66.5q-100 0 -169 67t-69 162zM807 1595q0 57 -37.5 94t-91.5 37t-91.5 -37t-37.5 -94q0 -58 37 -95.5t92 -37.5t92 37.5t37 95.5zM131 612v822h178v-832q0 -450 367 -450q371 0 371 450v832
h178v-822q0 -307 -140 -465.5t-409 -158.5t-407 158.5t-138 465.5z" />
    <glyph glyph-name="uring" unicode="&#x16f;" horiz-adv-x="1128" 
d="M557 1141q-100 0 -169 67t-69 162q0 94 69.5 160.5t168.5 66.5t168.5 -66.5t69.5 -160.5q0 -95 -69 -162t-169 -67zM557 1501q-55 0 -92 -37.5t-37 -93.5q0 -58 37 -95.5t92 -37.5t92 37.5t37 95.5q0 56 -37 93.5t-92 37.5zM846 522v522h168v-1044h-146l-22 139
q-118 -151 -334 -151q-89 0 -161.5 26t-130 81t-89 148.5t-31.5 219.5v581h168v-571q0 -162 71 -247t202 -85q142 0 223.5 102t81.5 279z" />
    <glyph glyph-name="Uhungarumlaut" unicode="&#x170;" horiz-adv-x="1355" 
d="M545 1554h-129l174 281h190zM905 1554h-129l174 281h191zM131 612v822h178v-832q0 -450 367 -450q371 0 371 450v832h178v-822q0 -307 -140 -465.5t-409 -158.5t-407 158.5t-138 465.5z" />
    <glyph glyph-name="uhungarumlaut" unicode="&#x171;" horiz-adv-x="1128" 
d="M469 1446h190l-235 -281h-129zM1020 1446l-236 -281h-129l174 281h191zM846 522v522h168v-1044h-146l-22 139q-118 -151 -334 -151q-89 0 -161.5 26t-130 81t-89 148.5t-31.5 219.5v581h168v-571q0 -162 71 -247t202 -85q142 0 223.5 102t81.5 279z" />
    <glyph glyph-name="Uogonek" unicode="&#x172;" horiz-adv-x="1355" 
d="M967 -410h-160q-93 0 -150 46.5t-57 127.5q0 117 107 224h-31q-269 0 -407 158.5t-138 465.5v822h178v-832q0 -450 367 -450q371 0 371 450v832h178v-822q0 -206 -69.5 -341.5t-201.5 -227.5q-106 -74 -159.5 -131.5t-53.5 -122.5q0 -37 24.5 -56.5t70.5 -19.5h131v-123z
" />
    <glyph glyph-name="uogonek" unicode="&#x173;" horiz-adv-x="1128" 
d="M895 -287h131v-123h-160q-93 0 -150 46.5t-57 127.5q0 77 52.5 139t150.5 130l-16 106q-118 -151 -334 -151q-89 0 -161.5 26t-130 81t-89 148.5t-31.5 219.5v581h168v-571q0 -162 71 -247t202 -85q142 0 223.5 102t81.5 279v522h168v-1044q-103 -56 -158 -106t-55 -105
q0 -76 94 -76z" />
    <glyph glyph-name="Wcircumflex" unicode="&#x174;" horiz-adv-x="1982" 
d="M1169 1556l-176 168l-178 -168h-160l258 279h160l258 -279h-162zM451 0l-418 1434h186l336 -1205l352 1205h180l340 -1205l338 1205h185l-420 -1434h-213l-328 1137l-325 -1137h-213z" />
    <glyph glyph-name="wcircumflex" unicode="&#x175;" horiz-adv-x="1601" 
d="M981 1167l-176 168l-178 -168h-160l258 279h160l258 -279h-162zM354 0l-338 1044h177l260 -849l274 849h156l260 -849l272 849h170l-348 -1044h-184l-252 776l-262 -776h-185z" />
    <glyph glyph-name="Ycircumflex" unicode="&#x176;" horiz-adv-x="1296" 
d="M825 1556l-176 168l-178 -168h-160l258 279h160l258 -279h-162zM559 530l-541 904h209l422 -711l428 711h201l-541 -904v-530h-178v530z" />
    <glyph glyph-name="ycircumflex" unicode="&#x177;" horiz-adv-x="1009" 
d="M678 1167l-176 168l-178 -168h-160l258 279h160l258 -279h-162zM418 -6l-408 1050h178l322 -833l311 833h178l-481 -1220q-28 -71 -47 -109t-48 -70t-65.5 -43.5t-91.5 -11.5h-200v154h149q48 0 74.5 11.5t41 34.5t36.5 77z" />
    <glyph glyph-name="Ydieresis" unicode="&#x178;" horiz-adv-x="1296" 
d="M356 1702q0 46 30.5 76t76.5 30q47 0 77.5 -30t30.5 -76q0 -45 -30.5 -75t-77.5 -30q-46 0 -76.5 30.5t-30.5 74.5zM727 1702q0 45 32 75.5t77 30.5q46 0 76 -30t30 -76q0 -44 -30 -74.5t-76 -30.5q-45 0 -77 30.5t-32 74.5zM559 530l-541 904h209l422 -711l428 711h201
l-541 -904v-530h-178v530z" />
    <glyph glyph-name="Zacute" unicode="&#x179;" horiz-adv-x="1224" 
d="M686 1559h-131l174 276h197zM78 1270v164h1069v-129l-856 -1141h883v-164h-1123v129l856 1141h-829z" />
    <glyph glyph-name="zacute" unicode="&#x17a;" horiz-adv-x="974" 
d="M561 1169h-131l174 277h197zM72 891v153h831v-126l-635 -764h662v-154h-885v127l633 764h-606z" />
    <glyph glyph-name="Zdotaccent" unicode="&#x17b;" horiz-adv-x="1224" 
d="M616 1610q-46 0 -77 30.5t-31 77.5t31 78t77 31t77.5 -31t31.5 -78t-31.5 -77.5t-77.5 -30.5zM78 1270v164h1069v-129l-856 -1141h883v-164h-1123v129l856 1141h-829z" />
    <glyph glyph-name="zdotaccent" unicode="&#x17c;" horiz-adv-x="974" 
d="M492 1221q-46 0 -77.5 30.5t-31.5 77.5t31.5 78t77.5 31t77 -31t31 -78t-31 -77.5t-77 -30.5zM72 891v153h831v-126l-635 -764h662v-154h-885v127l633 764h-606z" />
    <glyph glyph-name="Zcaron" unicode="&#x17d;" horiz-adv-x="1224" 
d="M440 1835l176 -168l179 168h159l-258 -279h-159l-258 279h161zM78 1270v164h1069v-129l-856 -1141h883v-164h-1123v129l856 1141h-829z" />
    <glyph glyph-name="zcaron" unicode="&#x17e;" horiz-adv-x="974" 
d="M315 1446l177 -168l178 168h159l-258 -279h-159l-258 279h161zM72 891v153h831v-126l-635 -764h662v-154h-885v127l633 764h-606z" />
    <glyph glyph-name="florin" unicode="&#x192;" horiz-adv-x="989" 
d="M946 1280h-178q-69 0 -103 -32t-40 -101l-33 -383h248v-154h-262l-50 -583q-21 -244 -282 -244h-203v154h178q69 0 103.5 32t40.5 101l47 540h-238v154h250l37 426q21 244 280 244h205v-154z" />
    <glyph glyph-name="AEacute" unicode="&#x1fc;" horiz-adv-x="1961" 
d="M1210 1835h197l-240 -276h-131zM1139 647v-483h762v-164h-940v362h-545l-228 -362h-186l868 1434h1004v-164h-735v-459h612v-164h-612zM961 1282l-463 -764h463v764z" />
    <glyph glyph-name="aeacute" unicode="&#x1fd;" horiz-adv-x="1849" 
d="M1040 1434h197l-240 -277h-131zM1767 489h-811v-14q5 -153 94.5 -245.5t235.5 -92.5q111 0 191 56.5t106 156.5h170q-31 -160 -154 -261t-301 -101q-137 0 -242.5 59.5t-168.5 167.5q-59 -104 -167 -165.5t-249 -61.5q-179 0 -287 82t-108 223q0 157 107.5 241t312.5 84
h307v72q0 102 -68.5 159.5t-191.5 57.5q-109 0 -180.5 -48t-86.5 -128h-167q19 154 136 240t306 86q268 0 358 -185q62 89 156.5 137t210.5 48q218 0 354 -133.5t142 -362.5q0 -9 -5 -72zM1278 909q-119 0 -209 -78t-102 -202h630q-12 132 -99 206t-220 74zM803 426v51h-324
q-233 0 -233 -174q0 -77 62 -124.5t165 -47.5q154 0 242 81t88 214z" />
    <glyph glyph-name="uni0218" unicode="&#x218;" horiz-adv-x="1243" 
d="M82 469h184q11 -145 115 -232t268 -87q148 0 239 64t91 179q0 33 -7.5 60.5t-24 49t-35 38.5t-49 31t-57 24t-68 19.5t-73 15.5t-79.5 14q-79 13 -138.5 29t-125 46t-108 70t-70 103.5t-27.5 144.5q0 183 135 295.5t354 112.5q236 0 378.5 -119.5t154.5 -316.5h-185
q-15 125 -108.5 199.5t-239.5 74.5q-143 0 -227 -61t-84 -174q0 -36 11 -66t27.5 -51t47.5 -39.5t58.5 -30t74 -23t80.5 -18t90 -16.5q79 -13 139.5 -29t126.5 -46.5t108.5 -71t70.5 -104t28 -144.5q0 -186 -142 -304t-368 -118q-258 0 -407.5 132t-157.5 349zM446 -397
l97 293h168l-144 -293h-121z" />
    <glyph glyph-name="uni0219" unicode="&#x219;" horiz-adv-x="1021" 
d="M72 344h172q5 -94 82.5 -153.5t205.5 -59.5q111 0 181.5 44t70.5 116q0 38 -15 65t-31.5 41.5t-60.5 26t-67.5 15.5t-88.5 11q-5 1 -7 1q-65 8 -112.5 17t-99 23.5t-86.5 35.5t-64.5 50t-43.5 71t-14 95q0 141 115.5 228.5t294.5 85.5q184 -2 299 -86.5t127 -243.5h-172
q-9 81 -79 133.5t-175 52.5q-110 0 -177 -42.5t-67 -114.5q0 -28 8 -49.5t27 -36.5t38 -24.5t54.5 -17t61 -11t73.5 -9.5q57 -7 99 -14t89.5 -19t80.5 -26.5t65 -37.5t51.5 -51.5t31 -68t11.5 -88.5q0 -143 -120 -229t-298 -86q-207 0 -332 93.5t-128 262.5zM338 -397
l96 293h168l-143 -293h-121z" />
    <glyph glyph-name="uni021A" unicode="&#x21a;" horiz-adv-x="1189" 
d="M41 1270v164h1108v-164h-465v-1270h-178v1270h-465zM410 -397l96 293h168l-144 -293h-120z" />
    <glyph glyph-name="uni021B" unicode="&#x21b;" horiz-adv-x="677" 
d="M193 272v619h-189v153h189v293h167v-293h271v-153h-271v-617q0 -66 27 -93t94 -27h166v-154h-182q-148 0 -210 65.5t-62 206.5zM236 -397l96 293h168l-144 -293h-120z" />
    <glyph glyph-name="uni0237" unicode="&#x237;" horiz-adv-x="409" 
d="M-119 -410v154h131q62 0 88.5 27t26.5 88v1185h168v-1181q0 -140 -64 -206.5t-208 -66.5h-142z" />
    <glyph glyph-name="uni02BC" unicode="&#x2bc;" horiz-adv-x="692" 
d="M227 1135l82 299h158l-119 -299h-121z" />
    <glyph glyph-name="circumflex" unicode="&#x2c6;" horiz-adv-x="819" 
d="M586 1155l-176 168l-179 -168h-159l258 279h159l259 -279h-162z" />
    <glyph glyph-name="caron" unicode="&#x2c7;" horiz-adv-x="819" 
d="M233 1434l177 -168l178 168h160l-259 -279h-159l-258 279h161z" />
    <glyph glyph-name="breve" unicode="&#x2d8;" horiz-adv-x="819" 
d="M127 1434h133q0 -68 41 -110t107 -42t108.5 42.5t42.5 109.5h133q-3 -128 -82 -204.5t-204 -76.5q-124 0 -200 76.5t-79 204.5z" />
    <glyph glyph-name="dotaccent" unicode="&#x2d9;" horiz-adv-x="819" 
d="M410 1208q-46 0 -77.5 31t-31.5 78t31.5 77.5t77.5 30.5t77 -30.5t31 -77.5t-31 -78t-77 -31z" />
    <glyph glyph-name="ring" unicode="&#x2da;" horiz-adv-x="819" 
d="M172 1358q0 94 69.5 160.5t168.5 66.5t168 -66.5t69 -160.5q0 -96 -69 -163t-168 -67t-168.5 67t-69.5 163zM539 1358q0 56 -37.5 93.5t-91.5 37.5t-91.5 -37.5t-37.5 -93.5q0 -58 37 -95.5t92 -37.5t92 37.5t37 95.5z" />
    <glyph glyph-name="ogonek" unicode="&#x2db;" horiz-adv-x="819" 
d="M55 -236q0 78 54.5 141.5t156.5 133.5l144 -39q-103 -56 -158 -106t-55 -105q0 -76 94 -76h131v-123h-160q-93 0 -150 46.5t-57 127.5z" />
    <glyph glyph-name="tilde" unicode="&#x2dc;" horiz-adv-x="819" 
d="M297 1307q-35 0 -52.5 -29t-17.5 -72h-114v25q0 82 50 138t130 56q46 0 82.5 -16.5t54.5 -35.5t42.5 -35.5t49.5 -16.5q35 0 51.5 28.5t16.5 71.5h115v-24q0 -83 -50.5 -139t-128.5 -56q-48 0 -84 16.5t-53.5 36t-41.5 36t-50 16.5z" />
    <glyph glyph-name="hungarumlaut" unicode="&#x2dd;" horiz-adv-x="827" 
d="M276 1153h-129l175 281h190zM637 1153h-129l174 281h190z" />
    <glyph glyph-name="gravecomb" unicode="&#x300;" horiz-adv-x="0" 
d="M-479 1155l-234 279h197l170 -279h-133z" />
    <glyph glyph-name="acutecomb" unicode="&#x301;" horiz-adv-x="0" 
d="M-340 1157h-131l174 277h197z" />
    <glyph glyph-name="uni0302" unicode="&#x302;" horiz-adv-x="0" 
d="M-233 1155l-177 168l-178 -168h-160l259 279h159l258 -279h-161z" />
    <glyph glyph-name="tildecomb" unicode="&#x303;" horiz-adv-x="0" 
d="M-522 1307q-35 0 -52.5 -29t-17.5 -72h-115v25q0 81 50.5 137.5t130.5 56.5q46 0 82.5 -16.5t54.5 -35.5t42.5 -35.5t49.5 -16.5q35 0 51.5 28.5t16.5 71.5h114v-24q0 -83 -50 -139t-128 -56q-48 0 -84 16.5t-53.5 36t-41.5 36t-50 16.5z" />
    <glyph glyph-name="uni0304" unicode="&#x304;" horiz-adv-x="0" 
d="M-127 1243h-563v127h563v-127z" />
    <glyph glyph-name="uni0306" unicode="&#x306;" horiz-adv-x="0" 
d="M-692 1434h133q0 -68 40.5 -110t106.5 -42t109 42.5t43 109.5h133q-3 -128 -82 -204.5t-205 -76.5q-123 0 -199 76t-79 205z" />
    <glyph glyph-name="uni0307" unicode="&#x307;" horiz-adv-x="0" 
d="M-410 1208q-46 0 -77 31t-31 78t31 77.5t77 30.5t77.5 -30.5t31.5 -77.5t-31.5 -78t-77.5 -31z" />
    <glyph glyph-name="uni0308" unicode="&#x308;" horiz-adv-x="0" 
d="M-702 1300q0 46 30 76.5t76 30.5q47 0 78 -30.5t31 -76.5q0 -44 -31 -74t-78 -30q-46 0 -76 30t-30 74zM-332 1300q0 45 32 76t77 31q46 0 76 -30.5t30 -76.5q0 -44 -30 -74t-76 -30q-45 0 -77 30t-32 74z" />
    <glyph glyph-name="uni030A" unicode="&#x30a;" horiz-adv-x="0" 
d="M-647 1358q0 94 69 160.5t168 66.5t168.5 -66.5t69.5 -160.5q0 -96 -69.5 -163t-168.5 -67t-168 67t-69 163zM-281 1358q0 56 -37.5 93.5t-91.5 37.5t-91.5 -37.5t-37.5 -93.5q0 -58 37 -95.5t92 -37.5t92 37.5t37 95.5z" />
    <glyph glyph-name="uni030B" unicode="&#x30b;" horiz-adv-x="0" 
d="M-543 1153h-129l174 281h191zM-182 1153h-129l174 281h190z" />
    <glyph glyph-name="uni030C" unicode="&#x30c;" horiz-adv-x="0" 
d="M-586 1434l176 -168l179 168h159l-258 -279h-159l-259 279h162z" />
    <glyph glyph-name="uni0312" unicode="&#x312;" horiz-adv-x="0" 
d="M-244 1434l-100 -293h-164l135 293h129z" />
    <glyph glyph-name="uni0326" unicode="&#x326;" horiz-adv-x="0" 
d="M-596 -397l96 293h168l-143 -293h-121z" />
    <glyph glyph-name="uni0327" unicode="&#x327;" horiz-adv-x="0" 
d="M-500 -184l54 221h102l-33 -123h15q80 0 132 -40t52 -112q0 -78 -52 -125t-137 -47h-184v103h164q80 0 80 63q0 60 -80 60h-113z" />
    <glyph glyph-name="uni0328" unicode="&#x328;" horiz-adv-x="0" 
d="M-764 -236q0 78 54.5 141.5t156.5 133.5l143 -39q-103 -56 -158 -106t-55 -105q0 -37 24.5 -56.5t70.5 -19.5h131v-123h-160q-93 0 -150 46.5t-57 127.5z" />
    <glyph glyph-name="uni0374" unicode="&#x374;" horiz-adv-x="393" 
d="M203 1022h-115l78 412h180z" />
    <glyph glyph-name="uni0375" unicode="&#x375;" horiz-adv-x="393" 
d="M164 2h115l-78 -412h-181z" />
    <glyph glyph-name="uni037E" unicode="&#x37e;" horiz-adv-x="421" 
d="M88 870q0 52 32.5 83.5t84.5 31.5t84.5 -31.5t32.5 -83.5t-32.5 -83t-84.5 -31t-84.5 31t-32.5 83zM190 215q73 0 117.5 -60.5t44.5 -148.5q0 -130 -77 -204.5t-212 -77.5v96q89 1 131 51t42 113q0 14 -3 26q-24 -24 -69 -24q-48 0 -78.5 28.5t-30.5 81.5q0 52 36 85.5
t99 33.5z" />
    <glyph glyph-name="tonos" unicode="&#x384;" horiz-adv-x="819" 
d="M475 1157h-117l78 293h182z" />
    <glyph glyph-name="dieresistonos" unicode="&#x385;" horiz-adv-x="1210" 
d="M588 1161h-111l6 312h166zM211 1300q0 44 28.5 73.5t71.5 29.5q46 0 75.5 -29.5t29.5 -73.5q0 -43 -29.5 -71.5t-75.5 -28.5q-43 0 -71.5 28.5t-28.5 71.5zM674 1300q0 44 30.5 73.5t73.5 29.5t72 -29.5t29 -73.5q0 -43 -29 -71.5t-72 -28.5t-73.5 29t-30.5 71z" />
    <glyph glyph-name="Alphatonos" unicode="&#x386;" horiz-adv-x="1347" 
d="M207 0h-184l546 1434h211l545 -1434h-190l-152 387h-625zM236 1141h-117l78 293h182zM670 1239l-258 -690h518z" />
    <glyph glyph-name="anoteleia" unicode="&#x387;" horiz-adv-x="421" 
d="M94 584q0 52 32.5 83t84.5 31t84.5 -31t32.5 -83t-32.5 -83.5t-84.5 -31.5t-84.5 31.5t-32.5 83.5z" />
    <glyph glyph-name="Epsilontonos" unicode="&#x388;" horiz-adv-x="1284" 
d="M61 1141h-116l78 293h182zM283 0v1434h913v-164h-735v-459h612v-164h-612v-483h762v-164h-940z" />
    <glyph glyph-name="Etatonos" unicode="&#x389;" horiz-adv-x="1519" 
d="M61 1141h-116l78 293h182zM283 0v1434h178v-623h741v623h178v-1434h-178v647h-741v-647h-178z" />
    <glyph glyph-name="Iotatonos" unicode="&#x38a;" horiz-adv-x="600" 
d="M61 1141h-116l78 293h182zM283 0v1434h178v-1434h-178z" />
    <glyph glyph-name="Omicrontonos" unicode="&#x38c;" horiz-adv-x="1560" 
d="M1475 717q0 -209 -86.5 -375t-242.5 -260t-355 -94t-355.5 94t-243 260t-86.5 375t86.5 375t243 260t355.5 94t355 -94t242.5 -260t86.5 -375zM84 1141h-117l78 293h182zM289 717q0 -249 139.5 -407t362.5 -158t362 158t139 407t-139 407t-362 158t-362.5 -158
t-139.5 -407z" />
    <glyph glyph-name="Upsilontonos" unicode="&#x38e;" horiz-adv-x="1460" 
d="M23 1141h-117l78 293h182zM723 530l-541 904h209l422 -711l428 711h201l-541 -904v-530h-178v530z" />
    <glyph glyph-name="Omegatonos" unicode="&#x38f;" horiz-adv-x="1566" 
d="M668 0h-514v164h366v45q-192 82 -278 228t-86 356q0 188 84.5 337t235 232.5t339.5 83.5q141 0 263 -49t209 -134.5t136.5 -207t49.5 -262.5q0 -431 -363 -584v-45h363v-164h-515v289q182 78 257 196.5t75 307.5q0 218 -134 353.5t-343 135.5q-207 0 -341 -135.5
t-134 -353.5q0 -190 74 -308t256 -198v-287zM96 1141h-116l77 293h183z" />
    <glyph glyph-name="iotadieresistonos" unicode="&#x390;" horiz-adv-x="520" 
d="M248 1174h-111l6 311h166zM-129 1313q0 44 28.5 73t71.5 29q46 0 75.5 -29t29.5 -73q0 -43 -30 -72t-75 -29q-43 0 -71.5 29t-28.5 72zM334 1313q0 44 30.5 73t73.5 29t72 -29t29 -73q0 -43 -29 -72t-72 -29t-73.5 29.5t-30.5 71.5zM502 0h-121q-148 0 -210 65.5
t-62 206.5v772h167v-770q0 -66 27 -93t94 -27h105v-154z" />
    <glyph glyph-name="Alpha" unicode="&#x391;" horiz-adv-x="1347" 
d="M207 0h-184l546 1434h211l545 -1434h-190l-152 387h-625zM670 1239l-258 -690h518z" />
    <glyph glyph-name="Beta" unicode="&#x392;" horiz-adv-x="1265" 
d="M139 0v1434h508q226 0 350.5 -101.5t124.5 -277.5q0 -119 -59.5 -197t-165.5 -115q126 -24 205.5 -106t79.5 -227q0 -193 -134 -301.5t-386 -108.5h-523zM655 1272h-338v-461h338q138 0 213.5 61t75.5 170q0 108 -75.5 169t-213.5 61zM662 651h-345v-489h345
q163 0 250 63.5t87 175.5q0 121 -88 185.5t-249 64.5z" />
    <glyph glyph-name="Gamma" unicode="&#x393;" horiz-adv-x="1044" 
d="M317 0h-178v1434h865v-164h-687v-1270z" />
    <glyph glyph-name="uni0394" unicode="&#x394;" horiz-adv-x="1390" 
d="M1339 0h-1288v129l539 1305h211l538 -1305v-129zM688 1253l-434 -1089h879z" />
    <glyph glyph-name="Epsilon" unicode="&#x395;" horiz-adv-x="1140" 
d="M139 0v1434h914v-164h-736v-459h613v-164h-613v-483h762v-164h-940z" />
    <glyph glyph-name="Zeta" unicode="&#x396;" horiz-adv-x="1224" 
d="M78 1270v164h1069v-129l-856 -1141h883v-164h-1123v129l856 1141h-829z" />
    <glyph glyph-name="Eta" unicode="&#x397;" horiz-adv-x="1376" 
d="M139 0v1434h178v-623h742v623h178v-1434h-178v647h-742v-647h-178z" />
    <glyph glyph-name="Theta" unicode="&#x398;" horiz-adv-x="1540" 
d="M770 -12q-199 0 -355 94t-242.5 260t-86.5 375t86.5 375t242.5 260t355 94t355 -94t242.5 -260t86.5 -375t-86.5 -375t-242.5 -260t-355 -94zM770 152q223 0 362.5 158t139.5 407t-139.5 407t-362.5 158t-362.5 -158t-139.5 -407t139.5 -407t362.5 -158zM1087 639h-634
v164h634v-164z" />
    <glyph glyph-name="Iota" unicode="&#x399;" horiz-adv-x="456" 
d="M139 0v1434h178v-1434h-178z" />
    <glyph glyph-name="Kappa" unicode="&#x39a;" horiz-adv-x="1306" 
d="M139 0v1434h178v-813l723 813h217l-524 -605l565 -829h-213l-483 694l-285 -321v-373h-178z" />
    <glyph glyph-name="Lambda" unicode="&#x39b;" horiz-adv-x="1312" 
d="M207 0h-184l524 1434h215l528 -1434h-188l-451 1223z" />
    <glyph glyph-name="Mu" unicode="&#x39c;" horiz-adv-x="1734" 
d="M139 0v1434h226l507 -1190l502 1190h221v-1434h-174v1130l-475 -1130h-158l-475 1130v-1130h-174z" />
    <glyph glyph-name="Nu" unicode="&#x39d;" horiz-adv-x="1386" 
d="M313 0h-174v1434h164l770 -1106v1106h174v-1434h-164l-770 1106v-1106z" />
    <glyph glyph-name="Xi" unicode="&#x39e;" horiz-adv-x="1214" 
d="M1130 1270h-1044v164h1044v-164zM1059 647h-903v164h903v-164zM1143 0h-1071v164h1071v-164z" />
    <glyph glyph-name="Omicron" unicode="&#x39f;" horiz-adv-x="1540" 
d="M1454 717q0 -209 -86.5 -375t-242.5 -260t-355 -94t-355 94t-242.5 260t-86.5 375t86.5 375t242.5 260t355 94t355 -94t242.5 -260t86.5 -375zM268 717q0 -249 139.5 -407t362.5 -158t362.5 158t139.5 407t-139.5 407t-362.5 158t-362.5 -158t-139.5 -407z" />
    <glyph glyph-name="Pi" unicode="&#x3a0;" horiz-adv-x="1372" 
d="M317 0h-178v1434h1094v-1434h-178v1270h-738v-1270z" />
    <glyph glyph-name="Rho" unicode="&#x3a1;" horiz-adv-x="1216" 
d="M139 0v1434h551q216 0 345.5 -120t129.5 -321t-130 -321.5t-345 -120.5h-373v-551h-178zM676 1270h-359v-555h357q141 0 225 75.5t84 202.5t-83 202t-224 75z" />
    <glyph glyph-name="Sigma" unicode="&#x3a3;" horiz-adv-x="1218" 
d="M1163 0h-1100v129l560 604l-525 572v129h1049v-164h-776l452 -500v-63l-499 -543h839v-164z" />
    <glyph glyph-name="Tau" unicode="&#x3a4;" horiz-adv-x="1189" 
d="M41 1270v164h1108v-164h-465v-1270h-178v1270h-465z" />
    <glyph glyph-name="Upsilon" unicode="&#x3a5;" horiz-adv-x="1296" 
d="M559 530l-541 904h209l422 -711l428 711h201l-541 -904v-530h-178v530z" />
    <glyph glyph-name="Phi" unicode="&#x3a6;" horiz-adv-x="1730" 
d="M1645 717q0 -294 -184.5 -468.5t-506.5 -193.5v-114h-174v114q-322 14 -508 189.5t-186 472.5q0 296 185.5 471t508.5 190v115h174v-115q321 -17 506 -191.5t185 -469.5zM262 717q0 -228 134 -359.5t384 -144.5v1008q-250 -12 -384 -143.5t-134 -360.5zM954 1221v-1008
q247 15 380.5 146.5t133.5 357.5t-132.5 356.5t-381.5 147.5z" />
    <glyph glyph-name="Chi" unicode="&#x3a7;" horiz-adv-x="1253" 
d="M31 0l483 735l-453 699h209l359 -555l358 555h205l-453 -686l484 -748h-211l-389 600l-385 -600h-207z" />
    <glyph glyph-name="Psi" unicode="&#x3a8;" horiz-adv-x="1615" 
d="M1325 1087v347h174v-357q0 -316 -149.5 -473t-454.5 -176v-428h-174v428q-304 19 -454 176.5t-150 472.5v357h174v-347q0 -251 100 -365.5t330 -129.5v842h174v-842q230 15 330 129.5t100 365.5z" />
    <glyph glyph-name="uni03A9" unicode="&#x3a9;" horiz-adv-x="1505" 
d="M606 0h-514v164h367v45q-193 82 -279 228t-86 356q0 141 49.5 262.5t136.5 207t209.5 134.5t264.5 49q188 0 338 -83t234.5 -232.5t84.5 -337.5q0 -431 -362 -584v-45h362v-164h-514v289q182 78 257 196.5t75 307.5q0 218 -134 353.5t-343 135.5q-208 0 -342 -135.5
t-134 -353.5q0 -190 74 -308t256 -198v-287z" />
    <glyph glyph-name="Iotadieresis" unicode="&#x3aa;" horiz-adv-x="456" 
d="M-66 1702q0 46 30.5 76t76.5 30q47 0 78 -30t31 -76q0 -45 -31 -75t-78 -30q-46 0 -76.5 30.5t-30.5 74.5zM305 1702q0 45 32 75.5t77 30.5q46 0 76 -30t30 -76q0 -44 -30 -74.5t-76 -30.5q-45 0 -77 30.5t-32 74.5zM139 0v1434h178v-1434h-178z" />
    <glyph glyph-name="Upsilondieresis" unicode="&#x3ab;" horiz-adv-x="1296" 
d="M356 1702q0 46 30.5 76t76.5 30q47 0 77.5 -30t30.5 -76q0 -45 -30.5 -75t-77.5 -30q-46 0 -76.5 30.5t-30.5 74.5zM727 1702q0 45 32 75.5t77 30.5q46 0 76 -30t30 -76q0 -44 -30 -74.5t-76 -30.5q-45 0 -77 30.5t-32 74.5zM559 530l-541 904h209l422 -711l428 711h201
l-541 -904v-530h-178v530z" />
    <glyph glyph-name="alphatonos" unicode="&#x3ac;" horiz-adv-x="1249" 
d="M612 1462h183l-144 -293h-116zM1178 154h49v-154h-92q-105 0 -148.5 45t-40.5 135q-128 -192 -366 -192q-222 0 -362 142.5t-140 391.5q0 237 141.5 386t360.5 149q241 0 358 -176l23 163h145v-817q0 -43 16 -58t56 -15zM596 137q153 0 248.5 106.5t95.5 274.5
q0 172 -95.5 280.5t-248.5 108.5q-155 0 -250.5 -107t-95.5 -278t95.5 -278t250.5 -107z" />
    <glyph glyph-name="epsilontonos" unicode="&#x3ad;" horiz-adv-x="1046" 
d="M549 1460h182l-143 -293h-117zM821 317h172q-8 -160 -128 -244.5t-355 -84.5q-206 0 -325 76.5t-119 216.5q0 105 54 171t154 83q-82 16 -129 70t-47 145q0 137 120 221t317 84q204 0 322.5 -86.5t127.5 -239.5h-172q-9 92 -76.5 137t-201.5 45q-122 0 -194.5 -40.5
t-72.5 -116.5q0 -152 230 -152h157v-149h-168q-122 0 -185.5 -36t-63.5 -118q0 -90 72.5 -129t211.5 -39q148 0 218.5 42.5t80.5 143.5z" />
    <glyph glyph-name="etatonos" unicode="&#x3ae;" horiz-adv-x="1185" 
d="M526 1462h183l-144 -293h-116zM664 1057q92 0 166 -26t132.5 -81t90.5 -148.5t32 -219.5v-992h-167v981q0 162 -73 247t-210 85q-148 0 -232 -102t-84 -279v-522h-167v817q0 43 -16 58.5t-56 15.5h-49v153h92q97 0 139 -38.5t47 -116.5q122 168 355 168z" />
    <glyph glyph-name="iotatonos" unicode="&#x3af;" horiz-adv-x="520" 
d="M254 1169h-117l78 293h182zM502 0h-121q-148 0 -210 65.5t-62 206.5v772h167v-770q0 -66 27 -93t94 -27h105v-154z" />
    <glyph glyph-name="upsilondieresistonos" unicode="&#x3b0;" horiz-adv-x="1114" 
d="M600 1171h-111l7 312h166zM223 1311q0 44 29 73t72 29q46 0 75 -29t29 -73q0 -43 -29.5 -72t-74.5 -29q-43 0 -72 29t-29 72zM686 1311q0 44 31 73t74 29t71.5 -29t28.5 -73q0 -43 -28.5 -72t-71.5 -29t-74 29.5t-31 71.5zM557 -12q-212 0 -334.5 113.5t-122.5 347.5v595
h168v-579q0 -164 69 -244t220 -80q150 0 219.5 80t69.5 244v579h168v-595q0 -119 -33.5 -208.5t-95 -144t-143.5 -81.5t-185 -27z" />
    <glyph glyph-name="alpha" unicode="&#x3b1;" horiz-adv-x="1249" 
d="M1178 154h49v-154h-92q-105 0 -148.5 45t-40.5 135q-128 -192 -366 -192q-222 0 -362 142.5t-140 391.5q0 237 141.5 386t360.5 149q241 0 358 -176l23 163h145v-817q0 -43 16 -58t56 -15zM596 137q153 0 248.5 106.5t95.5 274.5q0 172 -95.5 280.5t-248.5 108.5
q-155 0 -250.5 -107t-95.5 -278t95.5 -278t250.5 -107z" />
    <glyph glyph-name="beta" unicode="&#x3b2;" horiz-adv-x="1163" 
d="M809 756q136 -26 212.5 -116t76.5 -245q0 -119 -63.5 -213t-168.5 -144t-229 -50q-229 0 -354 131v-529h-168v1391q0 223 127 344t336 121q191 0 311 -107t119 -278q-1 -115 -56 -195t-143 -110zM629 137q132 0 214.5 70.5t82.5 193.5q0 137 -82 197.5t-244 60.5h-111
v150h66q79 0 136 20.5t88 56.5t45 79t14 94q0 110 -71 173.5t-194 63.5q-138 0 -214 -79t-76 -216v-542q0 -156 95.5 -239t250.5 -83z" />
    <glyph glyph-name="gamma" unicode="&#x3b3;" horiz-adv-x="1046" 
d="M860 1044h176l-428 -1026v-350h-168v344l-430 1032h180l336 -806z" />
    <glyph glyph-name="delta" unicode="&#x3b4;" horiz-adv-x="1177" 
d="M582 -12q-228 0 -366 130.5t-138 352.5q0 195 117.5 326t306.5 153q54 7 100 4l-407 346v134h847v-150h-585l366 -321q143 -123 210 -230t67 -254q0 -216 -141 -353.5t-377 -137.5zM588 131q153 0 247.5 93t94.5 253q0 159 -95 250.5t-241 91.5q-155 0 -250.5 -92
t-95.5 -250q0 -161 93.5 -253.5t246.5 -92.5z" />
    <glyph glyph-name="epsilon" unicode="&#x3b5;" horiz-adv-x="1046" 
d="M821 317h172q-8 -160 -128 -244.5t-355 -84.5q-206 0 -325 76.5t-119 216.5q0 105 54 171t154 83q-82 16 -129 70t-47 145q0 137 120 221t317 84q204 0 322.5 -86.5t127.5 -239.5h-172q-9 92 -76.5 137t-201.5 45q-122 0 -194.5 -40.5t-72.5 -116.5q0 -152 230 -152h157
v-149h-168q-122 0 -185.5 -36t-63.5 -118q0 -90 72.5 -129t211.5 -39q148 0 218.5 42.5t80.5 143.5z" />
    <glyph glyph-name="zeta" unicode="&#x3b6;" horiz-adv-x="968" 
d="M956 -279h-159v142q0 77 -28.5 105t-106.5 30l-134 2q-458 7 -458 377q0 71 22 139.5t70 141.5t98.5 133t132.5 149l316 340h-598v154h827v-127l-338 -361q-61 -64 -88 -93t-74 -82t-68.5 -82.5t-51.5 -74t-43 -77t-23 -71.5t-10 -77q0 -125 80 -180t231 -57l133 -2
q139 -2 204.5 -58t65.5 -184v-187z" />
    <glyph glyph-name="eta" unicode="&#x3b7;" horiz-adv-x="1185" 
d="M664 1057q92 0 166 -26t132.5 -81t90.5 -148.5t32 -219.5v-992h-167v981q0 162 -73 247t-210 85q-148 0 -232 -102t-84 -279v-522h-167v817q0 43 -16 58.5t-56 15.5h-49v153h92q97 0 139 -38.5t47 -116.5q122 168 355 168z" />
    <glyph glyph-name="theta" unicode="&#x3b8;" horiz-adv-x="1179" 
d="M590 1446q240 0 376 -186.5t136 -540.5q0 -352 -136.5 -541.5t-375.5 -189.5t-375.5 189.5t-136.5 541.5t136.5 539.5t375.5 187.5zM590 1296q-153 0 -242 -122.5t-102 -370.5h686q-12 249 -100.5 371t-241.5 122zM590 137q156 0 244.5 129t97.5 389h-686
q9 -260 98.5 -389t245.5 -129z" />
    <glyph glyph-name="iota" unicode="&#x3b9;" horiz-adv-x="520" 
d="M502 0h-121q-148 0 -210 65.5t-62 206.5v772h167v-770q0 -66 27 -93t94 -27h105v-154z" />
    <glyph glyph-name="kappa" unicode="&#x3ba;" horiz-adv-x="1062" 
d="M600 598l442 -598h-206l-347 475l-206 -254v-221h-168v1042h168v-596l331 420q85 107 145 142.5t165 35.5h77v-153h-53q-70 0 -106 -17.5t-88 -82.5z" />
    <glyph glyph-name="lambda" unicode="&#x3bb;" 
d="M207 0h-176l422 1010l-60 151q-30 76 -61.5 97.5t-100.5 21.5h-122v154h165q80 0 126 -20t79.5 -68.5t75.5 -151.5l487 -1194h-180l-325 811z" />
    <glyph glyph-name="uni03BC" unicode="&#x3bc;" horiz-adv-x="1169" 
d="M1098 154h49v-154h-92q-101 0 -145 42t-44 124q-40 -83 -125.5 -130.5t-197.5 -47.5q-85 0 -159.5 34t-98.5 78v-510h-170v1454h168v-555q0 -168 72 -258t204 -90q136 0 218.5 108t82.5 290v505h168l-2 -817q0 -43 16 -58t56 -15z" />
    <glyph glyph-name="nu" unicode="&#x3bd;" horiz-adv-x="1005" 
d="M401 0l-391 1044h180l316 -854l313 854h176l-391 -1044h-203z" />
    <glyph glyph-name="xi" unicode="&#x3be;" horiz-adv-x="978" 
d="M954 -276h-159v141q0 76 -29 104.5t-107 30.5l-112 2q-479 10 -479 381q0 140 74.5 236t193.5 126q-93 27 -145 96.5t-52 174.5q0 211 215 284l-272 -2v136h840v-134q-64 0 -174 -4q-222 -9 -329.5 -71t-107.5 -187q0 -225 301 -225h211v-154h-229q-354 0 -354 -264
q0 -126 85 -182t246 -59l113 -2q140 -3 205 -58.5t65 -183.5v-186z" />
    <glyph glyph-name="omicron" unicode="&#x3bf;" horiz-adv-x="1191" 
d="M596 -12q-229 0 -373.5 148.5t-144.5 385.5t144.5 386t373.5 149t373.5 -149t144.5 -386t-144.5 -385.5t-373.5 -148.5zM596 137q154 0 250 108t96 277t-96 277t-250 108t-250 -108t-96 -277t96 -277t250 -108z" />
    <glyph glyph-name="pi" unicode="&#x3c0;" horiz-adv-x="1253" 
d="M1217 1044v-153h-189v-666q0 -43 16 -57t56 -14h55v-154h-119q-176 0 -176 186v705h-485v-891h-168v891h-180v153h1190z" />
    <glyph glyph-name="rho" unicode="&#x3c1;" horiz-adv-x="1210" 
d="M614 1057q229 0 374 -149t145 -386t-145 -385.5t-374 -148.5q-107 0 -203 41t-143 102v-541h-168v928q0 239 142.5 389t371.5 150zM614 137q154 0 250.5 108.5t96.5 276.5t-96.5 276.5t-250.5 108.5t-250 -109t-96 -280q0 -166 96 -273.5t250 -107.5z" />
    <glyph glyph-name="uni03C2" unicode="&#x3c2;" horiz-adv-x="1089" 
d="M946 -276h-160v139q0 77 -28.5 105t-106.5 30l-76 2q-259 7 -378 135.5t-119 384.5q0 239 141.5 388t368.5 149q189 0 308.5 -99t152.5 -274h-177q-24 105 -98 164t-188 59q-150 0 -243 -108t-93 -279q0 -189 90 -276t260 -92l76 -2q140 -3 205 -58.5t65 -183.5v-184z
" />
    <glyph glyph-name="sigma" unicode="&#x3c3;" horiz-adv-x="1251" 
d="M596 -12q-230 0 -374 145.5t-144 382.5q0 238 143.5 383t372.5 145h620v-153h-260q78 -64 119 -161t41 -214q0 -237 -144 -382.5t-374 -145.5zM596 137q155 0 250.5 105.5t95.5 273.5t-95.5 273.5t-250.5 105.5t-250.5 -105.5t-95.5 -273.5t95.5 -273.5t250.5 -105.5z
" />
    <glyph glyph-name="tau" unicode="&#x3c4;" horiz-adv-x="1005" 
d="M969 1044v-153h-402v-617q0 -66 27 -93t94 -27h176v-154h-192q-148 0 -210.5 65.5t-62.5 206.5v619h-372v153h942z" />
    <glyph glyph-name="upsilon" unicode="&#x3c5;" horiz-adv-x="1114" 
d="M557 -12q-212 0 -334.5 113.5t-122.5 347.5v595h168v-579q0 -164 69 -244t220 -80q150 0 219.5 80t69.5 244v579h168v-595q0 -119 -33.5 -208.5t-95 -144t-143.5 -81.5t-185 -27z" />
    <glyph glyph-name="phi" unicode="&#x3c6;" horiz-adv-x="1515" 
d="M840 -410h-164v400q-266 3 -427 146t-161 390q0 244 161 385t427 144v258h164v-258q265 -3 426 -143.5t161 -383.5q0 -247 -161.5 -391.5t-425.5 -146.5v-400zM676 131v780q-194 -2 -308 -102.5t-114 -282.5q0 -185 114 -288.5t308 -106.5zM840 911v-780q194 3 307 107
t113 290q0 180 -113.5 280.5t-306.5 102.5z" />
    <glyph glyph-name="chi" unicode="&#x3c7;" horiz-adv-x="1126" 
d="M186 -410h-186l451 750l-226 428q-41 78 -74 100.5t-102 22.5h-43v153h86q43 0 71.5 -3t54.5 -13.5t42.5 -23t37.5 -41t36.5 -56.5t42.5 -80l182 -352l338 569h178l-422 -706l254 -473q41 -77 73 -99t103 -22h43v-154h-92q-42 0 -70.5 3t-54.5 15t-41 23t-36 41.5
t-34.5 55.5t-41.5 79l-207 400z" />
    <glyph glyph-name="psi" unicode="&#x3c8;" horiz-adv-x="1409" 
d="M1141 530v514h168v-522q0 -132 -38.5 -232t-109.5 -162.5t-164 -96t-211 -41.5v-400h-163v400q-119 9 -212 43t-164 96t-109 161.5t-38 231.5v522h168v-512q0 -190 84.5 -283t270.5 -108v1172h163v-1174q185 15 270 107.5t85 283.5z" />
    <glyph glyph-name="omega" unicode="&#x3c9;" horiz-adv-x="1587" 
d="M492 -12q-183 0 -293.5 124.5t-110.5 368.5q0 97 23.5 191t61.5 165t76.5 122.5t76.5 84.5h190q-256 -260 -256 -565q0 -169 61 -255.5t179 -86.5q103 0 158 82t55 236v221h164v-221q0 -318 208 -318q119 0 180.5 87t61.5 255q0 305 -256 565h191q38 -33 76.5 -84.5
t76 -122.5t61 -165t23.5 -191q0 -244 -110 -368.5t-293 -124.5q-123 0 -195.5 49.5t-109.5 144.5q-73 -194 -299 -194z" />
    <glyph glyph-name="iotadieresis" unicode="&#x3ca;" horiz-adv-x="520" 
d="M-98 1313q0 46 30 76t76 30q47 0 78 -30t31 -76q0 -45 -31 -75t-78 -30q-46 0 -76 30t-30 75zM272 1313q0 45 32 75.5t77 30.5q46 0 76 -30t30 -76q0 -45 -30.5 -75t-75.5 -30t-77 30.5t-32 74.5zM502 0h-121q-148 0 -210 65.5t-62 206.5v772h167v-770q0 -66 27 -93
t94 -27h105v-154z" />
    <glyph glyph-name="upsilondieresis" unicode="&#x3cb;" horiz-adv-x="1114" 
d="M264 1311q0 46 30.5 76t76.5 30q47 0 77.5 -30t30.5 -76q0 -45 -30.5 -75t-77.5 -30q-46 0 -76.5 30.5t-30.5 74.5zM635 1311q0 45 31.5 75.5t76.5 30.5q46 0 76.5 -30t30.5 -76q0 -44 -30.5 -74.5t-76.5 -30.5q-45 0 -76.5 30.5t-31.5 74.5zM557 -12
q-212 0 -334.5 113.5t-122.5 347.5v595h168v-579q0 -164 69 -244t220 -80q150 0 219.5 80t69.5 244v579h168v-595q0 -119 -33.5 -208.5t-95 -144t-143.5 -81.5t-185 -27z" />
    <glyph glyph-name="omicrontonos" unicode="&#x3cc;" horiz-adv-x="1191" 
d="M655 1167h-116l77 293h183zM596 -12q-229 0 -373.5 148.5t-144.5 385.5t144.5 386t373.5 149t373.5 -149t144.5 -386t-144.5 -385.5t-373.5 -148.5zM596 137q154 0 250 108t96 277t-96 277t-250 108t-250 -108t-96 -277t96 -277t250 -108z" />
    <glyph glyph-name="upsilontonos" unicode="&#x3cd;" horiz-adv-x="1114" 
d="M616 1167h-116l78 293h182zM557 -12q-212 0 -334.5 113.5t-122.5 347.5v595h168v-579q0 -164 69 -244t220 -80q150 0 219.5 80t69.5 244v579h168v-595q0 -119 -33.5 -208.5t-95 -144t-143.5 -81.5t-185 -27z" />
    <glyph glyph-name="omegatonos" unicode="&#x3ce;" horiz-adv-x="1587" 
d="M852 1167h-117l78 293h182zM492 -12q-183 0 -293.5 124.5t-110.5 368.5q0 97 23.5 191t61.5 165t76.5 122.5t76.5 84.5h190q-256 -260 -256 -565q0 -169 61 -255.5t179 -86.5q103 0 158 82t55 236v221h164v-221q0 -318 208 -318q119 0 180.5 87t61.5 255q0 305 -256 565
h191q38 -33 76.5 -84.5t76 -122.5t61 -165t23.5 -191q0 -244 -110 -368.5t-293 -124.5q-123 0 -195.5 49.5t-109.5 144.5q-73 -194 -299 -194z" />
    <glyph glyph-name="uni0400" unicode="&#x400;" horiz-adv-x="1140" 
d="M532 1556l-233 279h197l170 -279h-134zM139 0v1434h914v-164h-736v-459h613v-164h-613v-483h762v-164h-940z" />
    <glyph glyph-name="uni0401" unicode="&#x401;" horiz-adv-x="1140" 
d="M309 1702q0 46 30.5 76t76.5 30q47 0 77.5 -30t30.5 -76q0 -45 -30.5 -75t-77.5 -30q-46 0 -76.5 30.5t-30.5 74.5zM680 1702q0 45 31.5 75.5t76.5 30.5q46 0 76.5 -30t30.5 -76q0 -44 -30.5 -74.5t-76.5 -30.5q-45 0 -76.5 30.5t-31.5 74.5zM139 0v1434h914v-164h-736
v-459h613v-164h-613v-483h762v-164h-940z" />
    <glyph glyph-name="uni0402" unicode="&#x402;" horiz-adv-x="1624" 
d="M1067 879q231 0 358 -120t127 -364v-198q0 -237 -124 -355t-353 -118h-74v163h64q154 0 231.5 74.5t77.5 241.5v170q0 181 -88 261.5t-258 80.5q-95 0 -187.5 -30t-156.5 -83v-602h-178v1270h-465v164h1202v-164h-559v-496q138 105 383 105z" />
    <glyph glyph-name="uni0403" unicode="&#x403;" horiz-adv-x="1019" 
d="M662 1559h-132l175 276h196zM317 0h-178v1434h840v-164h-662v-1270z" />
    <glyph glyph-name="uni0404" unicode="&#x404;" horiz-adv-x="1445" 
d="M754 152q165 0 276.5 83t151.5 234h188q-40 -222 -204 -351.5t-404 -129.5q-310 0 -493 199.5t-183 529.5q0 327 187 528t497 201q238 0 400 -129.5t202 -351.5h-188q-41 150 -151.5 233.5t-270.5 83.5q-203 0 -334 -130t-156 -347h594v-164h-594q19 -220 148.5 -354.5
t333.5 -134.5z" />
    <glyph glyph-name="uni0405" unicode="&#x405;" horiz-adv-x="1243" 
d="M82 469h184q11 -145 115 -232t268 -87q148 0 239 64t91 179q0 33 -7.5 60.5t-24 49t-35 38.5t-49 31t-57 24t-68 19.5t-73 15.5t-79.5 14q-79 13 -138.5 29t-125 46t-108 70t-70 103.5t-27.5 144.5q0 183 135 295.5t354 112.5q236 0 378.5 -119.5t154.5 -316.5h-185
q-15 125 -108.5 199.5t-239.5 74.5q-143 0 -227 -61t-84 -174q0 -36 11 -66t27.5 -51t47.5 -39.5t58.5 -30t74 -23t80.5 -18t90 -16.5q79 -13 139.5 -29t126.5 -46.5t108.5 -71t70.5 -104t28 -144.5q0 -186 -142 -304t-368 -118q-258 0 -407.5 132t-157.5 349z" />
    <glyph glyph-name="uni0406" unicode="&#x406;" horiz-adv-x="456" 
d="M139 0v1434h178v-1434h-178z" />
    <glyph glyph-name="uni0407" unicode="&#x407;" horiz-adv-x="456" 
d="M-66 1702q0 46 30.5 76t76.5 30q47 0 78 -30t31 -76q0 -45 -31 -75t-78 -30q-46 0 -76.5 30.5t-30.5 74.5zM305 1702q0 45 32 75.5t77 30.5q46 0 76 -30t30 -76q0 -44 -30 -74.5t-76 -30.5q-45 0 -77 30.5t-32 74.5zM139 0v1434h178v-1434h-178z" />
    <glyph glyph-name="uni0408" unicode="&#x408;" horiz-adv-x="716" 
d="M399 352v1082h179v-1096q0 -166 -86 -252t-252 -86h-187v164h164q96 0 139 45t43 143z" />
    <glyph glyph-name="uni0409" unicode="&#x409;" horiz-adv-x="2127" 
d="M92 0h-74v164h45q62 0 100.5 12.5t65 48t37 97t10.5 161.5v951h959v-603h377q206 0 330 -114.5t124 -298.5q0 -185 -124.5 -301.5t-329.5 -116.5h-555v1270h-608v-805q0 -174 -39.5 -276.5t-115.5 -145.5t-202 -43zM1235 668v-504h362q133 0 210 68.5t77 185.5
q0 115 -77.5 182.5t-211.5 67.5h-360z" />
    <glyph glyph-name="uni040A" unicode="&#x40a;" horiz-adv-x="2129" 
d="M317 0h-178v1434h178v-603h742v603h178v-603h377q206 0 330 -114.5t124 -298.5q0 -185 -124.5 -301.5t-329.5 -116.5h-555v668h-742v-668zM1237 668v-504h362q133 0 210 68.5t77 185.5q0 115 -77.5 182.5t-211.5 67.5h-360z" />
    <glyph glyph-name="uni040B" unicode="&#x40b;" horiz-adv-x="1636" 
d="M1063 879q228 0 354.5 -112.5t126.5 -340.5v-426h-178v399q0 167 -87.5 241.5t-254.5 74.5q-95 0 -185.5 -30t-154.5 -83v-602h-178v1270h-465v164h1202v-164h-559v-496q138 105 379 105z" />
    <glyph glyph-name="uni040C" unicode="&#x40c;" horiz-adv-x="1323" 
d="M719 1559h-131l174 276h196zM317 0h-178v1434h178v-623h265l471 623h207l-527 -695l559 -739h-217l-493 647h-265v-647z" />
    <glyph glyph-name="uni040D" unicode="&#x45d;" horiz-adv-x="1390" 
d="M629 1556l-234 279h197l170 -279h-133zM305 0h-166v1434h178v-1137l768 1137h166v-1434h-178v1137z" />
    <glyph glyph-name="uni040D" unicode="&#x40d;" horiz-adv-x="1390" 
d="M629 1556l-234 279h197l170 -279h-133zM305 0h-166v1434h178v-1137l768 1137h166v-1434h-178v1137z" />
    <glyph glyph-name="uni040E" unicode="&#x40e;" horiz-adv-x="1255" 
d="M633 1554q-145 0 -220.5 74.5t-78.5 206.5h139q0 -162 162 -162q166 0 166 162h139q-3 -132 -81.5 -206.5t-225.5 -74.5zM360 0h-176v164h129q91 0 132.5 25t80.5 110l45 98l-553 1037h205l443 -846l378 846h193l-549 -1182q-65 -143 -140 -197.5t-188 -54.5z" />
    <glyph glyph-name="uni040F" unicode="&#x40f;" horiz-adv-x="1366" 
d="M1049 1434h178v-1434h-455v-293h-178v293h-455v1434h178v-1270h732v1270z" />
    <glyph glyph-name="uni0410" unicode="&#x410;" horiz-adv-x="1347" 
d="M207 0h-184l546 1434h211l545 -1434h-190l-152 387h-625zM670 1239l-258 -690h518z" />
    <glyph glyph-name="uni0411" unicode="&#x411;" horiz-adv-x="1224" 
d="M702 0h-563v1434h883v-164h-705v-422h383q212 0 336.5 -107.5t124.5 -314.5q0 -199 -125.5 -312.5t-333.5 -113.5zM317 684v-520h369q135 0 214 70t79 190t-80 190t-215 70h-367z" />
    <glyph glyph-name="uni0412" unicode="&#x412;" horiz-adv-x="1265" 
d="M139 0v1434h508q226 0 350.5 -101.5t124.5 -277.5q0 -119 -59.5 -197t-165.5 -115q126 -24 205.5 -106t79.5 -227q0 -193 -134 -301.5t-386 -108.5h-523zM655 1272h-338v-461h338q138 0 213.5 61t75.5 170q0 108 -75.5 169t-213.5 61zM662 651h-345v-489h345
q163 0 250 63.5t87 175.5q0 121 -88 185.5t-249 64.5z" />
    <glyph glyph-name="uni0413" unicode="&#x413;" horiz-adv-x="1019" 
d="M317 0h-178v1434h840v-164h-662v-1270z" />
    <glyph glyph-name="uni0414" unicode="&#x414;" horiz-adv-x="1529" 
d="M1311 1434v-1270h176v-457h-178v293h-1096v-293h-178v457h135q79 70 115.5 206.5t36.5 432.5v631h989zM377 164h756v1118h-644v-502q0 -247 -26.5 -387.5t-85.5 -228.5z" />
    <glyph glyph-name="uni0415" unicode="&#x415;" horiz-adv-x="1140" 
d="M139 0v1434h914v-164h-736v-459h613v-164h-613v-483h762v-164h-940z" />
    <glyph glyph-name="uni0416" unicode="&#x416;" horiz-adv-x="2019" 
d="M246 0h-215l522 737l-490 697h203l443 -625h213v625h178v-625h213l442 625h203l-490 -697l521 -737h-215l-455 645h-219v-645h-178v645h-220z" />
    <glyph glyph-name="uni0417" unicode="&#x417;" horiz-adv-x="1222" 
d="M604 -12q-250 0 -387 114t-143 328h182q7 -138 102 -208t256 -70q162 0 252 67.5t90 190.5q0 245 -338 245h-143v150h133q312 0 312 246q0 111 -84 171t-224 60q-151 0 -241 -69.5t-97 -192.5h-182q8 189 151 307.5t367 118.5q229 0 360.5 -104t131.5 -275
q0 -135 -62 -216t-172 -110q55 -13 100 -37.5t85.5 -64t63 -101.5t22.5 -141q0 -184 -146.5 -296.5t-388.5 -112.5z" />
    <glyph glyph-name="uni0418" unicode="&#x418;" horiz-adv-x="1390" 
d="M305 0h-166v1434h178v-1137l768 1137h166v-1434h-178v1137z" />
    <glyph glyph-name="uni0419" unicode="&#x419;" horiz-adv-x="1390" 
d="M694 1554q-145 0 -220.5 74.5t-78.5 206.5h140q0 -162 161 -162q166 0 166 162h139q-3 -132 -81.5 -206.5t-225.5 -74.5zM305 0h-166v1434h178v-1137l768 1137h166v-1434h-178v1137z" />
    <glyph glyph-name="uni041A" unicode="&#x41a;" horiz-adv-x="1323" 
d="M317 0h-178v1434h178v-623h265l471 623h207l-527 -695l559 -739h-217l-493 647h-265v-647z" />
    <glyph glyph-name="uni041B" unicode="&#x41b;" horiz-adv-x="1415" 
d="M74 0h-56v164h35q63 0 103 23t69.5 84.5t42.5 172.5t13 285v705h995v-1434h-178v1270h-645v-555q0 -165 -15 -286t-43.5 -203.5t-75 -132.5t-106 -71.5t-139.5 -21.5z" />
    <glyph glyph-name="uni041C" unicode="&#x41c;" horiz-adv-x="1734" 
d="M139 0v1434h226l507 -1190l502 1190h221v-1434h-174v1130l-475 -1130h-158l-475 1130v-1130h-174z" />
    <glyph glyph-name="uni041D" unicode="&#x41d;" horiz-adv-x="1376" 
d="M139 0v1434h178v-623h742v623h178v-1434h-178v647h-742v-647h-178z" />
    <glyph glyph-name="uni041E" unicode="&#x41e;" horiz-adv-x="1540" 
d="M1454 717q0 -209 -86.5 -375t-242.5 -260t-355 -94t-355 94t-242.5 260t-86.5 375t86.5 375t242.5 260t355 94t355 -94t242.5 -260t86.5 -375zM268 717q0 -249 139.5 -407t362.5 -158t362.5 158t139.5 407t-139.5 407t-362.5 158t-362.5 -158t-139.5 -407z" />
    <glyph glyph-name="uni041F" unicode="&#x41f;" horiz-adv-x="1366" 
d="M317 0h-178v1434h1088v-1434h-178v1270h-732v-1270z" />
    <glyph glyph-name="uni0420" unicode="&#x420;" horiz-adv-x="1216" 
d="M139 0v1434h551q216 0 345.5 -120t129.5 -321t-130 -321.5t-345 -120.5h-373v-551h-178zM676 1270h-359v-555h357q141 0 225 75.5t84 202.5t-83 202t-224 75z" />
    <glyph glyph-name="uni0421" unicode="&#x421;" horiz-adv-x="1445" 
d="M756 -12q-307 0 -488.5 199.5t-181.5 529.5q0 327 187 528t497 201q238 0 400 -129.5t202 -351.5h-188q-41 150 -151.5 233.5t-270.5 83.5q-224 0 -359 -157t-135 -408t131.5 -408t354.5 -157q165 0 276.5 83t151.5 234h188q-40 -222 -205.5 -351.5t-408.5 -129.5z" />
    <glyph glyph-name="uni0422" unicode="&#x422;" horiz-adv-x="1189" 
d="M41 1270v164h1108v-164h-465v-1270h-178v1270h-465z" />
    <glyph glyph-name="uni0423" unicode="&#x423;" horiz-adv-x="1255" 
d="M360 0h-176v164h129q91 0 132.5 25t80.5 110l45 98l-553 1037h205l443 -846l378 846h193l-549 -1182q-65 -143 -140 -197.5t-188 -54.5z" />
    <glyph glyph-name="uni0424" unicode="&#x424;" horiz-adv-x="1789" 
d="M1704 717q0 -281 -194 -446t-529 -179v-174h-172v174q-334 11 -528.5 177t-194.5 448q0 281 194 447t529 177v175h172v-175q334 -11 528.5 -176.5t194.5 -447.5zM264 717q0 -212 141 -334.5t404 -132.5v934q-261 -9 -403 -131.5t-142 -335.5zM981 1184v-934
q261 10 403 132.5t142 334.5t-141 334.5t-404 132.5z" />
    <glyph glyph-name="uni0425" unicode="&#x425;" horiz-adv-x="1253" 
d="M31 0l483 735l-453 699h209l359 -555l358 555h205l-453 -686l484 -748h-211l-389 600l-385 -600h-207z" />
    <glyph glyph-name="uni0426" unicode="&#x426;" horiz-adv-x="1445" 
d="M1227 1434v-1270h176v-457h-178v293h-1086v1434h178v-1270h732v1270h178z" />
    <glyph glyph-name="uni0427" unicode="&#x427;" horiz-adv-x="1277" 
d="M961 791v643h178v-1434h-178v614q-156 -94 -386 -94q-223 0 -357 113t-134 334v467h178v-433q0 -160 88.5 -238.5t243.5 -78.5q216 0 367 107z" />
    <glyph glyph-name="uni0428" unicode="&#x428;" horiz-adv-x="2021" 
d="M1882 0h-1743v1434h178v-1270h605v1270h178v-1270h604v1270h178v-1434z" />
    <glyph glyph-name="uni0429" unicode="&#x429;" horiz-adv-x="2101" 
d="M1882 1434v-1270h176v-457h-178v293h-1741v1434h178v-1270h605v1270h178v-1270h604v1270h178z" />
    <glyph glyph-name="uni042A" unicode="&#x42a;" horiz-adv-x="1552" 
d="M1018 0h-557v1282h-420v152h598v-549h379q212 0 342.5 -124t130.5 -319q0 -194 -130.5 -318t-342.5 -124zM639 721v-557h365q139 0 222 76t83 202t-84.5 202.5t-223.5 76.5h-362z" />
    <glyph glyph-name="uni042B" unicode="&#x42b;" horiz-adv-x="1650" 
d="M676 0h-537v1434h178v-549h359q212 0 342.5 -124t130.5 -319q0 -194 -130.5 -318t-342.5 -124zM1511 0h-178v1434h178v-1434zM317 721v-557h345q139 0 222 76t83 202t-84.5 202.5t-223.5 76.5h-342z" />
    <glyph glyph-name="uni042C" unicode="&#x42c;" horiz-adv-x="1230" 
d="M696 0h-557v1434h178v-549h379q212 0 342.5 -124t130.5 -319q0 -194 -130.5 -318t-342.5 -124zM317 721v-557h365q139 0 222 76t83 202t-84 202.5t-223 76.5h-363z" />
    <glyph glyph-name="uni042D" unicode="&#x42d;" horiz-adv-x="1449" 
d="M694 1446q205 0 357.5 -91t232.5 -255.5t80 -382.5q0 -327 -187 -528t-497 -201q-244 0 -405 128.5t-201 352.5h190q42 -151 150.5 -234t273.5 -83q207 0 338 134t152 355h-594v164h594q-22 216 -148 346.5t-328 130.5q-164 0 -272.5 -82.5t-148.5 -234.5h-191
q40 223 202.5 352t401.5 129z" />
    <glyph glyph-name="uni042E" unicode="&#x42e;" horiz-adv-x="2007" 
d="M1245 1446q197 0 351.5 -94t239.5 -260t85 -375t-85 -375t-239.5 -260t-351.5 -94q-279 0 -465 183t-209 472h-254v-643h-178v1434h178v-627h256q28 284 212 461.5t460 177.5zM1245 152q220 0 357 158t137 407t-137 407t-357 158t-356.5 -158t-136.5 -407t136.5 -407
t356.5 -158z" />
    <glyph glyph-name="uni042F" unicode="&#x42f;" horiz-adv-x="1284" 
d="M580 1434h565v-1434h-178v551h-344l-336 -551h-207l352 573q-162 35 -249 147t-87 277q0 194 134 315.5t350 121.5zM590 715h377v555h-375q-143 0 -228 -75t-85 -202t84 -202.5t227 -75.5z" />
    <glyph glyph-name="uni0430" unicode="&#x430;" horiz-adv-x="1105" 
d="M1038 154h54v-154h-93q-100 0 -143 41t-45 121q-122 -174 -350 -174q-174 0 -279.5 82t-105.5 223q0 157 107.5 241t312.5 84h307v72q0 102 -68.5 159.5t-191.5 57.5q-109 0 -180.5 -48t-86.5 -128h-167q19 154 136 240t306 86q201 0 310.5 -97.5t109.5 -279.5v-457
q0 -40 15 -54.5t52 -14.5zM803 426v51h-324q-233 0 -233 -174q0 -77 62 -124.5t165 -47.5q154 0 242 81t88 214z" />
    <glyph glyph-name="uni0431" unicode="&#x431;" horiz-adv-x="1185" 
d="M639 975q204 0 336.5 -134t132.5 -354q0 -219 -141 -359t-369 -140q-241 0 -375.5 147t-134.5 438q0 216 27.5 358.5t96 243t179.5 152.5t283 74l354 45v-158l-317 -41q-127 -17 -205.5 -43t-132 -77t-79 -125t-38.5 -193q57 78 155 122t228 44zM598 133q149 0 244.5 98
t95.5 250q0 151 -94.5 248.5t-241.5 97.5q-151 0 -247.5 -94t-96.5 -231q0 -171 94.5 -270t245.5 -99z" />
    <glyph glyph-name="uni0432" unicode="&#x432;" horiz-adv-x="1052" 
d="M565 0h-450v1044h444q191 0 287 -71.5t96 -208.5q0 -92 -50 -149t-122 -74q96 -14 153.5 -74.5t57.5 -163.5q0 -303 -416 -303zM283 901v-301h290q199 0 199 152q0 76 -48 112.5t-151 36.5h-290zM283 461v-318h307q221 0 221 158q0 77 -57 118.5t-164 41.5h-307z" />
    <glyph glyph-name="uni0433" unicode="&#x433;" horiz-adv-x="808" 
d="M283 0h-168v1044h669v-153h-501v-891z" />
    <glyph glyph-name="uni0434" unicode="&#x434;" horiz-adv-x="1226" 
d="M1038 1044v-890h166v-430h-168v276h-852v-276h-168v430h107q42 32 65 72t37.5 132.5t14.5 249.5v436h798zM326 154h544v737h-467v-301q0 -174 -18.5 -274t-58.5 -162z" />
    <glyph glyph-name="uni0435" unicode="&#x435;" horiz-adv-x="1146" 
d="M596 -12q-234 0 -376 147t-142 387q0 238 137 386.5t358 148.5q222 0 356 -132.5t140 -363.5q0 -22 -4 -72h-811v-14q5 -151 94 -244.5t236 -93.5q111 0 191 56.5t106 156.5h170q-31 -160 -154 -261t-301 -101zM264 629h625q-12 133 -96.5 206.5t-217.5 73.5
q-119 0 -209 -78t-102 -202z" />
    <glyph glyph-name="uni0436" unicode="&#x436;" horiz-adv-x="1560" 
d="M197 0h-193l395 541l-364 503h186l316 -436h161v436h164v-436h162l315 436h187l-365 -503l395 -541h-192l-334 455h-168v-455h-164v455h-168z" />
    <glyph glyph-name="uni0437" unicode="&#x437;" horiz-adv-x="1032" 
d="M752 537q99 -15 154 -75t55 -161q0 -145 -123.5 -229t-335.5 -84q-217 0 -321.5 85t-112.5 249h174q20 -99 78.5 -145t183.5 -46q132 0 208 45.5t76 126.5q0 154 -210 154h-179v145h168q197 0 197 156q0 71 -66.5 113t-183.5 42q-122 0 -185 -47.5t-81 -136.5h-174
q9 149 127 238.5t317 89.5q196 0 307 -80t111 -215q0 -93 -49.5 -150t-134.5 -75z" />
    <glyph glyph-name="uni0438" unicode="&#x438;" horiz-adv-x="1163" 
d="M262 0h-147v1044h164v-790l622 790h148v-1044h-164v793z" />
    <glyph glyph-name="uni0439" unicode="&#x439;" horiz-adv-x="1163" 
d="M578 1163q-145 0 -220.5 74.5t-78.5 206.5h139q0 -162 162 -162q165 0 165 162h140q-3 -132 -81.5 -206.5t-225.5 -74.5zM262 0h-147v1044h164v-790l622 790h148v-1044h-164v793z" />
    <glyph glyph-name="uni043A" unicode="&#x43a;" horiz-adv-x="1062" 
d="M283 0h-168v1044h168v-436h223l325 436h195l-381 -501l414 -543h-203l-348 455h-225v-455z" />
    <glyph glyph-name="uni043B" unicode="&#x43b;" horiz-adv-x="1105" 
d="M63 0h-57v154h31q62 0 96 31t51 114.5t17 239.5v505h790v-1044h-168v891h-458v-359q0 -205 -34.5 -323t-98 -163.5t-169.5 -45.5z" />
    <glyph glyph-name="uni043C" unicode="&#x43c;" horiz-adv-x="1437" 
d="M276 0h-161v1044h207l401 -839l395 839h201l4 -1044h-162v788l-375 -788h-135l-375 788v-788z" />
    <glyph glyph-name="uni043D" unicode="&#x43d;" horiz-adv-x="1153" 
d="M870 608v436h168v-1044h-168v455h-587v-455h-168v1044h168v-436h587z" />
    <glyph glyph-name="uni043E" unicode="&#x43e;" horiz-adv-x="1191" 
d="M596 -12q-229 0 -373.5 148.5t-144.5 385.5t144.5 386t373.5 149t373.5 -149t144.5 -386t-144.5 -385.5t-373.5 -148.5zM596 137q154 0 250 108t96 277t-96 277t-250 108t-250 -108t-96 -277t96 -277t250 -108z" />
    <glyph glyph-name="uni043F" unicode="&#x43f;" horiz-adv-x="1132" 
d="M283 0h-168v1044h903v-1044h-168v891h-567v-891z" />
    <glyph glyph-name="uni0440" unicode="&#x440;" horiz-adv-x="1220" 
d="M641 1057q222 0 362 -143t140 -392q0 -237 -141.5 -385.5t-360.5 -148.5q-127 0 -217.5 46.5t-140.5 125.5v-570h-168v1454h145l23 -167q131 180 358 180zM625 137q155 0 250.5 107t95.5 278t-95.5 278t-250.5 107q-153 0 -248.5 -106.5t-95.5 -274.5q0 -172 95.5 -280.5
t248.5 -108.5z" />
    <glyph glyph-name="uni0441" unicode="&#x441;" horiz-adv-x="1118" 
d="M584 -12q-230 0 -368 144t-138 388q0 239 141.5 388t368.5 149q189 0 308.5 -99t152.5 -274h-177q-24 105 -98 164t-188 59q-150 0 -243 -108t-93 -279t93 -277t243 -106q111 0 185 58.5t99 160.5h179q-31 -171 -153.5 -269.5t-311.5 -98.5z" />
    <glyph glyph-name="uni0442" unicode="&#x442;" horiz-adv-x="970" 
d="M569 0h-168v891h-376v153h921v-153h-377v-891z" />
    <glyph glyph-name="uni0443" unicode="&#x443;" horiz-adv-x="1009" 
d="M418 -6l-408 1050h178l322 -833l311 833h178l-481 -1220q-28 -71 -47 -109t-48 -70t-65.5 -43.5t-91.5 -11.5h-200v154h149q48 0 74.5 11.5t41 34.5t36.5 77z" />
    <glyph glyph-name="uni0444" unicode="&#x444;" horiz-adv-x="1505" 
d="M836 -410h-164v402q-270 6 -432 149.5t-162 380.5q0 234 163 378.5t431 152.5v348h164v-348q268 -8 429.5 -151.5t161.5 -379.5q0 -234 -162 -379t-429 -151v-402zM672 139v766q-194 -5 -308 -106.5t-114 -276.5t114 -276.5t308 -106.5zM834 905v-766q195 5 308 106
t113 277t-113 277t-308 106z" />
    <glyph glyph-name="uni0445" unicode="&#x445;" horiz-adv-x="1009" 
d="M4 0l397 537l-370 507h200l277 -387l280 387h191l-373 -507l400 -537h-201l-305 420l-305 -420h-191z" />
    <glyph glyph-name="uni0446" unicode="&#x446;" horiz-adv-x="1196" 
d="M999 1044v-890h175v-430h-168v276h-891v1044h168v-890h548v890h168z" />
    <glyph glyph-name="uni0447" unicode="&#x447;" horiz-adv-x="1052" 
d="M770 575v469h168v-1044h-168v420q-121 -80 -291 -80q-409 0 -409 379v325h168v-296q0 -139 66.5 -197.5t207.5 -58.5q160 0 258 83z" />
    <glyph glyph-name="uni0448" unicode="&#x448;" horiz-adv-x="1642" 
d="M1528 0h-1413v1044h168v-890h454v890h168v-890h455v890h168v-1044z" />
    <glyph glyph-name="uni0449" unicode="&#x449;" horiz-adv-x="1724" 
d="M1528 1044v-890h174v-430h-168v276h-1419v1044h168v-890h454v890h168v-890h455v890h168z" />
    <glyph glyph-name="uni044A" unicode="&#x44a;" horiz-adv-x="1267" 
d="M510 705h281q195 0 302 -92.5t107 -260.5q0 -166 -107.5 -259t-301.5 -93h-449v891h-317v153h485v-339zM510 143h254q128 0 197 54.5t69 154.5q0 102 -68.5 155.5t-197.5 53.5h-254v-418z" />
    <glyph glyph-name="uni044B" unicode="&#x44b;" horiz-adv-x="1411" 
d="M549 0h-434v1044h168v-339h266q195 0 302 -92.5t107 -260.5q0 -166 -107.5 -259t-301.5 -93zM1296 0h-168v1044h168v-1044zM283 561v-418h239q128 0 197 54.5t69 154.5q0 102 -68.5 155.5t-197.5 53.5h-239z" />
    <glyph glyph-name="uni044C" unicode="&#x44c;" horiz-adv-x="1040" 
d="M563 0h-448v1044h168v-339h280q195 0 302.5 -93t107.5 -260q0 -166 -107.5 -259t-302.5 -93zM283 561v-418h254q129 0 197.5 54.5t68.5 154.5q0 102 -68.5 155.5t-197.5 53.5h-254z" />
    <glyph glyph-name="uni044D" unicode="&#x44d;" horiz-adv-x="1118" 
d="M535 1057q229 0 367 -144.5t138 -388.5q0 -243 -140.5 -389.5t-369.5 -146.5q-189 0 -308 98.5t-152 273.5h176q24 -106 98 -165.5t188 -59.5q134 0 223.5 86.5t108.5 231.5h-450v147h448q-20 141 -109 225t-221 84q-105 0 -182 -60.5t-102 -160.5h-178q31 169 156 269
t309 100z" />
    <glyph glyph-name="uni044E" unicode="&#x44e;" horiz-adv-x="1632" 
d="M1040 1055q231 0 372.5 -146.5t141.5 -384.5q0 -240 -141.5 -388t-372.5 -148q-213 0 -351.5 129t-158.5 342h-247v-459h-168v1044h168v-448h249q22 208 160 333.5t348 125.5zM1040 123q154 0 249 111.5t95 289.5q0 177 -94.5 286.5t-249.5 109.5q-154 0 -248 -109.5
t-94 -286.5q0 -178 94.5 -289.5t247.5 -111.5z" />
    <glyph glyph-name="uni044F" unicode="&#x44f;" horiz-adv-x="1054" 
d="M481 1044h459v-1044h-168v358h-278l-256 -358h-197l287 381q-126 28 -193 110.5t-67 208.5q0 162 108 253t305 91zM485 504h287v397h-287q-119 0 -183 -50t-64 -146q0 -100 63.5 -150.5t183.5 -50.5z" />
    <glyph glyph-name="uni0450" unicode="&#x450;" horiz-adv-x="1146" 
d="M512 1165l-233 279h196l170 -279h-133zM596 -12q-234 0 -376 147t-142 387q0 238 137 386.5t358 148.5q222 0 356 -132.5t140 -363.5q0 -22 -4 -72h-811v-14q5 -151 94 -244.5t236 -93.5q111 0 191 56.5t106 156.5h170q-31 -160 -154 -261t-301 -101zM264 629h625
q-12 133 -96.5 206.5t-217.5 73.5q-119 0 -209 -78t-102 -202z" />
    <glyph glyph-name="uni0451" unicode="&#x451;" horiz-adv-x="1146" 
d="M289 1311q0 46 30 76t76 30q47 0 78 -30t31 -76q0 -45 -31 -75t-78 -30q-45 0 -75.5 30t-30.5 75zM659 1311q0 45 32 75.5t77 30.5q46 0 76 -30t30 -76q0 -45 -30 -75t-76 -30q-45 0 -77 30.5t-32 74.5zM596 -12q-234 0 -376 147t-142 387q0 238 137 386.5t358 148.5
q222 0 356 -132.5t140 -363.5q0 -22 -4 -72h-811v-14q5 -151 94 -244.5t236 -93.5q111 0 191 56.5t106 156.5h170q-31 -160 -154 -261t-301 -101zM264 629h625q-12 133 -96.5 206.5t-217.5 73.5q-119 0 -209 -78t-102 -202z" />
    <glyph glyph-name="uni0452" unicode="&#x452;" horiz-adv-x="1171" 
d="M651 1057q89 0 162.5 -26t132.5 -81t92 -148.5t33 -219.5v-719q0 -140 -64 -206.5t-208 -66.5h-142v154h131q62 0 88.5 27t26.5 88v712q0 161 -74.5 246.5t-210.5 85.5q-146 0 -230.5 -102t-84.5 -279v-522h-168v1159h-170v144h170v131h168v-131h348v-144h-348v-287
q115 185 348 185z" />
    <glyph glyph-name="uni0453" unicode="&#x453;" horiz-adv-x="808" 
d="M537 1167h-131l174 277h196zM283 0h-168v1044h669v-153h-501v-891z" />
    <glyph glyph-name="uni0454" unicode="&#x454;" horiz-adv-x="1118" 
d="M586 135q110 0 184.5 59.5t99.5 161.5h179q-31 -171 -153.5 -269.5t-311.5 -98.5q-231 0 -368.5 142.5t-137.5 389.5q0 239 141.5 388t368.5 149q189 0 308.5 -99t152.5 -274h-177q-24 106 -98 165.5t-188 59.5q-132 0 -220.5 -86t-109.5 -227h444v-147h-446
q19 -145 108 -229.5t224 -84.5z" />
    <glyph glyph-name="uni0455" unicode="&#x455;" horiz-adv-x="1021" 
d="M72 344h172q5 -94 82.5 -153.5t205.5 -59.5q111 0 181.5 44t70.5 116q0 38 -15 65t-31.5 41.5t-60.5 26t-67.5 15.5t-88.5 11q-5 1 -7 1q-65 8 -112.5 17t-99 23.5t-86.5 35.5t-64.5 50t-43.5 71t-14 95q0 141 115.5 228.5t294.5 85.5q184 -2 299 -86.5t127 -243.5h-172
q-9 81 -79 133.5t-175 52.5q-110 0 -177 -42.5t-67 -114.5q0 -28 8 -49.5t27 -36.5t38 -24.5t54.5 -17t61 -11t73.5 -9.5q57 -7 99 -14t89.5 -19t80.5 -26.5t65 -37.5t51.5 -51.5t31 -68t11.5 -88.5q0 -143 -120 -229t-298 -86q-207 0 -332 93.5t-128 262.5z" />
    <glyph glyph-name="uni0456" unicode="&#x456;" horiz-adv-x="397" 
d="M201 1221q-46 0 -77.5 30.5t-31.5 77.5t31.5 78t77.5 31t77 -31t31 -78t-31 -77.5t-77 -30.5zM115 0v1044h168v-1044h-168z" />
    <glyph glyph-name="uni0457" unicode="&#x457;" horiz-adv-x="397" 
d="M-92 1313q0 46 30 76t76 30q47 0 78 -30t31 -76q0 -45 -31 -75t-78 -30q-46 0 -76 30t-30 75zM279 1313q0 45 31.5 75.5t76.5 30.5q46 0 76.5 -30t30.5 -76q0 -44 -30.5 -74.5t-76.5 -30.5q-45 0 -76.5 30.5t-31.5 74.5zM115 0v1044h168v-1044h-168z" />
    <glyph glyph-name="uni0458" unicode="&#x458;" horiz-adv-x="409" 
d="M211 1221q-46 0 -77.5 30.5t-31.5 77.5t31.5 78t77.5 31t77 -31t31 -78t-31 -77.5t-77 -30.5zM-119 -410v154h131q62 0 88.5 27t26.5 88v1185h168v-1181q0 -140 -64 -206.5t-208 -66.5h-142z" />
    <glyph glyph-name="uni0459" unicode="&#x459;" horiz-adv-x="1689" 
d="M72 0h-66v141h43q82 0 120 53t38 189v661h770v-380h272q179 0 276 -86.5t97 -245.5q0 -158 -97 -245t-276 -87h-440v905h-447v-532q0 -205 -71.5 -289t-218.5 -84zM977 520v-377h246q113 0 171 48.5t58 140.5q0 188 -229 188h-246z" />
    <glyph glyph-name="uni045A" unicode="&#x45a;" horiz-adv-x="1724" 
d="M1012 643h272q180 0 276.5 -83.5t96.5 -237.5q0 -153 -97 -237.5t-276 -84.5h-440v485h-561v-485h-168v1044h168v-405h561v405h168v-401zM1012 143h245q113 0 171.5 46t58.5 133q0 178 -230 178h-245v-357z" />
    <glyph glyph-name="uni045B" unicode="&#x45b;" horiz-adv-x="1171" 
d="M647 1057q91 0 165.5 -26t133.5 -81t92 -148.5t33 -219.5v-582h-168v571q0 161 -74.5 246.5t-210.5 85.5q-146 0 -230.5 -102t-84.5 -279v-522h-168v1159h-170v144h170v131h168v-131h348v-144h-348v-287q115 185 344 185z" />
    <glyph glyph-name="uni045C" unicode="&#x45c;" horiz-adv-x="1062" 
d="M608 1167h-131l174 277h197zM283 0h-168v1044h168v-436h223l325 436h195l-381 -501l414 -543h-203l-348 455h-225v-455z" />
    <glyph glyph-name="uni045E" unicode="&#x45e;" horiz-adv-x="1009" 
d="M498 1165q-145 0 -220.5 74.5t-78.5 206.5h139q0 -162 162 -162q166 0 166 162h139q-3 -132 -81.5 -206.5t-225.5 -74.5zM418 -6l-408 1050h178l322 -833l311 833h178l-481 -1220q-28 -71 -47 -109t-48 -70t-65.5 -43.5t-91.5 -11.5h-200v154h149q48 0 74.5 11.5t41 34.5
t36.5 77z" />
    <glyph glyph-name="uni045F" unicode="&#x45f;" horiz-adv-x="1114" 
d="M831 1044h168v-1044h-358v-276h-168v276h-358v1044h168v-890h548v890z" />
    <glyph glyph-name="uni0490" unicode="&#x490;" horiz-adv-x="1056" 
d="M838 1434v282h178v-446h-699v-1270h-178v1434h699z" />
    <glyph glyph-name="uni0491" unicode="&#x491;" horiz-adv-x="831" 
d="M645 1323h162v-430h-23v-2h-501v-891h-168v1044h530v279z" />
    <glyph glyph-name="uni0E3F" unicode="&#xe3f;" horiz-adv-x="1296" 
d="M897 737q315 -61 315 -342q0 -185 -134.5 -290t-385.5 -105h-4v-203h-156v203h-393v1434h393v208h156v-208q223 -3 344 -100.5t121 -270.5q0 -126 -66 -210t-190 -116zM532 1272h-215v-461h215v461zM975 1042q0 108 -75 169t-212 61v-461q136 0 211.5 61t75.5 170z
M317 651v-489h215v489h-215zM688 162h4q163 0 250.5 63.5t87.5 175.5q0 121 -88.5 185.5t-249.5 64.5h-4v-489z" />
    <glyph glyph-name="Wgrave" unicode="&#x1e80;" horiz-adv-x="1982" 
d="M924 1556l-234 279h197l170 -279h-133zM451 0l-418 1434h186l336 -1205l352 1205h180l340 -1205l338 1205h185l-420 -1434h-213l-328 1137l-325 -1137h-213z" />
    <glyph glyph-name="wgrave" unicode="&#x1e81;" horiz-adv-x="1601" 
d="M735 1167l-233 279h196l170 -279h-133zM354 0l-338 1044h177l260 -849l274 849h156l260 -849l272 849h170l-348 -1044h-184l-252 776l-262 -776h-185z" />
    <glyph glyph-name="Wacute" unicode="&#x1e82;" horiz-adv-x="1982" 
d="M1063 1559h-131l174 276h197zM451 0l-418 1434h186l336 -1205l352 1205h180l340 -1205l338 1205h185l-420 -1434h-213l-328 1137l-325 -1137h-213z" />
    <glyph glyph-name="wacute" unicode="&#x1e83;" horiz-adv-x="1601" 
d="M874 1169h-131l175 277h196zM354 0l-338 1044h177l260 -849l274 849h156l260 -849l272 849h170l-348 -1044h-184l-252 776l-262 -776h-185z" />
    <glyph glyph-name="Wdieresis" unicode="&#x1e84;" horiz-adv-x="1982" 
d="M700 1702q0 46 30.5 76t76.5 30q47 0 77.5 -30t30.5 -76q0 -45 -30.5 -75t-77.5 -30q-46 0 -76.5 30.5t-30.5 74.5zM1071 1702q0 45 32 75.5t77 30.5q46 0 76 -30t30 -76q0 -44 -30 -74.5t-76 -30.5q-45 0 -77 30.5t-32 74.5zM451 0l-418 1434h186l336 -1205l352 1205
h180l340 -1205l338 1205h185l-420 -1434h-213l-328 1137l-325 -1137h-213z" />
    <glyph glyph-name="wdieresis" unicode="&#x1e85;" horiz-adv-x="1601" 
d="M512 1313q0 46 30 76t76 30q47 0 78 -30t31 -76q0 -45 -31 -75t-78 -30q-46 0 -76 30t-30 75zM883 1313q0 45 31.5 75.5t76.5 30.5q46 0 76.5 -30t30.5 -76q0 -44 -30.5 -74.5t-76.5 -30.5q-45 0 -76.5 30.5t-31.5 74.5zM354 0l-338 1044h177l260 -849l274 849h156
l260 -849l272 849h170l-348 -1044h-184l-252 776l-262 -776h-185z" />
    <glyph glyph-name="Ygrave" unicode="&#x1ef2;" horiz-adv-x="1296" 
d="M580 1556l-234 279h197l170 -279h-133zM559 530l-541 904h209l422 -711l428 711h201l-541 -904v-530h-178v530z" />
    <glyph glyph-name="ygrave" unicode="&#x1ef3;" horiz-adv-x="1009" 
d="M432 1167l-233 279h196l170 -279h-133zM418 -6l-408 1050h178l322 -833l311 833h178l-481 -1220q-28 -71 -47 -109t-48 -70t-65.5 -43.5t-91.5 -11.5h-200v154h149q48 0 74.5 11.5t41 34.5t36.5 77z" />
    <glyph glyph-name="uni2010" unicode="&#x2010;" horiz-adv-x="894" 
d="M788 512h-682v141h682v-141z" />
    <glyph glyph-name="endash" unicode="&#x2013;" horiz-adv-x="1239" 
d="M1116 512h-993v141h993v-141z" />
    <glyph glyph-name="emdash" unicode="&#x2014;" horiz-adv-x="1886" 
d="M106 512v141h1674v-141h-1674z" />
    <glyph glyph-name="uni2015" unicode="&#x2015;" horiz-adv-x="1886" 
d="M106 512v141h1674v-141h-1674z" />
    <glyph glyph-name="quoteleft" unicode="&#x2018;" horiz-adv-x="421" 
d="M231 954q-73 0 -117 60.5t-44 148.5q0 130 76.5 205t211.5 78v-96q-89 -1 -130.5 -51t-41.5 -113q0 -19 2 -27q25 25 70 25q48 0 78.5 -29t30.5 -82q0 -52 -36.5 -85.5t-99.5 -33.5z" />
    <glyph glyph-name="quoteright" unicode="&#x2019;" horiz-adv-x="421" 
d="M190 1446q73 0 117.5 -60.5t44.5 -148.5q0 -130 -77 -205t-212 -78v97q89 1 131 50.5t42 112.5q0 15 -3 27q-24 -24 -69 -24q-48 0 -78.5 28.5t-30.5 81.5q0 52 36 85.5t99 33.5z" />
    <glyph glyph-name="quotesinglbase" unicode="&#x201a;" horiz-adv-x="421" 
d="M190 215q73 0 117.5 -60.5t44.5 -148.5q0 -130 -77 -204.5t-212 -77.5v96q89 1 131 51t42 113q0 14 -3 26q-24 -24 -69 -24q-48 0 -78.5 28.5t-30.5 81.5q0 52 36 85.5t99 33.5z" />
    <glyph glyph-name="quotedblleft" unicode="&#x201c;" horiz-adv-x="776" 
d="M231 954q-73 0 -117 60.5t-44 148.5q0 130 76.5 205t211.5 78v-96q-89 -1 -130.5 -51t-41.5 -113q0 -19 2 -27q25 25 70 25q48 0 78.5 -29t30.5 -82q0 -52 -36.5 -85.5t-99.5 -33.5zM586 954q-73 0 -117.5 60.5t-44.5 148.5q0 130 77 205t212 78v-96q-89 -1 -130.5 -51
t-41.5 -113q0 -19 2 -27q25 25 69 25q48 0 78.5 -29t30.5 -82q0 -52 -36 -85.5t-99 -33.5z" />
    <glyph glyph-name="quotedblright" unicode="&#x201d;" horiz-adv-x="776" 
d="M190 1446q73 0 117.5 -60.5t44.5 -148.5q0 -130 -77 -205t-212 -78v97q89 1 131 50.5t42 112.5q0 15 -3 27q-24 -24 -69 -24q-48 0 -78.5 28.5t-30.5 81.5q0 52 36 85.5t99 33.5zM545 1446q73 0 117.5 -60.5t44.5 -148.5q0 -130 -77 -205t-212 -78v97q89 1 130.5 50.5
t41.5 112.5q0 19 -2 27q-24 -24 -70 -24q-48 0 -78 28.5t-30 81.5q0 52 36 85.5t99 33.5z" />
    <glyph glyph-name="quotedblbase" unicode="&#x201e;" horiz-adv-x="776" 
d="M190 215q73 0 117.5 -60.5t44.5 -148.5q0 -130 -77 -204.5t-212 -77.5v96q89 1 131 51t42 113q0 14 -3 26q-24 -24 -69 -24q-48 0 -78.5 28.5t-30.5 81.5q0 52 36 85.5t99 33.5zM545 215q73 0 117.5 -60.5t44.5 -148.5q0 -130 -77 -204.5t-212 -77.5v96q89 1 130.5 51
t41.5 113q0 18 -2 26q-24 -24 -70 -24q-48 0 -78 28.5t-30 81.5q0 52 36 85.5t99 33.5z" />
    <glyph glyph-name="dagger" unicode="&#x2020;" horiz-adv-x="1058" 
d="M604 1001h385v-143h-385v-858h-149v858h-385v143h385v433h149v-433z" />
    <glyph glyph-name="daggerdbl" unicode="&#x2021;" horiz-adv-x="1114" 
d="M1026 1075v-143h-393v-430h393v-144h-393v-358h-152v358h-393v144h393v430h-393v143h393v359h152v-359h393z" />
    <glyph glyph-name="bullet" unicode="&#x2022;" horiz-adv-x="845" 
d="M135 702q0 124 80.5 199.5t206.5 75.5q128 0 208.5 -75t80.5 -200q0 -124 -80.5 -199t-208.5 -75q-126 0 -206.5 75t-80.5 199z" />
    <glyph glyph-name="ellipsis" unicode="&#x2026;" horiz-adv-x="1208" 
d="M94 102q0 52 32.5 83.5t84.5 31.5t84.5 -31.5t32.5 -83.5t-32.5 -83t-84.5 -31t-84.5 31t-32.5 83zM487 102q0 52 32.5 83.5t84.5 31.5t84.5 -31.5t32.5 -83.5t-32.5 -83t-84.5 -31t-84.5 31t-32.5 83zM881 102q0 52 32.5 83.5t83.5 31.5q52 0 84.5 -31.5t32.5 -83.5
t-32.5 -83t-84.5 -31t-84 31t-32 83z" />
    <glyph glyph-name="perthousand" unicode="&#x2030;" horiz-adv-x="2650" 
d="M111 1098q0 152 102 250t258 98t258 -98t102 -250q0 -149 -102.5 -246.5t-257.5 -97.5t-257.5 97.5t-102.5 246.5zM518 0h-166l977 1434h166zM680 1098q0 92 -59 152.5t-150 60.5t-150 -60.5t-59 -152.5q0 -91 59 -150t150 -59t150 59t59 150zM1012 332q0 152 102 250
t258 98t258.5 -98t102.5 -250q0 -149 -102.5 -246.5t-258.5 -97.5q-155 0 -257.5 97.5t-102.5 246.5zM1819 332q0 152 102 250t258 98t258.5 -98t102.5 -250q0 -149 -102.5 -246.5t-258.5 -97.5q-155 0 -257.5 97.5t-102.5 246.5zM1581 332q0 92 -59 152.5t-150 60.5
t-150 -60.5t-59 -152.5q0 -91 59 -150t150 -59t150 59t59 150zM2388 332q0 92 -59 152.5t-150 60.5t-150 -60.5t-59 -152.5q0 -91 59 -150t150 -59t150 59t59 150z" />
    <glyph glyph-name="second" unicode="&#x2033;" horiz-adv-x="782" 
d="M223 1047h-108l73 387h158zM569 1047h-110l76 387h157z" />
    <glyph glyph-name="guilsinglleft" unicode="&#x2039;" horiz-adv-x="626" 
d="M389 1044h170l-321 -522l321 -522h-170l-326 522z" />
    <glyph glyph-name="guilsinglright" unicode="&#x203a;" horiz-adv-x="626" 
d="M389 522l-321 522h170l325 -522l-325 -522h-170z" />
    <glyph glyph-name="uni2042" unicode="&#x2042;" horiz-adv-x="1959" 
d="M1262 1364l47 -117l-250 -92l170 -201l-90 -82l-172 215l-170 -215l-88 82l172 203l-250 92l47 115l237 -109l-4 263h117l-6 -265zM770 395l47 -116l-250 -93l170 -200l-90 -82l-172 215l-170 -215l-88 82l172 202l-250 93l47 114l238 -108l-4 262h117l-7 -264zM1774 395
l47 -116l-250 -93l170 -200l-90 -82l-172 215l-170 -215l-88 82l172 202l-250 93l47 114l237 -108l-4 262h117l-6 -264z" />
    <glyph glyph-name="fraction" unicode="&#x2044;" horiz-adv-x="380" 
d="M-197 0h-135l910 1434h135z" />
    <glyph glyph-name="uni2051" unicode="&#x2051;" horiz-adv-x="956" 
d="M770 1364l47 -117l-250 -92l170 -201l-90 -82l-172 215l-170 -215l-88 82l172 203l-250 92l47 115l238 -109l-4 263h117l-7 -265zM770 393l47 -117l-250 -92l170 -200l-90 -82l-172 215l-170 -215l-88 82l172 202l-250 93l47 114l238 -108l-4 262h117l-7 -264z" />
    <glyph glyph-name="uni2070" unicode="&#x2070;" horiz-adv-x="690" 
d="M45 1268q0 173 82 279t219 106q136 0 217.5 -106t81.5 -279t-81.5 -279t-217.5 -106q-137 0 -219 106t-82 279zM524 1268q0 122 -48 198t-130 76q-83 0 -131.5 -76t-48.5 -198t48.5 -197.5t131.5 -75.5q82 0 130 75.5t48 197.5z" />
    <glyph glyph-name="uni2074" unicode="&#x2074;" horiz-adv-x="696" 
d="M41 1186l350 452h144v-452h120v-109h-120v-184h-115v184h-379v109zM420 1186v330l-254 -330h254z" />
    <glyph glyph-name="uni2075" unicode="&#x2075;" horiz-adv-x="643" 
d="M86 1638h465v-106h-375l-14 -217q64 80 182 80q112 0 181 -70.5t69 -183.5q0 -117 -75 -188.5t-195 -71.5q-111 0 -186 62t-85 163h117q9 -53 52 -85t104 -32q64 0 105.5 43t41.5 109t-41.5 106.5t-107.5 40.5q-50 1 -89 -21t-61 -61h-108z" />
    <glyph glyph-name="uni2076" unicode="&#x2076;" horiz-adv-x="661" 
d="M45 1253q0 182 83 291t224 109q100 0 171.5 -58t86.5 -161h-112q-12 58 -52 90t-96 32q-86 0 -139 -73t-53 -193v-59q12 59 64 102t138 43q116 0 186 -67.5t70 -178.5q0 -113 -74 -180t-198 -67q-147 0 -223 100.5t-76 269.5zM498 1130q0 68 -42.5 110t-111.5 42
t-112.5 -41t-43.5 -108t43.5 -109.5t112.5 -42.5t111.5 41t42.5 108z" />
    <glyph glyph-name="uni2077" unicode="&#x2077;" horiz-adv-x="587" 
d="M16 1528v108h535v-100l-334 -645h-127l334 639z" />
    <glyph glyph-name="uni2078" unicode="&#x2078;" horiz-adv-x="669" 
d="M47 1094q0 69 40 119t106 69q-55 18 -89 61.5t-34 106.5q0 89 74.5 146t191.5 57q116 0 191 -57t75 -146q0 -125 -121 -168q64 -19 103 -69t39 -119q0 -93 -78 -152t-209 -59q-130 0 -209.5 59.5t-79.5 151.5zM483 1438q0 52 -41.5 85t-105.5 33t-106 -33t-42 -85
q0 -53 42 -85t106 -32q65 0 106 32t41 85zM504 1104q0 54 -48 90.5t-120 36.5t-120 -36.5t-48 -90.5q0 -53 48 -88t120 -35t120 35t48 88z" />
    <glyph glyph-name="uni2079" unicode="&#x2079;" horiz-adv-x="661" 
d="M616 1282q0 -182 -83 -290.5t-224 -108.5q-100 0 -171.5 58t-86.5 161h113q12 -58 51.5 -90.5t95.5 -32.5q86 0 139.5 73t53.5 193v60q-12 -59 -64.5 -102.5t-138.5 -43.5q-116 0 -186 67.5t-70 178.5q0 113 74 180.5t198 67.5q147 0 223 -101t76 -270zM164 1405
q0 -68 42 -110t111 -42t112.5 41.5t43.5 108.5t-43.5 109t-112.5 42t-111 -41t-42 -108z" />
    <glyph glyph-name="uni2080" unicode="&#x2080;" horiz-adv-x="690" 
d="M45 168q0 173 82 279t219 106q136 0 217.5 -106t81.5 -279t-81.5 -279t-217.5 -106q-137 0 -219 106t-82 279zM524 168q0 122 -48 198t-130 76q-83 0 -131.5 -76t-48.5 -198t48.5 -197t131.5 -75q82 0 130 75t48 197z" />
    <glyph glyph-name="uni2081" unicode="&#x2081;" horiz-adv-x="419" 
d="M197 444v97h112v-746h-114v500q-14 -21 -41 -21h-134v113h134q20 0 31.5 16.5t11.5 40.5z" />
    <glyph glyph-name="uni2082" unicode="&#x2082;" horiz-adv-x="645" 
d="M168 281h-115v14q0 117 75.5 187.5t190.5 70.5q124 0 197.5 -64.5t73.5 -169.5q0 -75 -38 -128t-110 -109l-217 -174h371v-113h-545v107l303 237q56 46 85.5 86t29.5 92q0 56 -41 90.5t-106 34.5q-70 0 -112 -39.5t-42 -111.5v-10z" />
    <glyph glyph-name="uni2083" unicode="&#x2083;" horiz-adv-x="665" 
d="M180 319h-117q1 110 73 172t194 62t195 -57.5t73 -151.5q0 -60 -35.5 -99.5t-87.5 -54.5q64 -12 101.5 -57.5t37.5 -114.5q0 -106 -78 -170.5t-208 -64.5q-135 0 -209 64.5t-76 183.5h117q1 -67 47 -103.5t123 -36.5q70 0 116 33.5t46 89.5q0 60 -44.5 90.5t-119.5 30.5
h-54v84h48q70 0 112.5 30.5t42.5 82.5q0 51 -39 81.5t-104 30.5q-69 0 -111 -33.5t-43 -91.5z" />
    <glyph glyph-name="uni2084" unicode="&#x2084;" horiz-adv-x="696" 
d="M41 88l350 453h144v-453h120v-108h-120v-185h-115v185h-379v108zM420 88v330l-254 -330h254z" />
    <glyph glyph-name="uni2085" unicode="&#x2085;" horiz-adv-x="643" 
d="M86 541h465v-107h-375l-14 -217q64 80 182 80q112 0 181 -70.5t69 -183.5q0 -117 -75 -188.5t-195 -71.5q-111 0 -186 62t-85 163h117q9 -53 52 -85t104 -32q64 0 105.5 43t41.5 109t-41.5 106.5t-107.5 40.5q-102 3 -150 -81h-108z" />
    <glyph glyph-name="uni2086" unicode="&#x2086;" horiz-adv-x="661" 
d="M45 154q0 182 83 290.5t224 108.5q100 0 171.5 -58t86.5 -161h-112q-12 58 -52 90.5t-96 32.5q-86 0 -139 -73.5t-53 -193.5v-59q12 59 64 102t138 43q117 0 186.5 -67t69.5 -178q0 -113 -74 -180.5t-198 -67.5q-147 0 -223 101t-76 270zM498 31q0 68 -42.5 109.5
t-111.5 41.5t-112.5 -41t-43.5 -108t43.5 -109.5t112.5 -42.5t111.5 41.5t42.5 108.5z" />
    <glyph glyph-name="uni2087" unicode="&#x2087;" horiz-adv-x="587" 
d="M16 432v109h535v-101l-334 -645h-127l334 639z" />
    <glyph glyph-name="uni2088" unicode="&#x2088;" horiz-adv-x="669" 
d="M47 -6q0 69 40 119t106 69q-55 18 -89 61.5t-34 106.5q0 89 74.5 146t191.5 57q116 0 191 -57t75 -146q0 -125 -121 -168q64 -19 103 -69t39 -119q0 -93 -78 -152t-209 -59q-130 0 -209.5 59.5t-79.5 151.5zM483 338q0 52 -42 85.5t-105 33.5q-64 0 -106 -33.5t-42 -85.5
q0 -53 42 -85t106 -32q65 0 106 32t41 85zM504 4q0 54 -48 90.5t-120 36.5t-120 -36.5t-48 -90.5q0 -53 48 -88t120 -35t120 35t48 88z" />
    <glyph glyph-name="uni2089" unicode="&#x2089;" horiz-adv-x="661" 
d="M616 182q0 -182 -83 -290.5t-224 -108.5q-100 0 -171.5 58t-86.5 161h113q12 -58 51.5 -90.5t95.5 -32.5q86 0 139.5 73t53.5 193v60q-12 -59 -64.5 -102.5t-138.5 -43.5q-116 0 -186 67.5t-70 178.5q0 113 74 180.5t198 67.5q147 0 223 -101t76 -270zM164 305
q0 -68 42 -109.5t111 -41.5t112.5 41t43.5 108t-43.5 109.5t-112.5 42.5t-111 -41t-42 -109z" />
    <glyph glyph-name="franc" unicode="&#x20a3;" horiz-adv-x="1118" 
d="M1067 1434v-164h-713v-479h590v-164h-590v-230h324v-157h-324v-240h-178v240h-180v157h180v1037h891z" />
    <glyph glyph-name="uni20A8" unicode="&#x20a8;" horiz-adv-x="1306" 
d="M139 1270v164h1098l-20 -140h-308q98 -95 115 -233h195l-21 -139h-174q-19 -124 -98.5 -213t-202.5 -123l321 -586h-200l-297 551h-408v164h398q120 0 200.5 56t102.5 151h-701v139h701q-20 96 -100.5 152.5t-200.5 56.5h-400z" />
    <glyph glyph-name="Euro" unicode="&#x20ac;" horiz-adv-x="1343" 
d="M188 494h-141v139h133q-2 25 -2 84q0 38 2 65h-133v140h141q31 245 178 384.5t373 139.5t367.5 -128.5t163.5 -344.5h-187q-21 144 -108.5 228.5t-229.5 84.5q-153 0 -252.5 -96.5t-121.5 -267.5h395l-21 -140h-387q-2 -25 -2 -63q0 -36 4 -86h351l-21 -139h-319
q31 -164 130 -255.5t247 -91.5q140 0 224.5 84t110.5 230h185q-25 -217 -164 -345t-363 -128q-222 0 -369 134.5t-184 371.5z" />
    <glyph glyph-name="uni20BD" unicode="&#x20bd;" horiz-adv-x="1339" 
d="M793 551h-342v-164h514v-164h-514v-223h-179v223h-221v164h221v164h-221v164h221v719h521q216 0 345.5 -120t129.5 -321t-130 -321.5t-345 -120.5zM778 1270h-327v-555h325q141 0 225 75.5t84 202.5t-83 202t-224 75z" />
    <glyph glyph-name="uni20BF" unicode="&#x20bf;" horiz-adv-x="1265" 
d="M139 0v1434h197v215h147v-215h146v215h147v-226q164 -23 255 -116t91 -244q0 -126 -66 -210t-190 -116q316 -61 316 -342q0 -164 -106 -265.5t-300 -121.5v-205h-147v197h-148v-197h-147v197h-195zM655 1272h-338v-461h338q138 0 213.5 61t75.5 170q0 108 -75.5 169
t-213.5 61zM662 651h-345v-489h345q163 0 250 63.5t87 175.5q0 121 -88 185.5t-249 64.5z" />
    <glyph glyph-name="uni2116" unicode="&#x2116;" horiz-adv-x="2334" 
d="M1749 485q-209 0 -336 133t-127 349t127 347.5t336 131.5q207 0 335 -132t128 -347t-128 -348.5t-335 -133.5zM313 0h-174v1434h156l678 -1080v1080h176v-1434h-156l-680 1079v-1079zM1749 635q131 0 210 90.5t79 241.5q0 149 -79 239t-210 90q-132 0 -211.5 -90
t-79.5 -239q0 -151 79.5 -241.5t211.5 -90.5z" />
    <glyph glyph-name="trademark" unicode="&#x2122;" horiz-adv-x="1433" 
d="M61 1323v111h488v-111h-182v-440h-123v440h-183zM612 883v551h168l181 -402l178 402h168v-551h-115v415l-184 -415h-101l-180 415v-415h-115z" />
    <glyph glyph-name="uni2126" unicode="&#x2126;" horiz-adv-x="1517" 
d="M1405 0h-514v291q176 97 260 222.5t84 293.5q0 211 -135 346t-342 135q-206 0 -340.5 -135t-134.5 -346q0 -168 84 -293.5t260 -222.5v-291h-512v164h358v67q-373 172 -373 584q0 188 85 332.5t234 221.5t339 77q142 0 264 -45t209 -126t136.5 -199t49.5 -259
q0 -205 -93.5 -354.5t-279.5 -231.5v-67h361v-164z" />
    <glyph glyph-name="uni2153" unicode="&#x2153;" horiz-adv-x="1466" 
d="M197 1339v97h112v-746h-114v500q-14 -21 -41 -21h-134v113h134q20 0 31.5 16.5t11.5 40.5zM223 0h-135l909 1434h136zM981 524h-117q1 110 72.5 172t193.5 62t195.5 -57.5t73.5 -151.5q0 -60 -35.5 -99.5t-87.5 -54.5q64 -12 101.5 -57.5t37.5 -114.5
q0 -106 -78.5 -170.5t-208.5 -64.5q-135 0 -208.5 64.5t-75.5 183.5h117q1 -67 46.5 -103.5t122.5 -36.5q70 0 116 33.5t46 89.5q0 60 -44.5 90.5t-119.5 30.5h-53v84h47q70 0 113 30.5t43 82.5q0 51 -39 81.5t-104 30.5q-69 0 -111 -33.5t-43 -91.5z" />
    <glyph glyph-name="uni2155" unicode="&#x2155;" horiz-adv-x="1443" 
d="M197 1339v97h112v-746h-114v500q-14 -21 -41 -21h-134v113h134q20 0 31.5 16.5t11.5 40.5zM223 0h-135l909 1434h136zM887 745h465v-106h-375l-14 -217q64 80 182 80q112 0 181 -70.5t69 -183.5q0 -117 -75.5 -188.5t-195.5 -71.5q-110 0 -185 62t-85 163h117
q9 -53 51.5 -85t103.5 -32q64 0 106 43t42 109t-42 106.5t-108 40.5q-101 3 -149 -82h-109z" />
    <glyph glyph-name="uni2156" unicode="&#x2156;" horiz-adv-x="1669" 
d="M168 1174h-115v14q0 117 75.5 187.5t190.5 70.5q124 0 197.5 -64.5t73.5 -169.5q0 -75 -38 -128t-110 -109l-217 -174h371v-113h-545v107l303 237q56 46 85.5 86t29.5 92q0 56 -41 90.5t-106 34.5q-70 0 -112 -39.5t-42 -111.5v-10zM449 0h-136l910 1434h135zM1112 745
h465v-106h-375l-14 -217q64 80 182 80q112 0 181 -70.5t69 -183.5q0 -117 -75 -188.5t-195 -71.5q-111 0 -186 62t-85 163h117q9 -53 52 -85t104 -32q64 0 105.5 43t41.5 109t-41.5 106.5t-107.5 40.5q-50 1 -89 -21t-61 -61h-108z" />
    <glyph glyph-name="uni2157" unicode="&#x2157;" horiz-adv-x="1689" 
d="M180 1217h-117q1 110 73 171.5t194 61.5t195 -57.5t73 -151.5q0 -60 -35.5 -99.5t-87.5 -54.5q64 -12 101.5 -57.5t37.5 -114.5q0 -106 -78 -170.5t-208 -64.5q-135 0 -209 64.5t-76 183.5h117q1 -67 47 -103.5t123 -36.5q70 0 116 33.5t46 89.5q0 60 -44.5 90.5
t-119.5 30.5h-54v84h48q70 0 112.5 30.5t42.5 82.5q0 51 -39 81.5t-104 30.5q-70 0 -111.5 -33t-42.5 -91zM469 0h-135l909 1434h135zM1133 745h464v-106h-374l-15 -217q64 80 183 80q112 0 180.5 -70.5t68.5 -183.5q0 -117 -75 -188.5t-195 -71.5q-110 0 -185 62t-85 163
h117q9 -53 51.5 -85t103.5 -32q64 0 106 43t42 109t-42 106.5t-108 40.5q-101 3 -149 -82h-109z" />
    <glyph glyph-name="uni2158" unicode="&#x2158;" horiz-adv-x="1720" 
d="M41 981l350 453h144v-453h120v-109h-120v-184h-115v184h-379v109zM500 0h-135l909 1434h135zM420 981v330l-254 -330h254zM1163 745h465v-106h-375l-14 -217q64 80 182 80q112 0 181 -70.5t69 -183.5q0 -117 -75 -188.5t-195 -71.5q-111 0 -186 62t-85 163h117
q9 -53 52 -85t104 -32q64 0 105.5 43t41.5 109t-41.5 106.5t-107.5 40.5q-50 1 -89 -21t-61 -61h-108z" />
    <glyph glyph-name="uni2159" unicode="&#x2159;" horiz-adv-x="1462" 
d="M197 1339v97h112v-746h-114v500q-14 -21 -41 -21h-134v113h134q20 0 31.5 16.5t11.5 40.5zM223 0h-135l909 1434h136zM846 358q0 182 83 291t224 109q100 0 171.5 -58t86.5 -161h-113q-12 58 -51.5 90.5t-95.5 32.5q-86 0 -139.5 -73.5t-53.5 -193.5v-59q12 59 64.5 102
t138.5 43q117 0 186.5 -67t69.5 -178q0 -113 -74 -180.5t-198 -67.5q-147 0 -223 100.5t-76 269.5zM1298 236q0 68 -42 109.5t-111 41.5t-112.5 -41t-43.5 -108t43.5 -109.5t112.5 -42.5t111 41t42 109z" />
    <glyph glyph-name="oneeighth" unicode="&#x215b;" horiz-adv-x="1470" 
d="M197 1339v97h112v-746h-114v500q-14 -21 -41 -21h-134v113h134q20 0 31.5 16.5t11.5 40.5zM223 0h-135l909 1434h136zM848 199q0 69 39.5 119t105.5 69q-55 18 -89 61.5t-34 106.5q0 89 75 146t192 57q116 0 191 -57t75 -146q0 -125 -121 -168q64 -19 102.5 -69
t38.5 -119q0 -93 -77.5 -152t-208.5 -59q-130 0 -209.5 59.5t-79.5 151.5zM1284 543q0 52 -42 85.5t-105 33.5q-64 0 -106 -33.5t-42 -85.5q0 -53 42 -85t106 -32q65 0 106 32t41 85zM1305 209q0 54 -48 90.5t-120 36.5t-120 -36.5t-48 -90.5q0 -53 48 -88t120 -35t120 35
t48 88z" />
    <glyph glyph-name="threeeighths" unicode="&#x215c;" horiz-adv-x="1716" 
d="M180 1217h-117q1 110 73 171.5t194 61.5t195 -57.5t73 -151.5q0 -60 -35.5 -99.5t-87.5 -54.5q64 -12 101.5 -57.5t37.5 -114.5q0 -106 -78 -170.5t-208 -64.5q-135 0 -209 64.5t-76 183.5h117q1 -67 47 -103.5t123 -36.5q70 0 116 33.5t46 89.5q0 60 -44.5 90.5
t-119.5 30.5h-54v84h48q70 0 112.5 30.5t42.5 82.5q0 51 -39 81.5t-104 30.5q-70 0 -111.5 -33t-42.5 -91zM469 0h-135l909 1434h135zM1094 199q0 69 39.5 119t105.5 69q-55 18 -89 61.5t-34 106.5q0 89 74.5 146t191.5 57q116 0 191.5 -57t75.5 -146q0 -125 -121 -168
q64 -19 102.5 -69t38.5 -119q0 -93 -78 -152t-209 -59q-130 0 -209 59.5t-79 151.5zM1530 543q0 52 -42 85.5t-106 33.5q-63 0 -105 -33.5t-42 -85.5q0 -53 41.5 -85t105.5 -32q65 0 106.5 32t41.5 85zM1550 209q0 54 -48 90.5t-120 36.5t-120 -36.5t-48 -90.5q0 -53 48 -88
t120 -35t120 35t48 88z" />
    <glyph glyph-name="fiveeighths" unicode="&#x215d;" horiz-adv-x="1693" 
d="M86 1434h465v-107h-375l-14 -217q64 80 182 80q112 0 181 -70.5t69 -183.5q0 -117 -75 -188.5t-195 -71.5q-111 0 -186 62t-85 163h117q9 -53 52 -85t104 -32q64 0 105.5 43t41.5 109t-41.5 106.5t-107.5 40.5q-50 1 -89 -21t-61 -61h-108zM446 0h-135l910 1434h135z
M1071 199q0 69 40 119t106 69q-55 18 -89 61.5t-34 106.5q0 89 74.5 146t191.5 57q116 0 191 -57t75 -146q0 -125 -121 -168q64 -19 103 -69t39 -119q0 -93 -78 -152t-209 -59q-130 0 -209.5 59.5t-79.5 151.5zM1507 543q0 52 -42 85.5t-105 33.5q-64 0 -106 -33.5
t-42 -85.5q0 -53 42 -85t106 -32q65 0 106 32t41 85zM1528 209q0 54 -48 90.5t-120 36.5t-120 -36.5t-48 -90.5q0 -53 48 -88t120 -35t120 35t48 88z" />
    <glyph glyph-name="seveneighths" unicode="&#x215e;" horiz-adv-x="1585" 
d="M338 0h-135l909 1434h135zM16 1323v109h535v-101l-334 -645h-127l334 639zM963 199q0 69 39.5 119t105.5 69q-55 18 -89 61.5t-34 106.5q0 89 74.5 146t191.5 57q116 0 191.5 -57t75.5 -146q0 -125 -121 -168q64 -19 102.5 -69t38.5 -119q0 -93 -78 -152t-209 -59
q-130 0 -209 59.5t-79 151.5zM1399 543q0 52 -42 85.5t-106 33.5q-63 0 -105 -33.5t-42 -85.5q0 -53 41.5 -85t105.5 -32q65 0 106.5 32t41.5 85zM1419 209q0 54 -48 90.5t-120 36.5t-120 -36.5t-48 -90.5q0 -53 48 -88t120 -35t120 35t48 88z" />
    <glyph glyph-name="arrowleft" unicode="&#x2190;" horiz-adv-x="1343" 
d="M94 584l568 565l106 -107l-383 -383h834v-151h-834l383 -383l-106 -107z" />
    <glyph glyph-name="arrowup" unicode="&#x2191;" horiz-adv-x="1318" 
d="M735 66h-151v833l-383 -383l-107 107l565 565l566 -565l-107 -107l-383 383v-833z" />
    <glyph glyph-name="arrowright" unicode="&#x2192;" horiz-adv-x="1343" 
d="M1249 584l-567 -566l-107 107l383 383h-833v151h833l-383 383l107 107z" />
    <glyph glyph-name="arrowdown" unicode="&#x2193;" horiz-adv-x="1318" 
d="M584 354v834h151v-834l383 383l107 -106l-566 -565l-565 565l107 106z" />
    <glyph glyph-name="arrowboth" unicode="&#x2194;" horiz-adv-x="1779" 
d="M727 166l-106 -107l-527 525l527 524l106 -107l-342 -342h1010l-342 342l106 107l527 -524l-527 -525l-106 107l342 342h-1010z" />
    <glyph glyph-name="arrowupdn" unicode="&#x2195;" horiz-adv-x="1236" 
d="M1143 471l-525 -526l-524 526l107 107l342 -342l-2 950l-342 -342l-105 106l522 527l527 -527l-107 -106l-344 342l2 -950l342 342z" />
    <glyph glyph-name="uni2196" unicode="&#x2196;" horiz-adv-x="1087" 
d="M381 893l612 -610l-106 -107l-611 610v-542h-151v800h801v-151h-545z" />
    <glyph glyph-name="uni2197" unicode="&#x2197;" horiz-adv-x="1087" 
d="M811 788l-610 -612l-107 107l611 610h-543v151h801v-800h-152v544z" />
    <glyph glyph-name="uni2198" unicode="&#x2198;" horiz-adv-x="1087" 
d="M707 328l-613 610l107 106l610 -610v543h152v-801h-801v152h545z" />
    <glyph glyph-name="uni2199" unicode="&#x2199;" horiz-adv-x="1087" 
d="M276 432l611 612l106 -106l-610 -610h543v-152h-801v801h151v-545z" />
    <glyph glyph-name="partialdiff" unicode="&#x2202;" horiz-adv-x="1210" 
d="M84 475q0 142 67 252t176 166.5t240 56.5q108 0 199.5 -32.5t144.5 -92.5q-132 424 -673 475v146q183 -9 333 -66t249.5 -144.5t167.5 -203t98 -239t30 -254.5q0 -160 -59 -283.5t-178 -195.5t-283 -72q-228 0 -370 137t-142 350zM596 135q158 0 252 98.5t94 260.5
q0 146 -100.5 232.5t-245.5 86.5q-150 0 -245 -95t-95 -243q0 -150 95 -245t245 -95z" />
    <glyph glyph-name="emptyset" unicode="&#x2205;" horiz-adv-x="1261" 
d="M1147 1186l-100 -105q129 -145 129 -354q0 -231 -155 -382.5t-390 -151.5q-195 0 -338 106l-92 -96l-99 92l95 98q-111 143 -111 334q0 230 155 382.5t390 152.5q175 0 315 -91l103 107zM256 727q0 -122 59 -211l519 539q-88 57 -203 57q-159 0 -267 -111t-108 -274z
M631 342q159 0 267 111t108 274q0 132 -74 236l-526 -547q96 -74 225 -74z" />
    <glyph glyph-name="uni2206" unicode="&#x2206;" horiz-adv-x="1390" 
d="M1339 0h-1288v129l539 1305h211l538 -1305v-129zM688 1253l-434 -1089h879z" />
    <glyph glyph-name="product" unicode="&#x220f;" horiz-adv-x="1515" 
d="M66 1434h1384v-164h-186v-1487h-179v1487h-655v-1487h-178v1487h-186v164z" />
    <glyph glyph-name="summation" unicode="&#x2211;" horiz-adv-x="1263" 
d="M80 -217v147l586 701l-545 655v148h1044v-156h-809l486 -588v-115l-537 -636h877v-156h-1102z" />
    <glyph glyph-name="minus" unicode="&#x2212;" 
d="M954 516h-835v141h835v-141z" />
    <glyph glyph-name="radical" unicode="&#x221a;" horiz-adv-x="1189" 
d="M518 0l-315 748l-119 -58l-57 133l266 125l305 -741l373 1227h170l-443 -1434h-180z" />
    <glyph glyph-name="infinity" unicode="&#x221e;" horiz-adv-x="1640" 
d="M1200 195q-111 0 -196 57.5t-187 208.5q-102 -152 -186.5 -209t-194.5 -57q-166 0 -264 113t-98 280q0 166 98 278.5t264 112.5q111 0 197 -57.5t186 -206.5q102 150 186.5 207t194.5 57q111 0 195.5 -53.5t127 -141.5t42.5 -196q0 -167 -99 -280t-266 -113zM444 346
q77 0 139.5 51.5t149.5 188.5q-87 137 -149.5 189t-139.5 52q-99 0 -157 -65.5t-58 -173.5q0 -112 57.5 -177t157.5 -65zM903 588q86 -137 149 -189.5t140 -52.5q100 0 157.5 65t57.5 177q0 108 -58 173.5t-157 65.5q-78 0 -141 -51.5t-148 -187.5z" />
    <glyph glyph-name="integral" unicode="&#x222b;" horiz-adv-x="802" 
d="M61 -217v154h142q62 0 88 26.5t26 87.5v1110q0 140 64.5 206.5t208.5 66.5h151v-154h-141q-62 0 -88.5 -27t-26.5 -88v-1110q0 -140 -64 -206t-208 -66h-152z" />
    <glyph glyph-name="approxequal" unicode="&#x2248;" 
d="M266 633h-141q0 139 63.5 216t173.5 77q51 0 95 -14.5t74 -35.5t56 -42t54.5 -35.5t56.5 -14.5q111 0 111 144h141q0 -138 -64 -214.5t-175 -76.5q-52 0 -96 14.5t-73.5 34.5t-56 40.5t-54.5 35t-56 14.5q-109 0 -109 -143zM266 186h-141q0 139 63.5 216t173.5 77
q51 0 95 -14.5t74 -35.5t56 -41.5t54.5 -35t56.5 -14.5q111 0 111 143h141q0 -138 -64 -214.5t-175 -76.5q-63 0 -116 22t-83 48t-66.5 48t-70.5 22q-109 0 -109 -144z" />
    <glyph glyph-name="notequal" unicode="&#x2260;" 
d="M934 850v-143h-277l-96 -285h373v-141h-422l-68 -203h-147l68 203h-226v141h275l96 285h-371v143h418l66 192h147l-65 -192h229z" />
    <glyph glyph-name="lessequal" unicode="&#x2264;" 
d="M926 252l-779 348v160l779 348v-164l-590 -264l590 -264v-164zM926 0h-779v143h779v-143z" />
    <glyph glyph-name="greaterequal" unicode="&#x2265;" 
d="M147 1108l779 -348v-160l-779 -348v164l590 264l-590 264v164zM926 0h-779v143h779v-143z" />
    <glyph glyph-name="dotmath" unicode="&#x22c5;" horiz-adv-x="421" 
d="M94 584q0 52 32.5 83t84.5 31t84.5 -31t32.5 -83t-32.5 -83.5t-84.5 -31.5t-84.5 31.5t-32.5 83.5z" />
    <glyph glyph-name="filledbox" unicode="&#x25a0;" horiz-adv-x="1720" 
d="M139 0v1434h1442v-1434h-1442z" />
    <glyph glyph-name="uni25A1" unicode="&#x25a1;" horiz-adv-x="1714" 
d="M139 0v1434h1436v-1434h-1436zM1405 1278h-1096v-1122h1096v1122z" />
    <glyph glyph-name="uni25AF" unicode="&#x25af;" horiz-adv-x="1239" 
d="M139 0v1434h961v-1434h-961zM928 1278h-619v-1122h619v1122z" />
    <glyph glyph-name="triagup" unicode="&#x25b2;" horiz-adv-x="1740" 
d="M31 0l841 1458l838 -1458h-1679z" />
    <glyph glyph-name="uni25B3" unicode="&#x25b3;" horiz-adv-x="1740" 
d="M31 0l841 1458l838 -1458h-1679zM1442 154l-570 989l-573 -989h1143z" />
    <glyph glyph-name="uni25B6" unicode="&#x25b6;" horiz-adv-x="1050" 
d="M115 -12v1048l913 -524z" />
    <glyph glyph-name="uni25B7" unicode="&#x25b7;" horiz-adv-x="1064" 
d="M115 -10v1065l927 -533zM242 842v-637l557 317z" />
    <glyph glyph-name="uni25C0" unicode="&#x25c0;" horiz-adv-x="1050" 
d="M23 512l913 524v-1048z" />
    <glyph glyph-name="uni25C1" unicode="&#x25c1;" horiz-adv-x="1064" 
d="M23 522l927 533v-1065zM266 522l557 -317v637z" />
    <glyph glyph-name="lozenge" unicode="&#x25ca;" horiz-adv-x="1224" 
d="M508 1434h209l413 -717l-413 -717h-209l-414 717zM289 717l323 -578l324 578l-324 579z" />
    <glyph glyph-name="circle" unicode="&#x25cb;" horiz-adv-x="1642" 
d="M821 1446q207 0 375.5 -95t264 -262t95.5 -372t-95.5 -372t-264 -262t-375.5 -95q-208 0 -376.5 95t-263.5 262t-95 372t95 372t263.5 262t376.5 95zM821 1339q-174 0 -314 -80.5t-219 -222.5t-79 -319q0 -132 46.5 -248t127 -198t194.5 -129.5t244 -47.5q174 0 314 80.5
t219.5 223t79.5 319.5t-79.5 319t-219.5 222.5t-314 80.5z" />
    <glyph glyph-name="uni25CF" unicode="&#x25cf;" horiz-adv-x="1630" 
d="M815 1446q-205 0 -372 -95t-262 -262t-95 -372t95 -372t262 -262t372 -95t372 95t262 262t95 372t-95 372t-262 262t-372 95z" />
    <glyph glyph-name="uni25FD" unicode="&#x25fd;" horiz-adv-x="1273" 
d="M115 0v1044h1044v-1044h-1044zM1024 918h-776v-789h776v789z" />
    <glyph glyph-name="uni25FE" unicode="&#x25fe;" horiz-adv-x="1273" 
d="M115 0v1044h1044v-1044h-1044z" />
    <glyph glyph-name="uni262E" unicode="&#x262e;" horiz-adv-x="1636" 
d="M86 717q0 156 55 291.5t151.5 231.5t232.5 151t292 55q157 0 293 -55t232.5 -151t152 -231.5t55.5 -291.5t-55.5 -291.5t-152 -231.5t-232.5 -151t-293 -55q-156 0 -292 55t-232.5 151t-151.5 231.5t-55 291.5zM346 397l406 416v481q-227 -19 -374 -180.5t-147 -396.5
q0 -186 115 -320zM883 1294v-481l405 -416q117 133 117 320q0 235 -147 396.5t-375 180.5zM1231 289l-348 358v-508q207 15 348 150zM752 139v506l-346 -356q141 -135 346 -150z" />
    <glyph glyph-name="uni26AA" unicode="&#x26aa;" horiz-adv-x="1208" 
d="M604 1038q221 0 373.5 -151.5t152.5 -372.5t-152.5 -372.5t-373.5 -151.5t-373.5 151.5t-152.5 372.5t152.5 372.5t373.5 151.5zM604 918q-168 0 -285.5 -118t-117.5 -286q0 -167 118 -285t285 -118q168 0 286 117.5t118 285.5q0 169 -117.5 286.5t-286.5 117.5z" />
    <glyph glyph-name="uni26AB" unicode="&#x26ab;" horiz-adv-x="1208" 
d="M604 1038q221 0 373.5 -151.5t152.5 -372.5t-152.5 -372.5t-373.5 -151.5t-373.5 151.5t-152.5 372.5t152.5 372.5t373.5 151.5z" />
    <glyph glyph-name="uni2713" unicode="&#x2713;" horiz-adv-x="2088" 
d="M745 0l-714 715l119 121l595 -594l1190 1192l123 -121z" />
    <glyph glyph-name="uni2715" unicode="&#x2715;" horiz-adv-x="1599" 
d="M84 1313l121 121l594 -594l596 594l121 -121l-596 -594l596 -600l-121 -119l-596 596l-594 -596l-121 119l596 600z" />
    <glyph glyph-name="uni2780" unicode="&#x2780;" horiz-adv-x="1642" 
d="M821 1446q207 0 375.5 -95t264 -262t95.5 -372t-95.5 -372t-264 -262t-375.5 -95q-208 0 -376.5 95t-263.5 262t-95 372t95 372t263.5 262t376.5 95zM821 1339q-174 0 -314 -80.5t-219 -222.5t-79 -319q0 -132 46.5 -248t127 -198t194.5 -129.5t244 -47.5q174 0 314 80.5
t219.5 223t79.5 319.5t-79.5 319t-219.5 222.5t-314 80.5zM776 993v97h113v-746h-115v500q-14 -21 -41 -21h-133v113h133q20 0 31.5 16.5t11.5 40.5z" />
    <glyph glyph-name="uni2781" unicode="&#x2781;" horiz-adv-x="1642" 
d="M821 1446q207 0 375.5 -95t264 -262t95.5 -372t-95.5 -372t-264 -262t-375.5 -95q-208 0 -376.5 95t-263.5 262t-95 372t95 372t263.5 262t376.5 95zM821 1339q-174 0 -314 -80.5t-219 -222.5t-79 -319q0 -132 46.5 -248t127 -198t194.5 -129.5t244 -47.5q174 0 314 80.5
t219.5 223t79.5 319.5t-79.5 319t-219.5 222.5t-314 80.5zM659 829h-114v15q0 117 75.5 187.5t190.5 70.5q124 0 197 -64.5t73 -169.5q0 -52 -22.5 -98t-50.5 -74.5t-74 -64.5l-217 -174h370v-113h-544v107l303 237q56 46 85.5 86t29.5 92q0 56 -41.5 90.5t-106.5 34.5
q-70 0 -112 -39.5t-42 -111.5v-11z" />
    <glyph glyph-name="uni2782" unicode="&#x2782;" horiz-adv-x="1642" 
d="M821 1446q207 0 375.5 -95t264 -262t95.5 -372t-95.5 -372t-264 -262t-375.5 -95q-208 0 -376.5 95t-263.5 262t-95 372t95 372t263.5 262t376.5 95zM821 1339q-174 0 -314 -80.5t-219 -222.5t-79 -319q0 -132 46.5 -248t127 -198t194.5 -129.5t244 -47.5q174 0 314 80.5
t219.5 223t79.5 319.5t-79.5 319t-219.5 222.5t-314 80.5zM666 868h-117q1 110 72.5 172t193.5 62t195 -57.5t73 -151.5q0 -60 -35 -99.5t-87 -54.5q64 -12 101.5 -57.5t37.5 -114.5q0 -106 -78.5 -170.5t-208.5 -64.5q-135 0 -209 64.5t-76 183.5h117q1 -67 47 -103.5
t123 -36.5q70 0 116 33.5t46 89.5q0 60 -44.5 90.5t-119.5 30.5h-53v84h47q70 0 113 30.5t43 82.5q0 51 -39.5 81.5t-104.5 30.5q-69 0 -110.5 -33.5t-42.5 -91.5z" />
    <glyph glyph-name="uni2783" unicode="&#x2783;" horiz-adv-x="1642" 
d="M821 1446q207 0 375.5 -95t264 -262t95.5 -372t-95.5 -372t-264 -262t-375.5 -95q-208 0 -376.5 95t-263.5 262t-95 372t95 372t263.5 262t376.5 95zM821 1339q-174 0 -314 -80.5t-219 -222.5t-79 -319q0 -132 46.5 -248t127 -198t194.5 -129.5t244 -47.5q174 0 314 80.5
t219.5 223t79.5 319.5t-79.5 319t-219.5 222.5t-314 80.5zM479 637l350 453h144v-453h121v-109h-121v-184h-115v184h-379v109zM858 637v330l-254 -330h254z" />
    <glyph glyph-name="uni2784" unicode="&#x2784;" horiz-adv-x="1642" 
d="M821 1446q207 0 375.5 -95t264 -262t95.5 -372t-95.5 -372t-264 -262t-375.5 -95q-208 0 -376.5 95t-263.5 262t-95 372t95 372t263.5 262t376.5 95zM821 1339q-174 0 -314 -80.5t-219 -222.5t-79 -319q0 -132 46.5 -248t127 -198t194.5 -129.5t244 -47.5q174 0 314 80.5
t219.5 223t79.5 319.5t-79.5 319t-219.5 222.5t-314 80.5zM590 1090h465v-107h-375l-14 -217q64 80 182 80q112 0 181 -70.5t69 -183.5q0 -117 -75.5 -188.5t-195.5 -71.5q-110 0 -185 62t-85 163h117q9 -53 51.5 -85t103.5 -32q64 0 106 43t42 109t-42 106.5t-108 40.5
q-101 3 -149 -82h-109z" />
    <glyph glyph-name="uni2785" unicode="&#x2785;" horiz-adv-x="1642" 
d="M821 1446q207 0 375.5 -95t264 -262t95.5 -372t-95.5 -372t-264 -262t-375.5 -95q-208 0 -376.5 95t-263.5 262t-95 372t95 372t263.5 262t376.5 95zM821 1339q-174 0 -314 -80.5t-219 -222.5t-79 -319q0 -132 46.5 -248t127 -198t194.5 -129.5t244 -47.5q174 0 314 80.5
t219.5 223t79.5 319.5t-79.5 319t-219.5 222.5t-314 80.5zM520 702q0 182 83 291t224 109q100 0 171.5 -58t86.5 -161h-112q-12 58 -52 90.5t-96 32.5q-86 0 -139 -73.5t-53 -193.5v-59q12 59 64.5 102t138.5 43q117 0 186.5 -67t69.5 -178q0 -113 -74.5 -180.5
t-198.5 -67.5q-147 0 -223 100.5t-76 269.5zM973 580q0 68 -42.5 109.5t-111.5 41.5t-112 -41t-43 -108q0 -68 43 -110t112 -42t111.5 41.5t42.5 108.5z" />
    <glyph glyph-name="uni2786" unicode="&#x2786;" horiz-adv-x="1642" 
d="M821 1446q207 0 375.5 -95t264 -262t95.5 -372t-95.5 -372t-264 -262t-375.5 -95q-208 0 -376.5 95t-263.5 262t-95 372t95 372t263.5 262t376.5 95zM821 1339q-174 0 -314 -80.5t-219 -222.5t-79 -319q0 -132 46.5 -248t127 -198t194.5 -129.5t244 -47.5q174 0 314 80.5
t219.5 223t79.5 319.5t-79.5 319t-219.5 222.5t-314 80.5zM563 981v109h535v-101l-334 -645h-127l334 639z" />
    <glyph glyph-name="uni2787" unicode="&#x2787;" horiz-adv-x="1642" 
d="M821 1446q207 0 375.5 -95t264 -262t95.5 -372t-95.5 -372t-264 -262t-375.5 -95q-208 0 -376.5 95t-263.5 262t-95 372t95 372t263.5 262t376.5 95zM821 1339q-174 0 -314 -80.5t-219 -222.5t-79 -319q0 -132 46.5 -248t127 -198t194.5 -129.5t244 -47.5q174 0 314 80.5
t219.5 223t79.5 319.5t-79.5 319t-219.5 222.5t-314 80.5zM532 543q0 69 40 119t106 69q-55 18 -89 61.5t-34 106.5q0 89 74.5 146t191.5 57q116 0 191 -57t75 -146q0 -125 -120 -168q64 -19 102.5 -69t38.5 -119q0 -93 -78 -152t-209 -59q-130 0 -209.5 59.5t-79.5 151.5z
M969 887q0 52 -42 85.5t-106 33.5q-63 0 -105 -33.5t-42 -85.5q0 -53 41.5 -85t105.5 -32q65 0 106.5 32t41.5 85zM989 553q0 54 -48 90.5t-120 36.5t-120 -36.5t-48 -90.5q0 -53 48 -88t120 -35t120 35t48 88z" />
    <glyph glyph-name="uni2788" unicode="&#x2788;" horiz-adv-x="1642" 
d="M821 1446q207 0 375.5 -95t264 -262t95.5 -372t-95.5 -372t-264 -262t-375.5 -95q-208 0 -376.5 95t-263.5 262t-95 372t95 372t263.5 262t376.5 95zM821 1339q-174 0 -314 -80.5t-219 -222.5t-79 -319q0 -132 46.5 -248t127 -198t194.5 -129.5t244 -47.5q174 0 314 80.5
t219.5 223t79.5 319.5t-79.5 319t-219.5 222.5t-314 80.5zM1110 731q0 -182 -83 -290.5t-224 -108.5q-100 0 -171.5 58t-86.5 161h112q12 -58 52 -90.5t96 -32.5q86 0 139 73t53 193v60q-12 -59 -64 -102.5t-138 -43.5q-116 0 -186 67.5t-70 178.5q0 113 74 180.5t198 67.5
q147 0 223 -101t76 -270zM657 854q0 -68 42.5 -110t111.5 -42t112.5 41.5t43.5 108.5t-43.5 109.5t-112.5 42.5t-111.5 -41.5t-42.5 -108.5z" />
    <glyph glyph-name="uni278A" unicode="&#x278a;" horiz-adv-x="1630" 
d="M815 1446q-205 0 -372 -95t-262 -262t-95 -372t95 -372t262 -262t372 -95t372 95t262 262t95 372t-95 372t-262 262t-372 95zM770 993v97h113v-746h-115v500q-14 -21 -41 -21h-133v113h133q20 0 31.5 16.5t11.5 40.5z" />
    <glyph glyph-name="uni278B" unicode="&#x278b;" horiz-adv-x="1630" 
d="M815 1446q-205 0 -372 -95t-262 -262t-95 -372t95 -372t262 -262t372 -95t372 95t262 262t95 372t-95 372t-262 262t-372 95zM653 829h-114v15q0 117 75.5 187.5t190.5 70.5q124 0 197 -64.5t73 -169.5q0 -52 -22.5 -98t-50.5 -74.5t-74 -64.5l-217 -174h370v-113h-544
v107l303 237q56 45 85 85.5t29 92.5q0 56 -41 90.5t-106 34.5q-70 0 -112 -39.5t-42 -111.5v-11z" />
    <glyph glyph-name="uni278C" unicode="&#x278c;" horiz-adv-x="1630" 
d="M815 1446q-205 0 -372 -95t-262 -262t-95 -372t95 -372t262 -262t372 -95t372 95t262 262t95 372t-95 372t-262 262t-372 95zM659 868h-116q1 110 72.5 172t193.5 62t195 -57.5t73 -151.5q0 -60 -35.5 -99.5t-87.5 -54.5q64 -12 102 -57.5t38 -114.5q0 -106 -78.5 -170.5
t-208.5 -64.5q-135 0 -209 64.5t-76 183.5h117q1 -67 47 -103.5t123 -36.5q70 0 116 33.5t46 89.5q0 60 -44.5 90.5t-119.5 30.5h-53v84h47q70 0 112.5 30.5t42.5 82.5q0 51 -39 81.5t-104 30.5q-69 0 -111 -33.5t-43 -91.5z" />
    <glyph glyph-name="uni278D" unicode="&#x278d;" horiz-adv-x="1630" 
d="M815 1446q-205 0 -372 -95t-262 -262t-95 -372t95 -372t262 -262t372 -95t372 95t262 262t95 372t-95 372t-262 262t-372 95zM473 637l350 453h144v-453h120v-109h-120v-184h-115v184h-379v109zM852 637v330l-254 -330h254z" />
    <glyph glyph-name="uni278E" unicode="&#x278e;" horiz-adv-x="1630" 
d="M815 1446q-205 0 -372 -95t-262 -262t-95 -372t95 -372t262 -262t372 -95t372 95t262 262t95 372t-95 372t-262 262t-372 95zM584 1090h465v-107h-375l-15 -217q64 80 183 80q112 0 181 -70.5t69 -183.5q0 -117 -75.5 -188.5t-195.5 -71.5q-110 0 -185 62t-85 163h117
q9 -53 51.5 -85t103.5 -32q64 0 106 43t42 109t-42 106.5t-108 40.5q-101 3 -149 -82h-109z" />
    <glyph glyph-name="uni278F" unicode="&#x278f;" horiz-adv-x="1630" 
d="M815 1446q-205 0 -372 -95t-262 -262t-95 -372t95 -372t262 -262t372 -95t372 95t262 262t95 372t-95 372t-262 262t-372 95zM514 702q0 182 83 291t224 109q100 0 171.5 -58t86.5 -161h-112q-12 58 -52 90.5t-96 32.5q-86 0 -139 -73.5t-53 -193.5v-59q12 59 64 102
t138 43q117 0 186.5 -67t69.5 -178q0 -113 -74 -180.5t-198 -67.5q-147 0 -223 100.5t-76 269.5zM967 580q0 68 -42.5 109.5t-111.5 41.5t-112.5 -41t-43.5 -108t43.5 -109.5t112.5 -42.5t111.5 41.5t42.5 108.5z" />
    <glyph glyph-name="uni2790" unicode="&#x2790;" horiz-adv-x="1630" 
d="M815 1446q-205 0 -372 -95t-262 -262t-95 -372t95 -372t262 -262t372 -95t372 95t262 262t95 372t-95 372t-262 262t-372 95zM557 981v109h535v-101l-334 -645h-127l334 639z" />
    <glyph glyph-name="uni2791" unicode="&#x2791;" horiz-adv-x="1630" 
d="M815 1446q-205 0 -372 -95t-262 -262t-95 -372t95 -372t262 -262t372 -95t372 95t262 262t95 372t-95 372t-262 262t-372 95zM526 543q0 69 40 119t106 69q-55 18 -89 61.5t-34 106.5q0 89 74.5 146t191.5 57q116 0 191 -57t75 -146q0 -125 -120 -168q64 -19 102.5 -69
t38.5 -119q0 -93 -78 -152t-209 -59q-130 0 -209.5 59.5t-79.5 151.5zM963 887q0 52 -42 85.5t-106 33.5q-63 0 -105 -33.5t-42 -85.5q0 -53 41.5 -85t105.5 -32q65 0 106.5 32t41.5 85zM983 553q0 54 -48 90.5t-120 36.5t-120 -36.5t-48 -90.5q0 -53 48 -88t120 -35t120 35
t48 88z" />
    <glyph glyph-name="uni2792" unicode="&#x2792;" horiz-adv-x="1630" 
d="M815 1446q-205 0 -372 -95t-262 -262t-95 -372t95 -372t262 -262t372 -95t372 95t262 262t95 372t-95 372t-262 262t-372 95zM1104 731q0 -182 -83 -290.5t-224 -108.5q-100 0 -171.5 58t-86.5 161h112q12 -58 52 -90.5t96 -32.5q86 0 139 73t53 193v60
q-12 -59 -64.5 -102.5t-138.5 -43.5q-116 0 -186 67.5t-70 178.5q0 113 74.5 180.5t198.5 67.5q147 0 223 -101t76 -270zM651 854q0 -68 42.5 -110t111.5 -42t112.5 41.5t43.5 108.5t-43.5 109.5t-112.5 42.5t-111.5 -41.5t-42.5 -108.5z" />
    <glyph glyph-name="fl" unicode="&#xfb02;" horiz-adv-x="1058" 
d="M4 891v153h189v117q0 140 64 206.5t208 66.5h190v-154h-180q-62 0 -88.5 -27t-26.5 -88v-121h295v-153h-295v-891h-167v891h-189zM776 0v1434h168v-1434h-168z" />
    <glyph glyph-name="u1F10B" unicode="&#x1f10b;" horiz-adv-x="1642" 
d="M821 1446q207 0 375.5 -95t264 -262t95.5 -372t-95.5 -372t-264 -262t-375.5 -95q-208 0 -376.5 95t-263.5 262t-95 372t95 372t263.5 262t376.5 95zM821 1339q-174 0 -314 -80.5t-219 -222.5t-79 -319q0 -132 46.5 -248t127 -198t194.5 -129.5t244 -47.5q174 0 314 80.5
t219.5 223t79.5 319.5t-79.5 319t-219.5 222.5t-314 80.5zM520 717q0 173 82 279t219 106q136 0 217.5 -106t81.5 -279t-81.5 -279t-217.5 -106q-137 0 -219 106t-82 279zM999 717q0 122 -48 198t-130 76q-83 0 -131.5 -76t-48.5 -198t48.5 -197.5t131.5 -75.5
q82 0 130 75.5t48 197.5z" />
    <glyph glyph-name="u1F10C" unicode="&#x1f10c;" horiz-adv-x="1630" 
d="M815 1446q-205 0 -372 -95t-262 -262t-95 -372t95 -372t262 -262t372 -95t372 95t262 262t95 372t-95 372t-262 262t-372 95zM514 717q0 173 82 279t219 106q136 0 217.5 -106t81.5 -279t-81.5 -279t-217.5 -106q-137 0 -219 106t-82 279zM993 717q0 122 -48 198t-130 76
q-83 0 -131.5 -76t-48.5 -198t48.5 -197.5t131.5 -75.5q82 0 130 75.5t48 197.5z" />
    <glyph glyph-name="J.ss07" horiz-adv-x="1191" 
d="M61 528h179q0 -177 82 -276.5t237 -99.5q161 0 242.5 92t81.5 291v899h178v-895q0 -551 -502 -551q-240 0 -369.5 139t-128.5 401z" />
    <glyph glyph-name="Jcircumflex.ss07" horiz-adv-x="1191" 
d="M1151 1556l-176 168l-178 -168h-160l258 279h160l258 -279h-162zM61 528h179q0 -177 82 -276.5t237 -99.5q161 0 242.5 92t81.5 291v899h178v-895q0 -551 -502 -551q-240 0 -369.5 139t-128.5 401z" />
    <glyph glyph-name="Q.ss08" horiz-adv-x="1540" 
d="M1454 717q0 -209 -86 -374.5t-240 -258.5l156 -244h-180l-115 180q-109 -32 -219 -32q-199 0 -355 94t-242.5 260t-86.5 375t86.5 375t242.5 260t355 94t355 -94t242.5 -260t86.5 -375zM770 152q55 0 127 14l-176 278h180l137 -217q110 73 172 201t62 289
q0 249 -139.5 407t-362.5 158t-362.5 -158t-139.5 -407t139.5 -407t362.5 -158z" />
    <glyph glyph-name="a.ss01" horiz-adv-x="1220" 
d="M938 881l23 163h145v-1044h-145l-23 168q-131 -180 -358 -180q-222 0 -362 142.5t-140 391.5q0 237 141.5 386t360.5 149q241 0 358 -176zM596 137q153 0 248.5 106.5t95.5 274.5q0 172 -95.5 280.5t-248.5 108.5q-155 0 -250.5 -107t-95.5 -278t95.5 -278t250.5 -107z
" />
    <glyph glyph-name="a.ss02" horiz-adv-x="1071" 
d="M551 1057q201 0 310.5 -97.5t109.5 -279.5v-680h-146l-14 164q-124 -176 -350 -176q-174 0 -279.5 82t-105.5 223q0 157 107.5 241t312.5 84h307v72q0 102 -68.5 159.5t-191.5 57.5q-109 0 -180.5 -48t-86.5 -128h-167q19 154 136 240t306 86zM803 426v51h-324
q-233 0 -233 -174q0 -77 62 -124.5t165 -47.5q154 0 242 81t88 214z" />
    <glyph glyph-name="aacute.ss01" horiz-adv-x="1220" 
d="M705 1446h196l-239 -277h-132zM938 881l23 163h145v-1044h-145l-23 168q-131 -180 -358 -180q-222 0 -362 142.5t-140 391.5q0 237 141.5 386t360.5 149q241 0 358 -176zM596 137q153 0 248.5 106.5t95.5 274.5q0 172 -95.5 280.5t-248.5 108.5q-155 0 -250.5 -107
t-95.5 -278t95.5 -278t250.5 -107z" />
    <glyph glyph-name="aacute.ss02" horiz-adv-x="1071" 
d="M666 1446h196l-239 -277h-131zM551 1057q201 0 310.5 -97.5t109.5 -279.5v-680h-146l-14 164q-124 -176 -350 -176q-174 0 -279.5 82t-105.5 223q0 157 107.5 241t312.5 84h307v72q0 102 -68.5 159.5t-191.5 57.5q-109 0 -180.5 -48t-86.5 -128h-167q19 154 136 240
t306 86zM803 426v51h-324q-233 0 -233 -174q0 -77 62 -124.5t165 -47.5q154 0 242 81t88 214z" />
    <glyph glyph-name="abreve.ss01" horiz-adv-x="1220" 
d="M588 1165q-124 0 -200 76.5t-79 204.5h133q0 -68 41 -110t107 -42t108.5 42.5t42.5 109.5h133q-3 -128 -82 -204.5t-204 -76.5zM938 881l23 163h145v-1044h-145l-23 168q-131 -180 -358 -180q-222 0 -362 142.5t-140 391.5q0 237 141.5 386t360.5 149q241 0 358 -176z
M596 137q153 0 248.5 106.5t95.5 274.5q0 172 -95.5 280.5t-248.5 108.5q-155 0 -250.5 -107t-95.5 -278t95.5 -278t250.5 -107z" />
    <glyph glyph-name="abreve.ss02" horiz-adv-x="1071" 
d="M549 1165q-123 0 -199.5 76.5t-79.5 204.5h133q0 -68 41 -110t107 -42t108.5 42.5t42.5 109.5h134q-3 -128 -82 -204.5t-205 -76.5zM551 1057q201 0 310.5 -97.5t109.5 -279.5v-680h-146l-14 164q-124 -176 -350 -176q-174 0 -279.5 82t-105.5 223q0 157 107.5 241
t312.5 84h307v72q0 102 -68.5 159.5t-191.5 57.5q-109 0 -180.5 -48t-86.5 -128h-167q19 154 136 240t306 86zM803 426v51h-324q-233 0 -233 -174q0 -77 62 -124.5t165 -47.5q154 0 242 81t88 214z" />
    <glyph glyph-name="acircumflex.ss01" horiz-adv-x="1220" 
d="M768 1167l-176 168l-178 -168h-160l258 279h160l258 -279h-162zM938 881l23 163h145v-1044h-145l-23 168q-131 -180 -358 -180q-222 0 -362 142.5t-140 391.5q0 237 141.5 386t360.5 149q241 0 358 -176zM596 137q153 0 248.5 106.5t95.5 274.5q0 172 -95.5 280.5
t-248.5 108.5q-155 0 -250.5 -107t-95.5 -278t95.5 -278t250.5 -107z" />
    <glyph glyph-name="acircumflex.ss02" horiz-adv-x="1071" 
d="M729 1167l-176 168l-178 -168h-160l258 279h160l258 -279h-162zM551 1057q201 0 310.5 -97.5t109.5 -279.5v-680h-146l-14 164q-124 -176 -350 -176q-174 0 -279.5 82t-105.5 223q0 157 107.5 241t312.5 84h307v72q0 102 -68.5 159.5t-191.5 57.5q-109 0 -180.5 -48
t-86.5 -128h-167q19 154 136 240t306 86zM803 426v51h-324q-233 0 -233 -174q0 -77 62 -124.5t165 -47.5q154 0 242 81t88 214z" />
    <glyph glyph-name="adieresis.ss01" horiz-adv-x="1220" 
d="M406 1208q-46 0 -76.5 30.5t-30.5 74.5q0 46 30.5 76t76.5 30q47 0 77.5 -30t30.5 -76q0 -45 -30.5 -75t-77.5 -30zM778 1208q-45 0 -76.5 30.5t-31.5 74.5q0 45 31.5 75.5t76.5 30.5q46 0 76.5 -30t30.5 -76q0 -44 -30.5 -74.5t-76.5 -30.5zM938 881l23 163h145v-1044
h-145l-23 168q-131 -180 -358 -180q-222 0 -362 142.5t-140 391.5q0 237 141.5 386t360.5 149q241 0 358 -176zM596 137q153 0 248.5 106.5t95.5 274.5q0 172 -95.5 280.5t-248.5 108.5q-155 0 -250.5 -107t-95.5 -278t95.5 -278t250.5 -107z" />
    <glyph glyph-name="adieresis.ss02" horiz-adv-x="1071" 
d="M367 1208q-46 0 -76.5 30.5t-30.5 74.5q0 46 30.5 76t76.5 30q47 0 77.5 -30t30.5 -76q0 -45 -30.5 -75t-77.5 -30zM739 1208q-45 0 -76.5 30.5t-31.5 74.5q0 45 31.5 75.5t76.5 30.5q46 0 76.5 -30t30.5 -76q0 -44 -30.5 -74.5t-76.5 -30.5zM551 1057q201 0 310.5 -97.5
t109.5 -279.5v-680h-146l-14 164q-124 -176 -350 -176q-174 0 -279.5 82t-105.5 223q0 157 107.5 241t312.5 84h307v72q0 102 -68.5 159.5t-191.5 57.5q-109 0 -180.5 -48t-86.5 -128h-167q19 154 136 240t306 86zM803 426v51h-324q-233 0 -233 -174q0 -77 62 -124.5
t165 -47.5q154 0 242 81t88 214z" />
    <glyph glyph-name="agrave.ss01" horiz-adv-x="1220" 
d="M485 1446l170 -279h-133l-233 279h196zM938 881l23 163h145v-1044h-145l-23 168q-131 -180 -358 -180q-222 0 -362 142.5t-140 391.5q0 237 141.5 386t360.5 149q241 0 358 -176zM596 137q153 0 248.5 106.5t95.5 274.5q0 172 -95.5 280.5t-248.5 108.5
q-155 0 -250.5 -107t-95.5 -278t95.5 -278t250.5 -107z" />
    <glyph glyph-name="agrave.ss02" horiz-adv-x="1071" 
d="M446 1446l170 -279h-133l-233 279h196zM551 1057q201 0 310.5 -97.5t109.5 -279.5v-680h-146l-14 164q-124 -176 -350 -176q-174 0 -279.5 82t-105.5 223q0 157 107.5 241t312.5 84h307v72q0 102 -68.5 159.5t-191.5 57.5q-109 0 -180.5 -48t-86.5 -128h-167
q19 154 136 240t306 86zM803 426v51h-324q-233 0 -233 -174q0 -77 62 -124.5t165 -47.5q154 0 242 81t88 214z" />
    <glyph glyph-name="amacron.ss01" horiz-adv-x="1220" 
d="M311 1382h563v-127h-563v127zM938 881l23 163h145v-1044h-145l-23 168q-131 -180 -358 -180q-222 0 -362 142.5t-140 391.5q0 237 141.5 386t360.5 149q241 0 358 -176zM596 137q153 0 248.5 106.5t95.5 274.5q0 172 -95.5 280.5t-248.5 108.5q-155 0 -250.5 -107
t-95.5 -278t95.5 -278t250.5 -107z" />
    <glyph glyph-name="amacron.ss02" horiz-adv-x="1071" 
d="M272 1382h564v-127h-564v127zM551 1057q201 0 310.5 -97.5t109.5 -279.5v-680h-146l-14 164q-124 -176 -350 -176q-174 0 -279.5 82t-105.5 223q0 157 107.5 241t312.5 84h307v72q0 102 -68.5 159.5t-191.5 57.5q-109 0 -180.5 -48t-86.5 -128h-167q19 154 136 240
t306 86zM803 426v51h-324q-233 0 -233 -174q0 -77 62 -124.5t165 -47.5q154 0 242 81t88 214z" />
    <glyph glyph-name="aogonek.ss01" horiz-adv-x="1220" 
d="M987 -287h131v-123h-160q-93 0 -149.5 46.5t-56.5 127.5q0 77 52.5 139.5t151.5 131.5l-18 133q-131 -180 -358 -180q-222 0 -362 142.5t-140 391.5q0 237 141.5 386t360.5 149q241 0 358 -176l23 163h145v-1044q-103 -56 -158 -106t-55 -105q0 -76 94 -76zM596 137
q153 0 248.5 106.5t95.5 274.5q0 172 -95.5 280.5t-248.5 108.5q-155 0 -250.5 -107t-95.5 -278t95.5 -278t250.5 -107z" />
    <glyph glyph-name="aogonek.ss02" horiz-adv-x="1071" 
d="M852 -287h131v-123h-160q-93 0 -150 46.5t-57 127.5q0 77 54 140t153 131l-12 129q-124 -176 -350 -176q-174 0 -279.5 82t-105.5 223q0 157 107.5 241t312.5 84h307v72q0 102 -68.5 159.5t-191.5 57.5q-109 0 -180.5 -48t-86.5 -128h-167q19 154 136 240t306 86
q201 0 310.5 -97.5t109.5 -279.5v-680q-103 -56 -158 -106t-55 -105q0 -76 94 -76zM803 426v51h-324q-233 0 -233 -174q0 -77 62 -124.5t165 -47.5q154 0 242 81t88 214z" />
    <glyph glyph-name="aring.ss01" horiz-adv-x="1220" 
d="M592 1141q-100 0 -169 67t-69 162q0 94 69.5 160.5t168.5 66.5t168 -66.5t69 -160.5q0 -96 -69 -162.5t-168 -66.5zM592 1501q-54 0 -91.5 -37.5t-37.5 -93.5q0 -58 37 -95.5t92 -37.5t92 37.5t37 95.5q0 56 -37.5 93.5t-91.5 37.5zM938 881l23 163h145v-1044h-145
l-23 168q-131 -180 -358 -180q-222 0 -362 142.5t-140 391.5q0 237 141.5 386t360.5 149q241 0 358 -176zM596 137q153 0 248.5 106.5t95.5 274.5q0 172 -95.5 280.5t-248.5 108.5q-155 0 -250.5 -107t-95.5 -278t95.5 -278t250.5 -107z" />
    <glyph glyph-name="aring.ss02" horiz-adv-x="1071" 
d="M553 1141q-100 0 -169 67t-69 162q0 94 69.5 160.5t168.5 66.5t168.5 -66.5t69.5 -160.5q0 -95 -69 -162t-169 -67zM553 1501q-55 0 -92 -37.5t-37 -93.5q0 -58 37 -95.5t92 -37.5t92 37.5t37 95.5q0 56 -37 93.5t-92 37.5zM551 1057q201 0 310.5 -97.5t109.5 -279.5
v-680h-146l-14 164q-124 -176 -350 -176q-174 0 -279.5 82t-105.5 223q0 157 107.5 241t312.5 84h307v72q0 102 -68.5 159.5t-191.5 57.5q-109 0 -180.5 -48t-86.5 -128h-167q19 154 136 240t306 86zM803 426v51h-324q-233 0 -233 -174q0 -77 62 -124.5t165 -47.5
q154 0 242 81t88 214z" />
    <glyph glyph-name="atilde.ss01" horiz-adv-x="1220" 
d="M479 1319q-35 0 -52 -28.5t-17 -71.5h-115v24q0 82 50 138.5t130 56.5q46 0 82.5 -16.5t55 -36t43 -36t49.5 -16.5q34 0 50.5 28.5t16.5 72.5h115v-25q0 -83 -50 -139t-128 -56q-48 0 -84 16.5t-54 36t-42 36t-50 16.5zM938 881l23 163h145v-1044h-145l-23 168
q-131 -180 -358 -180q-222 0 -362 142.5t-140 391.5q0 237 141.5 386t360.5 149q241 0 358 -176zM596 137q153 0 248.5 106.5t95.5 274.5q0 172 -95.5 280.5t-248.5 108.5q-155 0 -250.5 -107t-95.5 -278t95.5 -278t250.5 -107z" />
    <glyph glyph-name="atilde.ss02" horiz-adv-x="1071" 
d="M440 1319q-35 0 -52 -28.5t-17 -71.5h-115v24q0 82 50 138.5t130 56.5q46 0 82.5 -16.5t55 -36t43 -36t49.5 -16.5q34 0 50.5 28.5t16.5 72.5h115v-25q0 -83 -50 -139t-128 -56q-48 0 -84 16.5t-54 36t-42 36t-50 16.5zM551 1057q201 0 310.5 -97.5t109.5 -279.5v-680
h-146l-14 164q-124 -176 -350 -176q-174 0 -279.5 82t-105.5 223q0 157 107.5 241t312.5 84h307v72q0 102 -68.5 159.5t-191.5 57.5q-109 0 -180.5 -48t-86.5 -128h-167q19 154 136 240t306 86zM803 426v51h-324q-233 0 -233 -174q0 -77 62 -124.5t165 -47.5q154 0 242 81
t88 214z" />
    </font>
</defs>
</svg>
